<svg width="24" height="24" viewBox="0 0 24 24" fill="none" xmlns="http://www.w3.org/2000/svg">
<path d="M10.5417 15.1818L17 9.27267L21.1667 13.085V19.5659C21.1667 20.4084 20.4208 21.0909 19.5 21.0909H4.50001C3.57919 21.0909 2.83334 20.4084 2.83334 19.5659V17.2785L7.83334 12.7038L10.5417 15.1818Z" fill="#15153F"/>
<path d="M21.1667 4.62024V12.7486L17 8.47051L10.5417 15.1015L7.83334 12.3208L2.83334 17.4545V4.62024C2.83334 3.6748 3.57919 2.90901 4.50001 2.90901H19.5C20.4208 2.90901 21.1667 3.6748 21.1667 4.62024ZM7.83334 7.18709C7.83334 6.71646 7.45838 6.33147 7.00001 6.33147C6.54164 6.33147 6.16668 6.71646 6.16668 7.18709C6.16668 7.65772 6.54164 8.0427 7.00001 8.0427C7.45838 8.0427 7.83334 7.65772 7.83334 7.18709Z" fill="#FE1D5F"/>
<path d="M19.5 2H4.5C3.12122 2 2 3.12122 2 4.5V19.5C2 20.8788 3.12122 22 4.5 22H19.5C20.8788 22 22 20.8788 22 19.5V4.5C22 3.12122 20.8788 2 19.5 2ZM4.5 3.66667H19.5C19.9596 3.66667 20.3333 4.04041 20.3333 4.5V10.4049L17.5892 7.66081C17.2637 7.33549 16.7363 7.33549 16.4108 7.66081L10.5417 13.5299L8.42253 11.4108C8.09701 11.0855 7.56966 11.0855 7.24414 11.4108L3.66667 14.9883V4.5C3.66667 4.04041 4.04041 3.66667 4.5 3.66667ZM19.5 20.3333H4.5C4.04041 20.3333 3.66667 19.9596 3.66667 19.5V17.3451L7.83333 13.1784L12.6608 18.0055C12.8238 18.1688 13.0366 18.25 13.25 18.25C13.4634 18.25 13.6762 18.1688 13.8392 18.0059C14.1645 17.6803 14.1645 17.153 13.8392 16.8275L11.7201 14.7083L17 9.42879L20.3333 12.7621V19.5C20.3333 19.9596 19.9596 20.3333 19.5 20.3333Z" fill="#15153F"/>
<path d="M7.00001 9.27269C7.91919 9.27269 8.66667 8.45727 8.66667 7.45452C8.66667 6.45177 7.91919 5.63634 7.00001 5.63634C6.08082 5.63634 5.33334 6.45177 5.33334 7.45452C5.33334 8.45727 6.08082 9.27269 7.00001 9.27269ZM6.99919 7.45185C6.9996 7.4523 7.00001 7.45407 7.00001 7.45452H6.16668L6.99919 7.45185Z" fill="#15153F"/>
</svg>
