<svg width="24" height="20" viewBox="0 0 24 20" fill="none" xmlns="http://www.w3.org/2000/svg">
<mask id="path-1-inside-1" fill="white">
<path fill-rule="evenodd" clip-rule="evenodd" d="M2 0H7H17H22C23.1046 0 24 0.895431 24 2V5V5.97983C24 6.87824 23.4009 7.66641 22.5353 7.90687L21.9373 8.07296C19.9844 8.61545 19.9844 11.3846 21.9373 11.927L22.5353 12.0931C23.4009 12.3336 24 13.1218 24 14.0202V15V18C24 19.1046 23.1046 20 22 20H17H7H2C0.895431 20 0 19.1046 0 18V15V14.0202C0 13.1218 0.599074 12.3336 1.46471 12.0931L2.06267 11.927C4.01562 11.3846 4.01562 8.61545 2.06267 8.07296L1.46471 7.90687C0.599073 7.66641 0 6.87824 0 5.97983V5V2C0 0.895431 0.89543 0 2 0Z"/>
</mask>
<path d="M22.5353 7.90687L22.9368 9.35214L22.9368 9.35214L22.5353 7.90687ZM21.9373 8.07296L21.5359 6.62769L21.5359 6.62769L21.9373 8.07296ZM21.9373 11.927L21.5359 13.3723L21.5359 13.3723L21.9373 11.927ZM22.5353 12.0931L22.9368 10.6479L22.9368 10.6479L22.5353 12.0931ZM1.46471 12.0931L1.06325 10.6479L1.06325 10.6479L1.46471 12.0931ZM2.06267 11.927L2.46414 13.3723L2.46414 13.3723L2.06267 11.927ZM2.06267 8.07296L2.46414 6.62769L2.46414 6.62769L2.06267 8.07296ZM1.46471 7.90687L1.06325 9.35214L1.06325 9.35214L1.46471 7.90687ZM7 -1.5H2V1.5H7V-1.5ZM17 -1.5H7V1.5H17V-1.5ZM22 -1.5H17V1.5H22V-1.5ZM25.5 2C25.5 0.0670039 23.933 -1.5 22 -1.5V1.5C22.2761 1.5 22.5 1.72386 22.5 2H25.5ZM25.5 5V2H22.5V5H25.5ZM25.5 5.97983V5H22.5V5.97983H25.5ZM22.9368 9.35214C24.4516 8.93134 25.5 7.55206 25.5 5.97983H22.5C22.5 6.20443 22.3502 6.40147 22.1338 6.46159L22.9368 9.35214ZM22.3388 9.51824L22.9368 9.35214L22.1338 6.46159L21.5359 6.62769L22.3388 9.51824ZM22.3388 10.4818C22.1832 10.4385 22.1073 10.368 22.0625 10.3048C22.0098 10.2304 21.9726 10.1239 21.9726 10C21.9726 9.87611 22.0098 9.76961 22.0625 9.69522C22.1073 9.63203 22.1832 9.56146 22.3388 9.51824L21.5359 6.62769C18.1182 7.57704 18.1182 12.423 21.5359 13.3723L22.3388 10.4818ZM22.9368 10.6479L22.3388 10.4818L21.5359 13.3723L22.1338 13.5384L22.9368 10.6479ZM25.5 14.0202C25.5 12.4479 24.4516 11.0687 22.9368 10.6479L22.1338 13.5384C22.3502 13.5985 22.5 13.7956 22.5 14.0202H25.5ZM25.5 15V14.0202H22.5V15H25.5ZM25.5 18V15H22.5V18H25.5ZM22 21.5C23.933 21.5 25.5 19.933 25.5 18H22.5C22.5 18.2761 22.2761 18.5 22 18.5V21.5ZM17 21.5H22V18.5H17V21.5ZM7 21.5H17V18.5H7V21.5ZM2 21.5H7V18.5H2V21.5ZM-1.5 18C-1.5 19.933 0.067004 21.5 2 21.5V18.5C1.72386 18.5 1.5 18.2761 1.5 18H-1.5ZM-1.5 15V18H1.5V15H-1.5ZM-1.5 14.0202V15H1.5V14.0202H-1.5ZM1.06325 10.6479C-0.45162 11.0687 -1.5 12.4479 -1.5 14.0202H1.5C1.5 13.7956 1.64977 13.5985 1.86618 13.5384L1.06325 10.6479ZM1.66121 10.4818L1.06325 10.6479L1.86618 13.5384L2.46414 13.3723L1.66121 10.4818ZM1.6612 9.51824C1.81679 9.56146 1.8927 9.63203 1.93749 9.69522C1.99023 9.76962 2.02738 9.87611 2.02738 10C2.02738 10.1239 1.99023 10.2304 1.93749 10.3048C1.8927 10.368 1.8168 10.4385 1.66121 10.4818L2.46414 13.3723C5.88181 12.423 5.88179 7.57704 2.46414 6.62769L1.6612 9.51824ZM1.06325 9.35214L1.6612 9.51824L2.46414 6.62769L1.86618 6.46159L1.06325 9.35214ZM-1.5 5.97983C-1.5 7.55206 -0.451623 8.93134 1.06325 9.35214L1.86618 6.46159C1.64977 6.40147 1.5 6.20443 1.5 5.97983H-1.5ZM-1.5 5V5.97983H1.5V5H-1.5ZM-1.5 2V5H1.5V2H-1.5ZM2 -1.5C0.0670031 -1.5 -1.5 0.0670036 -1.5 2H1.5C1.5 1.72386 1.72386 1.5 2 1.5V-1.5Z" fill="#C0C0C0" mask="url(#path-1-inside-1)"/>
<circle cx="12" cy="10" r="2" fill="#C0C0C0"/>
<path d="M7 1C7 12.6 7 17.8333 7 19" stroke="#C0C0C0" stroke-width="1.5" stroke-dasharray="2 2"/>
<path d="M17 1C17 12.6 17 17.8333 17 19" stroke="#C0C0C0" stroke-width="1.5" stroke-dasharray="2 2"/>
</svg>
