<svg width="24" height="24" viewBox="0 0 24 24" fill="none" xmlns="http://www.w3.org/2000/svg">
<path d="M12 23C18.0751 23 23 18.0751 23 12C23 5.92487 18.0751 1 12 1C5.92487 1 1 5.92487 1 12C1 18.0751 5.92487 23 12 23Z" fill="#FE1D5F"/>
<path d="M23 12C23 18.0752 18.0752 23 12 23C11.6916 23 11.3854 22.9872 11.0834 22.962C16.7296 22.4968 21.1667 17.7668 21.1667 12C21.1667 6.23325 16.7296 1.50325 11.0834 1.03804C11.3854 1.01283 11.6916 1 12 1C18.0752 1 23 5.92479 23 12Z" fill="#FE1D5F"/>
<path d="M11.9999 22.7555C9.12703 22.7555 6.42608 21.6367 4.39459 19.6053C2.36309 17.5738 1.24438 14.8728 1.24438 11.9999C1.24438 9.12703 2.36313 6.42608 4.39459 4.39459C6.42604 2.36309 9.12703 1.24438 11.9999 1.24438C14.8728 1.24438 17.5738 2.36313 19.6053 4.39459C21.6368 6.42604 22.7555 9.12703 22.7555 11.9999C22.7555 14.8728 21.6367 17.5738 19.6053 19.6053C17.5738 21.6368 14.8728 22.7555 11.9999 22.7555ZM11.9999 2.58883C6.81064 2.58883 2.58883 6.81064 2.58883 11.9999C2.58883 17.1892 6.81064 21.4111 11.9999 21.4111C17.1892 21.4111 21.4111 17.1892 21.4111 11.9999C21.4111 6.81064 17.1892 2.58883 11.9999 2.58883Z" fill="#15153F" stroke="#15153F" stroke-width="0.8"/>
<path d="M12 14.1555C11.676 14.1555 11.4133 13.9448 11.4133 13.6849C11.4133 12.4971 11.99 11.3804 13.0371 10.5405C13.6924 10.0148 14.0533 9.3159 14.0533 8.57249C14.0533 7.75872 13.228 7.09669 12.2135 7.09669H12.0798C11.0653 7.09669 10.24 7.75872 10.24 8.57249V8.74375C10.24 9.00364 9.9773 9.21434 9.65332 9.21434C9.32933 9.21434 9.06665 9.00364 9.06665 8.74375V8.57249C9.06665 7.23975 10.4183 6.15552 12.0798 6.15552H12.2135C13.875 6.15552 15.2267 7.23975 15.2267 8.57249C15.2267 9.56728 14.7437 10.5025 13.8668 11.206C13.0412 11.8681 12.5867 12.7485 12.5867 13.6849C12.5867 13.9448 12.324 14.1555 12 14.1555Z" fill="#15153F" stroke="#15153F" stroke-width="0.8"/>
<path d="M12.0009 18.089C11.5959 18.089 11.2673 17.7606 11.2673 17.3556C11.2673 16.9507 11.5954 16.6223 12.0004 16.6223H12.0009C12.4059 16.6223 12.7342 16.9507 12.7342 17.3556C12.7342 17.7606 12.4059 18.089 12.0009 18.089Z" fill="#15153F" stroke="#15153F" stroke-width="0.8"/>
</svg>
