<svg width="512" height="512" viewBox="0 0 512 512" fill="none" xmlns="http://www.w3.org/2000/svg">
<path d="M428.288 254.062C428.288 343.256 351.6 415.562 256.999 415.562C162.402 415.562 85.714 343.256 85.714 254.062C85.714 164.868 162.402 92.5621 256.999 92.5621C351.6 92.5621 428.288 164.868 428.288 254.062V254.062Z" fill="#FE1D5F"/>
<path d="M83.214 254.062C83.214 344.626 161.315 418.062 256.999 418.062C352.683 418.062 430.788 344.626 430.788 254.062C430.788 163.498 352.683 90.0621 256.999 90.0621C161.315 90.0621 83.214 163.498 83.214 254.062ZM120.33 254.062C120.33 183.229 181.504 125.343 256.999 125.343C332.498 125.343 393.672 183.229 393.672 254.062C393.672 324.895 332.498 382.781 256.999 382.781C181.504 382.781 120.33 324.895 120.33 254.062Z" fill="#15153F" stroke="black" stroke-width="5"/>
<path d="M238.441 56.4671C238.441 66.342 246.895 74.1076 256.999 74.1076C267.103 74.1076 275.557 66.342 275.557 56.4671V21.1405C275.557 11.2656 267.103 3.5 256.999 3.5C246.895 3.5 238.441 11.2656 238.441 21.1405V56.4671Z" fill="#15153F" stroke="black" stroke-width="5"/>
<path d="M22.5542 125.306L22.5542 125.306L22.5484 125.316C17.8313 134.12 21.6316 144.752 30.7636 149.102C30.7638 149.102 30.764 149.102 30.7641 149.102C30.7645 149.103 30.7648 149.103 30.7651 149.103L62.4852 164.238C65.1664 165.547 68.0244 166.124 70.7861 166.124C77.4834 166.124 84.03 162.666 87.354 156.514L87.3582 156.506C92.0752 147.703 88.275 137.071 79.1431 132.72C79.1428 132.72 79.1426 132.72 79.1424 132.72C79.1421 132.72 79.1418 132.72 79.1415 132.72L47.4233 117.584C38.3776 113.186 27.2357 116.671 22.5542 125.306Z" fill="#15153F" stroke="black" stroke-width="5"/>
<path d="M22.5289 382.808L22.5296 382.809C25.8349 388.968 32.3864 392.422 39.0774 392.422C41.8582 392.422 44.7169 391.85 47.4018 390.539L79.1224 375.404C79.1227 375.404 79.1231 375.404 79.1234 375.404C88.2505 371.053 92.0566 360.422 87.3343 351.617L87.3333 351.615C82.6714 342.94 71.5438 339.493 62.4659 343.884C62.4637 343.885 62.4616 343.886 62.4594 343.887L30.7456 359.021C30.7453 359.021 30.745 359.021 30.7446 359.021C30.7444 359.022 30.7442 359.022 30.744 359.022C21.6121 363.373 17.8118 374.004 22.5289 382.808Z" fill="#15153F" stroke="black" stroke-width="5"/>
<path d="M238.441 490.86C238.441 500.734 246.895 508.5 256.999 508.5C267.103 508.5 275.557 500.734 275.557 490.86V455.533C275.557 445.658 267.103 437.892 256.999 437.892C246.895 437.892 238.441 445.658 238.441 455.533V490.86Z" fill="#15153F" stroke="black" stroke-width="5"/>
<path d="M426.668 351.61L426.668 351.61L426.663 351.618C421.946 360.421 425.747 371.053 434.879 375.403C434.879 375.404 434.879 375.404 434.879 375.404C434.879 375.404 434.88 375.404 434.88 375.404L466.594 390.538C466.596 390.539 466.599 390.54 466.601 390.541C469.301 391.847 472.137 392.422 474.921 392.422C481.616 392.422 488.163 388.968 491.469 382.809L491.469 382.808C496.191 374.004 492.385 363.372 483.258 359.022C483.258 359.022 483.257 359.021 483.257 359.021L451.533 343.885C442.473 339.49 431.351 342.945 426.668 351.61Z" fill="#15153F" stroke="black" stroke-width="5"/>
<path d="M426.663 156.506L426.664 156.508C429.969 162.666 436.52 166.124 443.212 166.124C445.976 166.124 448.836 165.546 451.532 164.24C451.535 164.238 451.537 164.237 451.54 164.236L483.257 149.103C483.257 149.103 483.258 149.102 483.258 149.102C492.385 144.752 496.191 134.12 491.469 125.316L491.468 125.314C486.806 116.639 475.678 113.191 466.6 117.583C466.598 117.584 466.596 117.585 466.594 117.586L434.88 132.72C434.88 132.72 434.879 132.72 434.879 132.72C434.879 132.72 434.879 132.72 434.879 132.72C425.747 137.071 421.946 147.703 426.663 156.506Z" fill="#15153F" stroke="black" stroke-width="5"/>
</svg>
