<svg width="30" height="30" viewBox="0 0 30 30" fill="none" xmlns="http://www.w3.org/2000/svg">
<path d="M2.8 12.5L1 18.5H2.5L7.83331 12.5H2.8Z" fill="#FFC956"/>
<path d="M2.8 11.5L1 5.5H2.5L7.83331 11.5H2.8Z" fill="#FFC956"/>
<path d="M26.2639 14H8.272C5.77767 14 3.30368 13.5514 0.968169 12.6756H0.968164C0.830644 12.624 0.712138 12.5317 0.62848 12.411C0.544823 12.2902 0.5 12.1469 0.5 12C0.5 11.8531 0.544823 11.7098 0.62848 11.589C0.712138 11.4683 0.830644 11.376 0.968164 11.3244H0.968168C3.30368 10.4486 5.77767 10 8.272 10H26.2639C27.0768 10 27.8785 10.1893 28.6056 10.5528C28.8743 10.6872 29.1004 10.8937 29.2584 11.1493C29.4163 11.405 29.5 11.6995 29.5 12C29.5 12.3005 29.4163 12.595 29.2583 12.8506C29.1004 13.1063 28.8743 13.3128 28.6056 13.4472C27.8785 13.8107 27.0768 14 26.2639 14Z" fill="white"/>
<path d="M19 10V5.5L16.5 0.5H19L25 10H19Z" fill="#FFC956"/>
<path d="M19 14V18.5L16.5 23.5H19L25 14H19Z" fill="#FFC956"/>
<path d="M7.00002 26.5C7.00002 26.5 6 25.5093 6 25.5V24H4V25.5L3 26.5V27.5C3 28.0305 3.21071 28.5392 3.58579 28.9142C3.96086 29.2893 4.46956 29.5 4.99999 29.5H5C5.53042 29.5 6.03911 29.2893 6.41418 28.9142C6.78925 28.5392 6.99997 28.0305 6.99999 27.5001L7.00002 26.5Z" fill="white"/>
<path d="M13 23.5C13 23.5 12 22.5093 12 22.5V21H10V22.5L9 23.5V24.5C9 25.0305 9.21071 25.5392 9.58578 25.9142C9.96086 26.2893 10.4696 26.5 11 26.5H11C11.5304 26.5 12.0391 26.2893 12.4142 25.9142C12.7893 25.5392 13 25.0305 13 24.5001L13 23.5Z" fill="white"/>
<path d="M0.792602 13.1437C1.1803 13.2891 1.57104 13.4225 1.96483 13.5438L0.521087 18.3563C0.498688 18.431 0.494054 18.5098 0.507556 18.5866C0.521057 18.6634 0.55232 18.7359 0.598849 18.7985C0.645378 18.861 0.705883 18.9118 0.775534 18.9468C0.845185 18.9818 0.922053 19 1 19H2.5C2.57061 19 2.64042 18.985 2.70483 18.9561C2.76925 18.9272 2.8268 18.885 2.87372 18.8322L6.77171 14.4469C7.26969 14.4819 7.76979 14.4996 8.272 14.5H18.5V15.5H17.5V16.5H18.5V18H17.5V19H18.191L16.0528 23.2764C16.0147 23.3526 15.9967 23.4373 16.0005 23.5225C16.0043 23.6076 16.0299 23.6904 16.0747 23.7629C16.1195 23.8354 16.1821 23.8952 16.2565 23.9367C16.331 23.9782 16.4148 24 16.5 24H19C19.0844 24 19.1674 23.9786 19.2414 23.9379C19.3153 23.8972 19.3777 23.8384 19.4228 23.767L25.2756 14.5H26.2639C27.1543 14.4989 28.0323 14.2916 28.8292 13.8944C29.181 13.7185 29.4769 13.4481 29.6837 13.1135C29.8905 12.7789 30 12.3933 30 12C30 11.6067 29.8905 11.2211 29.6837 10.8865C29.4769 10.5519 29.181 10.2815 28.8292 10.1056C28.0323 9.70835 27.1543 9.50107 26.2639 9.5H25.2756L19.4228 0.233C19.3777 0.161637 19.3153 0.102846 19.2414 0.0621043C19.1674 0.0213631 19.0844 -2.00953e-06 19 2.22799e-10H16.5C16.4148 -2.54382e-06 16.331 0.0217818 16.2565 0.0632843C16.1821 0.104787 16.1195 0.164629 16.0747 0.23713C16.0299 0.30963 16.0043 0.39238 16.0005 0.477523C15.9967 0.562665 16.0147 0.647373 16.0528 0.723603L18.191 5H17.5V6H18.5V7.5H17.5V8.5H18.5V9.5H8.272C7.76991 9.5 7.26981 9.51768 6.77171 9.55305L2.87372 5.16782C2.8268 5.11504 2.76925 5.0728 2.70483 5.04388C2.64042 5.01496 2.57061 5 2.5 5H1C0.922053 5 0.845185 5.01822 0.775534 5.05321C0.705883 5.08821 0.645378 5.139 0.598849 5.20153C0.55232 5.26407 0.521057 5.33662 0.507556 5.41339C0.494054 5.49016 0.498688 5.56902 0.521087 5.64368L1.96483 10.4561C1.57133 10.5783 1.18058 10.7117 0.792572 10.8563C0.559754 10.9436 0.359129 11.0999 0.217503 11.3042C0.0758775 11.5086 -3.32889e-06 11.7514 1.09531e-10 12C3.32911e-06 12.2487 0.0758906 12.4914 0.217522 12.6958C0.359153 12.9001 0.559783 13.0564 0.792602 13.1437ZM2.27545 18H1.67203L2.9266 13.818C3.78713 14.0416 4.66089 14.2107 5.54269 14.3244L2.27545 18ZM18.7244 23H17.309L19.4472 18.7236C19.4819 18.6542 19.5 18.5776 19.5 18.5V14.5H24.0928L18.7244 23ZM19.4472 5.2764L17.309 1H18.7244L24.0928 9.5H19.5V5.5C19.5 5.42238 19.4819 5.34582 19.4472 5.2764ZM26.2639 10.5C26.9991 10.5009 27.724 10.672 28.382 11C28.5677 11.0929 28.7239 11.2356 28.833 11.4122C28.9422 11.5888 29 11.7924 29 12C29 12.2076 28.9422 12.4112 28.833 12.5878C28.7239 12.7644 28.5677 12.9071 28.382 13C27.724 13.328 26.9991 13.4991 26.2639 13.5H8.272C6.13474 13.5013 4.01079 13.1638 1.97921 12.5H5V11.5H1.97925C4.01081 10.8362 6.13475 10.4987 8.272 10.5H26.2639ZM1.67203 6H2.27545L5.54269 9.67564C4.66089 9.7893 3.78713 9.9584 2.9266 10.182L1.67203 6Z" fill="black"/>
<path d="M27 11H26V13H27V11Z" fill="black"/>
<path d="M7.50001 22.382V22H6.50001V22.382C6.50075 22.6068 6.44321 22.8279 6.333 23.0239C6.22279 23.2198 6.06368 23.3839 5.87118 23.5H5.50001V21.5H4.50001V23.5H4.12885C3.93635 23.3839 3.77724 23.2198 3.66703 23.0239C3.55682 22.8279 3.49928 22.6068 3.50001 22.382V22H2.50001V22.382C2.49869 22.7566 2.58914 23.1259 2.76346 23.4575C2.93778 23.7892 3.19066 24.0731 3.50001 24.2844V25.2929L2.64647 26.1465C2.60004 26.1929 2.5632 26.248 2.53807 26.3087C2.51294 26.3693 2.50001 26.4343 2.50001 26.5V27.5C2.50001 28.1631 2.76339 28.799 3.23223 29.2678C3.70106 29.7367 4.33694 30.0001 4.99998 30.0001C5.66302 30.0001 6.29891 29.7367 6.76776 29.2679C7.23661 28.799 7.50001 28.1631 7.50001 27.5001V26.5C7.50002 26.4339 7.48693 26.3685 7.46151 26.3076C7.43609 26.2466 7.39884 26.1913 7.35191 26.1448C7.0334 25.8293 6.68434 25.4821 6.50001 25.2968V24.2844C6.80936 24.0731 7.06225 23.7892 7.23657 23.4575C7.41089 23.1259 7.50134 22.7566 7.50001 22.382ZM6.50001 27.5001C6.50001 27.8979 6.34196 28.2794 6.06065 28.5607C5.77934 28.842 5.39781 29.0001 4.99998 29.0001C4.60216 29.0001 4.22063 28.842 3.93933 28.5607C3.65803 28.2794 3.50001 27.8979 3.50001 27.5V26.7071L4.35356 25.8535C4.39999 25.8071 4.43683 25.752 4.46196 25.6913C4.48708 25.6307 4.50002 25.5657 4.50001 25.5V24.5H5.50001V25.5C5.50001 25.7096 5.5822 25.7922 5.80189 26.0129C5.8961 26.1075 6.02168 26.2328 6.14729 26.3579C6.27626 26.4862 6.40526 26.6143 6.50001 26.7083V27.5001Z" fill="black"/>
<path d="M13.5 19.382V19H12.5V19.382C12.5007 19.6068 12.4432 19.8279 12.333 20.0239C12.2228 20.2198 12.0637 20.3839 11.8712 20.5H11.5V18.5H10.5V20.5H10.1288C9.93633 20.3839 9.77722 20.2198 9.66701 20.0239C9.5568 19.8279 9.49926 19.6068 9.5 19.382V19H8.5V19.382C8.49868 19.7566 8.58913 20.1259 8.76345 20.4575C8.93776 20.7892 9.19065 21.0731 9.5 21.2844V22.2929L8.64645 23.1465C8.60002 23.1929 8.56319 23.248 8.53806 23.3087C8.51293 23.3693 8.5 23.4343 8.5 23.5V24.5C8.49999 25.1631 8.76337 25.799 9.23221 26.2678C9.70104 26.7367 10.3369 27.0001 11 27.0001C11.663 27.0001 12.2989 26.7367 12.7677 26.2679C13.2366 25.799 13.5 25.1631 13.5 24.5001V23.5C13.5 23.4339 13.4869 23.3685 13.4615 23.3076C13.4361 23.2466 13.3988 23.1913 13.3519 23.1448C13.0334 22.8293 12.6843 22.4821 12.5 22.2968V21.2844C12.8093 21.0731 13.0622 20.7892 13.2366 20.4575C13.4109 20.1259 13.5013 19.7566 13.5 19.382ZM12.5 24.5001C12.5 24.6971 12.4612 24.8921 12.3858 25.0741C12.3104 25.2561 12.1999 25.4215 12.0606 25.5607C11.9213 25.7 11.756 25.8105 11.574 25.8859C11.392 25.9613 11.1969 26.0001 11 26.0001C10.803 26.0001 10.6079 25.9613 10.4259 25.8859C10.244 25.8105 10.0786 25.7 9.93932 25.5607C9.80003 25.4214 9.68955 25.256 9.61417 25.0741C9.53879 24.8921 9.49999 24.697 9.5 24.5V23.7071L10.3535 22.8535C10.4 22.8071 10.4368 22.752 10.4619 22.6913C10.4871 22.6307 10.5 22.5657 10.5 22.5V21.5H11.5V22.5C11.5 22.7096 11.5822 22.7922 11.8019 23.0129C11.8961 23.1075 12.0217 23.2328 12.1473 23.3579C12.2762 23.4862 12.4052 23.6143 12.5 23.7083V24.5001Z" fill="black"/>
<path d="M5.5 19.5H4.5V20.5H5.5V19.5Z" fill="black"/>
<path d="M11.5 16.5H10.5V17.5H11.5V16.5Z" fill="black"/>
</svg>
