<svg width="32" height="32" viewBox="0 0 32 32" fill="none" xmlns="http://www.w3.org/2000/svg">
<path d="M15.1649 30.7655C22.8586 30.7655 29.0955 24.5272 29.0955 16.8318C29.0955 9.13637 22.8586 2.89801 15.1649 2.89801C7.47114 2.89801 1.23416 9.13637 1.23416 16.8318C1.23416 24.5272 7.47114 30.7655 15.1649 30.7655Z" fill="white"/>
<path d="M29.096 16.8322C29.0961 19.6868 28.2197 22.4727 26.5852 24.8128C24.9507 27.153 22.637 28.9346 19.9571 29.9166C17.2773 30.8987 14.3605 31.0337 11.6014 30.3036C8.84229 29.5734 6.37395 28.0133 4.53024 25.8342C7.14807 28.2147 10.5733 29.5099 14.1109 29.4569C17.6485 29.4039 21.0335 28.0066 23.5788 25.5487C26.1241 23.0908 27.6392 19.7563 27.8165 16.222C27.9939 12.6876 26.8202 9.21821 24.5337 6.51775C25.972 7.8231 27.121 9.41527 27.9068 11.1917C28.6926 12.9682 29.0977 14.8896 29.096 16.8322Z" fill="white"/>
<path d="M15.1649 27.3343C20.9638 27.3343 25.6647 22.6323 25.6647 16.8321C25.6647 11.0319 20.9638 6.32996 15.1649 6.32996C9.36595 6.32996 4.66499 11.0319 4.66499 16.8321C4.66499 22.6323 9.36595 27.3343 15.1649 27.3343Z" fill="#FFC956"/>
<path d="M25.6649 16.8321C25.6656 19.1525 24.898 21.4077 23.4819 23.2457C22.0659 25.0836 20.0812 26.4008 17.8378 26.9915C15.5943 27.5822 13.2185 27.4131 11.0812 26.5107C8.944 25.6083 7.16572 24.0233 6.02411 22.0034C7.70779 24.0102 10.0806 25.3151 12.6769 25.6619C15.2731 26.0087 17.9051 25.3723 20.0563 23.8777C22.2075 22.3831 23.7224 20.1381 24.3037 17.5836C24.885 15.0291 24.4907 12.3495 23.1981 10.0709C24.7944 11.9616 25.6685 14.3574 25.6649 16.8321Z" fill="#FFC956"/>
<path d="M15.1648 23.7673C18.9941 23.7673 22.0984 20.6624 22.0984 16.8322C22.0984 13.002 18.9941 9.89708 15.1648 9.89708C11.3355 9.89708 8.23125 13.002 8.23125 16.8322C8.23125 20.6624 11.3355 23.7673 15.1648 23.7673Z" fill="white"/>
<path d="M22.0504 16.8322C22.05 18.4007 21.5183 19.9227 20.5419 21.1501C19.5655 22.3775 18.2021 23.2376 16.6742 23.5904C15.1462 23.9431 13.5438 23.7675 12.1285 23.0922C10.7131 22.417 9.56825 21.282 8.88071 19.8723C9.99626 21.1215 11.5262 21.9247 13.1877 22.1334C14.8493 22.3421 16.5302 21.9422 17.9199 21.0076C19.3096 20.073 20.3142 18.667 20.748 17.0491C21.1818 15.4313 21.0155 13.7112 20.2799 12.2065C21.4211 13.4767 22.0518 15.1245 22.0504 16.8322Z" fill="white"/>
<path d="M15.1648 19.4638C16.618 19.4638 17.796 18.2856 17.796 16.8321C17.796 15.3787 16.618 14.2004 15.1648 14.2004C13.7117 14.2004 12.5337 15.3787 12.5337 16.8321C12.5337 18.2856 13.7117 19.4638 15.1648 19.4638Z" fill="#FFC956"/>
<path d="M17.7969 16.8322C17.7971 17.4111 17.6065 17.9739 17.2546 18.4335C16.9026 18.8932 16.409 19.2239 15.8502 19.3745C15.2913 19.5252 14.6984 19.4873 14.1633 19.2668C13.6281 19.0463 13.1806 18.6555 12.8899 18.1548C13.293 18.3938 13.7531 18.5194 14.2217 18.5184C14.9188 18.518 15.5872 18.2408 16.0801 17.7477C16.573 17.2547 16.8501 16.5861 16.8504 15.8888C16.8514 15.4202 16.7258 14.96 16.4869 14.5568C16.8856 14.7879 17.2165 15.1197 17.4464 15.5191C17.6764 15.9185 17.7972 16.3713 17.7969 16.8322Z" fill="#FFC956"/>
<path d="M15.1651 31C12.3635 31 9.62482 30.169 7.29538 28.6122C4.96595 27.0554 3.15038 24.8426 2.07826 22.2537C1.00614 19.6648 0.725622 16.8161 1.27218 14.0677C1.81875 11.3194 3.16784 8.79485 5.14886 6.81339C7.12988 4.83193 9.65385 3.48255 12.4016 2.93586C15.1494 2.38918 17.9975 2.66976 20.5858 3.74212C23.1741 4.81447 25.3864 6.63044 26.9429 8.96039C28.4994 11.2903 29.3301 14.0296 29.3301 16.8318C29.3259 20.5881 27.8321 24.1894 25.1766 26.8455C22.521 29.5016 18.9206 30.9957 15.1651 31ZM15.1651 3.13248C12.4562 3.13248 9.80816 3.93594 7.55581 5.44124C5.30346 6.94654 3.54797 9.08608 2.51133 11.5893C1.47469 14.0925 1.20346 16.847 1.73193 19.5044C2.26041 22.1618 3.56485 24.6028 5.48032 26.5187C7.39578 28.4346 9.83623 29.7393 12.4931 30.2679C15.1499 30.7965 17.9037 30.5252 20.4064 29.4883C22.9091 28.4515 25.0482 26.6956 26.5531 24.4427C28.0581 22.1899 28.8614 19.5413 28.8614 16.8318C28.8575 13.1997 27.4132 9.71752 24.8455 7.14924C22.2778 4.58097 18.7964 3.13639 15.1651 3.13248Z" fill="black" stroke="black"/>
<path d="M15.1651 27.5687C13.042 27.5687 10.9666 26.939 9.20136 25.7593C7.43609 24.5795 6.06022 22.9026 5.24775 20.9407C4.43528 18.9788 4.22271 16.82 4.6369 14.7372C5.05109 12.6545 6.07345 10.7414 7.5747 9.2398C9.07594 7.73823 10.9886 6.71564 13.0709 6.30136C15.1532 5.88707 17.3116 6.0997 19.273 6.91235C21.2345 7.72499 22.911 9.10116 24.0905 10.8668C25.27 12.6325 25.8996 14.7083 25.8996 16.8319C25.8964 19.6785 24.7645 22.4076 22.7521 24.4205C20.7396 26.4334 18.0111 27.5656 15.1651 27.5687ZM15.1651 6.56391C13.1348 6.56391 11.15 7.16612 9.46179 8.29438C7.7736 9.42264 6.45781 11.0263 5.68083 12.9025C4.90384 14.7787 4.70054 16.8433 5.09665 18.8351C5.49275 20.8269 6.47047 22.6565 7.90616 24.0925C9.34184 25.5285 11.171 26.5064 13.1624 26.9026C15.1537 27.2988 17.2178 27.0954 19.0936 26.3183C20.9695 25.5411 22.5728 24.225 23.7008 22.5365C24.8288 20.8479 25.4309 18.8627 25.4309 16.8319C25.4277 14.1097 24.3451 11.4999 22.4206 9.57499C20.496 7.65013 17.8868 6.56695 15.1651 6.56391Z" fill="black" stroke="black"/>
<path d="M15.165 24.0015C13.7473 24.0015 12.3614 23.5811 11.1826 22.7933C10.0038 22.0055 9.08507 20.8858 8.54252 19.5757C7.99996 18.2656 7.85799 16.8241 8.13456 15.4333C8.41113 14.0425 9.09382 12.765 10.0963 11.7623C11.0988 10.7596 12.376 10.0768 13.7665 9.80015C15.1569 9.52352 16.5982 9.66552 17.908 10.2082C19.2178 10.7509 20.3372 11.6698 21.1248 12.8489C21.9124 14.028 22.3328 15.4142 22.3328 16.8322C22.3305 18.7329 21.5746 20.5551 20.2309 21.8992C18.8872 23.2432 17.0653 23.9992 15.165 24.0015ZM15.165 10.1313C13.8401 10.1312 12.5448 10.5242 11.4431 11.2604C10.3414 11.9966 9.48272 13.0431 8.97563 14.2675C8.46855 15.4919 8.33583 16.8391 8.59428 18.1389C8.85272 19.4388 9.49072 20.6327 10.4276 21.5699C11.3645 22.507 12.5581 23.1452 13.8576 23.4038C15.1571 23.6624 16.5041 23.5298 17.7283 23.0226C18.9524 22.5155 19.9987 21.6567 20.7349 20.5548C21.471 19.4529 21.864 18.1574 21.864 16.8322C21.862 15.0557 21.1556 13.3525 19.8997 12.0964C18.6439 10.8402 16.9411 10.1333 15.165 10.1313Z" fill="black" stroke="black"/>
<path d="M15.1651 19.6983C14.5983 19.6983 14.0443 19.5302 13.573 19.2153C13.1018 18.9004 12.7344 18.4528 12.5175 17.9291C12.3006 17.4054 12.2438 16.8291 12.3544 16.2731C12.4649 15.7171 12.7378 15.2064 13.1385 14.8056C13.5393 14.4047 14.0499 14.1317 14.6057 14.0211C15.1616 13.9105 15.7377 13.9672 16.2614 14.1842C16.785 14.4011 17.2325 14.7684 17.5474 15.2398C17.8623 15.7111 18.0303 16.2653 18.0303 16.8321C18.0295 17.592 17.7273 18.3204 17.1902 18.8577C16.653 19.3951 15.9247 19.6973 15.1651 19.6983ZM15.1651 14.4349C14.691 14.4348 14.2276 14.5754 13.8334 14.8388C13.4393 15.1021 13.132 15.4765 12.9506 15.9146C12.7692 16.3526 12.7217 16.8346 12.8141 17.2997C12.9066 17.7647 13.1348 18.1919 13.47 18.5272C13.8052 18.8625 14.2322 19.0908 14.6972 19.1833C15.1621 19.2758 15.644 19.2284 16.082 19.0469C16.5199 18.8655 16.8943 18.5582 17.1576 18.164C17.421 17.7698 17.5616 17.3063 17.5616 16.8321C17.5608 16.1966 17.3081 15.5873 16.8588 15.1379C16.4096 14.6885 15.8005 14.4357 15.1651 14.4349Z" fill="black" stroke="black" stroke-width="0.8"/>
<path d="M29.3972 2.5913L29.3971 2.59113C29.1298 2.32384 28.6964 2.32383 28.4291 2.59113L14.7796 16.2407C14.5123 16.508 14.5123 16.9413 14.7796 17.2086L14.7798 17.2088C15.0471 17.4761 15.4804 17.4761 15.7477 17.2088L29.3972 3.55927C29.6645 3.29197 29.6645 2.8586 29.3972 2.5913Z" fill="white"/>
<path d="M15.2654 17.645C15.1448 17.6452 15.0253 17.6215 14.9138 17.5754C14.8023 17.5293 14.701 17.4617 14.6157 17.3763C14.5304 17.291 14.4627 17.1897 14.4165 17.0782C14.3704 16.9667 14.3466 16.8472 14.3466 16.7265C14.3466 16.6058 14.3704 16.4863 14.4165 16.3748C14.4627 16.2633 14.5304 16.162 14.6157 16.0766L28.2633 2.42654C28.4365 2.25844 28.6688 2.16522 28.9102 2.16702C29.1515 2.16882 29.3824 2.26549 29.5531 2.43616C29.7237 2.60683 29.8204 2.83779 29.8223 3.07917C29.8241 3.32055 29.731 3.55296 29.5629 3.72622L15.9151 17.377C15.8298 17.4623 15.7285 17.5298 15.617 17.5758C15.5055 17.6218 15.386 17.6453 15.2654 17.645ZM28.9142 2.62557C28.855 2.62549 28.7965 2.63708 28.7419 2.65969C28.6873 2.6823 28.6376 2.71548 28.5959 2.75732L14.9471 16.4081C14.9053 16.4499 14.8722 16.4995 14.8495 16.5542C14.8269 16.6088 14.8153 16.6673 14.8153 16.7265C14.8153 16.7856 14.8269 16.8442 14.8495 16.8988C14.8722 16.9534 14.9053 17.003 14.9471 17.0448C15.0316 17.1292 15.1461 17.1765 15.2654 17.1765C15.3848 17.1765 15.4993 17.1292 15.5837 17.0448L29.2315 3.39403C29.2945 3.33118 29.3375 3.25104 29.355 3.16376C29.3724 3.07648 29.3636 2.98597 29.3297 2.90369C29.2957 2.82142 29.2381 2.75108 29.1641 2.70157C29.0901 2.65206 29.0032 2.62561 28.9142 2.62557Z" fill="black" stroke="black" stroke-width="0.5"/>
<path d="M26.4004 9.09711L24.2188 8.73843L28.5843 4.37219L30.7656 4.73087L26.4004 9.09711Z" fill="#FFC956"/>
<path d="M26.4004 9.3319C26.3876 9.33191 26.3749 9.33089 26.3624 9.32885L24.1808 8.96994C24.1383 8.96296 24.0985 8.94437 24.0658 8.91622C24.0331 8.88807 24.0089 8.85146 23.9957 8.81041C23.9825 8.76936 23.9808 8.72546 23.991 8.68354C24.0011 8.64162 24.0226 8.60331 24.0531 8.57282L28.4183 4.20658C28.4447 4.18035 28.4769 4.16073 28.5123 4.14932C28.5477 4.13791 28.5853 4.13504 28.622 4.14094L30.8036 4.49962C30.8461 4.5066 30.8859 4.52519 30.9186 4.55334C30.9513 4.58149 30.9755 4.6181 30.9887 4.65915C31.0019 4.7002 31.0036 4.7441 30.9934 4.78602C30.9833 4.82794 30.9618 4.86625 30.9313 4.89674L26.5661 9.26321C26.5221 9.30718 26.4625 9.33189 26.4004 9.3319ZM24.7075 8.58173L26.3197 8.84687L30.277 4.8876L28.6647 4.62246L24.7075 8.58173Z" fill="black" stroke="black" stroke-width="0.5"/>
<path d="M22.9035 5.6004L23.2623 7.78223L27.6276 3.41599L27.2687 1.23416L22.9035 5.6004Z" fill="#FFC956"/>
<path d="M23.2621 8.01673C23.2066 8.01663 23.1529 7.99683 23.1106 7.96085C23.0683 7.92488 23.0402 7.87506 23.0312 7.82027L22.6724 5.63844C22.6663 5.60173 22.6691 5.56411 22.6805 5.52869C22.6919 5.49326 22.7115 5.46106 22.7378 5.43472L27.1031 1.06849C27.1335 1.03805 27.1718 1.01661 27.2137 1.00652C27.2556 0.99643 27.2994 0.998076 27.3404 1.01128C27.3814 1.02448 27.418 1.04873 27.4461 1.08136C27.4743 1.11399 27.4928 1.15374 27.4999 1.19625L27.8587 3.37808C27.8647 3.41479 27.862 3.45241 27.8506 3.48784C27.8392 3.52326 27.8196 3.55547 27.7933 3.5818L23.4278 7.94804C23.3838 7.99201 23.3242 8.01671 23.2621 8.01673ZM23.1543 5.68111L23.4193 7.29351L27.3768 3.33541L27.1115 1.72348L23.1543 5.68111Z" fill="black" stroke="black" stroke-width="0.5"/>
</svg>
