<svg width="24" height="24" viewBox="0 0 24 24" fill="none" xmlns="http://www.w3.org/2000/svg">
<path d="M12 2C6.48 2 2 6.48 2 12C2 17.52 6.48 22 12 22C17.52 22 22 17.52 22 12C22 6.48 17.52 2 12 2Z" fill="#020080"/>
<path d="M7.06995 18.28C7.49995 17.38 10.1199 16.5 11.9999 16.5C13.8799 16.5 16.5099 17.38 16.9299 18.28C15.5699 19.36 13.8599 20 11.9999 20C10.1399 20 8.42995 19.36 7.06995 18.28Z" fill="#FFC956"/>
<path d="M18.36 16.83C16.93 15.09 13.46 14.5 12 14.5C10.54 14.5 7.07 15.09 5.64 16.83C4.62 15.49 4 13.82 4 12C4 7.59 7.59 4 12 4C16.41 4 20 7.59 20 12C20 13.82 19.38 15.49 18.36 16.83Z" fill="#020080"/>
<path d="M12 6C10.06 6 8.5 7.56 8.5 9.5C8.5 11.44 10.06 13 12 13C13.94 13 15.5 11.44 15.5 9.5C15.5 7.56 13.94 6 12 6Z" fill="#FFC956"/>
<path d="M12 11C11.17 11 10.5 10.33 10.5 9.5C10.5 8.67 11.17 8 12 8C12.83 8 13.5 8.67 13.5 9.5C13.5 10.33 12.83 11 12 11Z" fill="#FFC956"/>
</svg>
