<svg width="50" height="50" viewBox="0 0 50 50" fill="none" xmlns="http://www.w3.org/2000/svg">
<rect width="50" height="50" rx="8" fill="#FFE3EB"/>
<path d="M12.8 22.5L11 28.5H12.5L17.8333 22.5H12.8Z" fill="#FE1D5F"/>
<path d="M12.8 21.5L11 15.5H12.5L17.8333 21.5H12.8Z" fill="#FE1D5F"/>
<path d="M36.2639 24H18.272C15.7777 24 13.3037 23.5514 10.9682 22.6756H10.9682C10.8306 22.624 10.7121 22.5317 10.6285 22.411C10.5448 22.2902 10.5 22.1469 10.5 22C10.5 21.8531 10.5448 21.7098 10.6285 21.589C10.7121 21.4683 10.8306 21.376 10.9682 21.3244H10.9682C13.3037 20.4486 15.7777 20 18.272 20H36.2639C37.0768 20 37.8785 20.1893 38.6056 20.5528C38.8743 20.6872 39.1004 20.8937 39.2584 21.1493C39.4163 21.405 39.5 21.6995 39.5 22C39.5 22.3005 39.4163 22.595 39.2583 22.8506C39.1004 23.1063 38.8743 23.3128 38.6056 23.4472C37.8785 23.8107 37.0768 24 36.2639 24Z" fill="white"/>
<path d="M29 20V15.5L26.5 10.5H29L35 20H29Z" fill="#FE1D5F"/>
<path d="M29 24V28.5L26.5 33.5H29L35 24H29Z" fill="#FE1D5F"/>
<path d="M17 36.5C17 36.5 16 35.5093 16 35.5V34H14V35.5L13 36.5V37.5C13 38.0305 13.2107 38.5392 13.5858 38.9142C13.9609 39.2893 14.4696 39.5 15 39.5H15C15.5304 39.5 16.0391 39.2893 16.4142 38.9142C16.7893 38.5392 17 38.0305 17 37.5001L17 36.5Z" fill="white"/>
<path d="M23 33.5C23 33.5 22 32.5093 22 32.5V31H20V32.5L19 33.5V34.5C19 35.0305 19.2107 35.5392 19.5858 35.9142C19.9609 36.2893 20.4696 36.5 21 36.5H21C21.5304 36.5 22.0391 36.2893 22.4142 35.9142C22.7893 35.5392 23 35.0305 23 34.5001L23 33.5Z" fill="white"/>
<path d="M10.7926 23.1437C11.1803 23.2891 11.571 23.4225 11.9648 23.5438L10.5211 28.3563C10.4987 28.431 10.4941 28.5098 10.5076 28.5866C10.5211 28.6634 10.5523 28.7359 10.5988 28.7985C10.6454 28.861 10.7059 28.9118 10.7755 28.9468C10.8452 28.9818 10.9221 29 11 29H12.5C12.5706 29 12.6404 28.985 12.7048 28.9561C12.7692 28.9272 12.8268 28.885 12.8737 28.8322L16.7717 24.4469C17.2697 24.4819 17.7698 24.4996 18.272 24.5H28.5V25.5H27.5V26.5H28.5V28H27.5V29H28.191L26.0528 33.2764C26.0147 33.3526 25.9967 33.4373 26.0005 33.5225C26.0043 33.6076 26.0299 33.6904 26.0747 33.7629C26.1195 33.8354 26.1821 33.8952 26.2565 33.9367C26.331 33.9782 26.4148 34 26.5 34H29C29.0844 34 29.1674 33.9786 29.2414 33.9379C29.3153 33.8972 29.3777 33.8384 29.4228 33.767L35.2756 24.5H36.2639C37.1543 24.4989 38.0323 24.2916 38.8292 23.8944C39.181 23.7185 39.4769 23.4481 39.6837 23.1135C39.8905 22.7789 40 22.3933 40 22C40 21.6067 39.8905 21.2211 39.6837 20.8865C39.4769 20.5519 39.181 20.2815 38.8292 20.1056C38.0323 19.7084 37.1543 19.5011 36.2639 19.5H35.2756L29.4228 10.233C29.3777 10.1616 29.3153 10.1028 29.2414 10.0621C29.1674 10.0214 29.0844 10 29 10H26.5C26.4148 10 26.331 10.0218 26.2565 10.0633C26.1821 10.1048 26.1195 10.1646 26.0747 10.2371C26.0299 10.3096 26.0043 10.3924 26.0005 10.4775C25.9967 10.5627 26.0147 10.6474 26.0528 10.7236L28.191 15H27.5V16H28.5V17.5H27.5V18.5H28.5V19.5H18.272C17.7699 19.5 17.2698 19.5177 16.7717 19.5531L12.8737 15.1678C12.8268 15.115 12.7692 15.0728 12.7048 15.0439C12.6404 15.015 12.5706 15 12.5 15H11C10.9221 15 10.8452 15.0182 10.7755 15.0532C10.7059 15.0882 10.6454 15.139 10.5988 15.2015C10.5523 15.2641 10.5211 15.3366 10.5076 15.4134C10.4941 15.4902 10.4987 15.569 10.5211 15.6437L11.9648 20.4561C11.5713 20.5783 11.1806 20.7117 10.7926 20.8563C10.5598 20.9436 10.3591 21.0999 10.2175 21.3042C10.0759 21.5086 10 21.7514 10 22C10 22.2487 10.0759 22.4914 10.2175 22.6958C10.3592 22.9001 10.5598 23.0564 10.7926 23.1437ZM12.2755 28H11.672L12.9266 23.818C13.7871 24.0416 14.6609 24.2107 15.5427 24.3244L12.2755 28ZM28.7244 33H27.309L29.4472 28.7236C29.4819 28.6542 29.5 28.5776 29.5 28.5V24.5H34.0928L28.7244 33ZM29.4472 15.2764L27.309 11H28.7244L34.0928 19.5H29.5V15.5C29.5 15.4224 29.4819 15.3458 29.4472 15.2764ZM36.2639 20.5C36.9991 20.5009 37.724 20.672 38.382 21C38.5677 21.0929 38.7239 21.2356 38.833 21.4122C38.9422 21.5888 39 21.7924 39 22C39 22.2076 38.9422 22.4112 38.833 22.5878C38.7239 22.7644 38.5677 22.9071 38.382 23C37.724 23.328 36.9991 23.4991 36.2639 23.5H18.272C16.1347 23.5013 14.0108 23.1638 11.9792 22.5H15V21.5H11.9792C14.0108 20.8362 16.1348 20.4987 18.272 20.5H36.2639ZM11.672 16H12.2755L15.5427 19.6756C14.6609 19.7893 13.7871 19.9584 12.9266 20.182L11.672 16Z" fill="black"/>
<path d="M37 21H36V23H37V21Z" fill="black"/>
<path d="M17.5 32.382V32H16.5V32.382C16.5008 32.6068 16.4432 32.8279 16.333 33.0239C16.2228 33.2198 16.0637 33.3839 15.8712 33.5H15.5V31.5H14.5V33.5H14.1288C13.9363 33.3839 13.7772 33.2198 13.667 33.0239C13.5568 32.8279 13.4993 32.6068 13.5 32.382V32H12.5V32.382C12.4987 32.7566 12.5891 33.1259 12.7635 33.4575C12.9378 33.7892 13.1907 34.0731 13.5 34.2844V35.2929L12.6465 36.1465C12.6 36.1929 12.5632 36.248 12.5381 36.3087C12.5129 36.3693 12.5 36.4343 12.5 36.5V37.5C12.5 38.1631 12.7634 38.799 13.2322 39.2678C13.7011 39.7367 14.3369 40.0001 15 40.0001C15.663 40.0001 16.2989 39.7367 16.7678 39.2679C17.2366 38.799 17.5 38.1631 17.5 37.5001V36.5C17.5 36.4339 17.4869 36.3685 17.4615 36.3076C17.4361 36.2466 17.3988 36.1913 17.3519 36.1448C17.0334 35.8293 16.6843 35.4821 16.5 35.2968V34.2844C16.8094 34.0731 17.0622 33.7892 17.2366 33.4575C17.4109 33.1259 17.5013 32.7566 17.5 32.382ZM16.5 37.5001C16.5 37.8979 16.342 38.2794 16.0607 38.5607C15.7793 38.842 15.3978 39.0001 15 39.0001C14.6022 39.0001 14.2206 38.842 13.9393 38.5607C13.658 38.2794 13.5 37.8979 13.5 37.5V36.7071L14.3536 35.8535C14.4 35.8071 14.4368 35.752 14.462 35.6913C14.4871 35.6307 14.5 35.5657 14.5 35.5V34.5H15.5V35.5C15.5 35.7096 15.5822 35.7922 15.8019 36.0129C15.8961 36.1075 16.0217 36.2328 16.1473 36.3579C16.2763 36.4862 16.4053 36.6143 16.5 36.7083V37.5001Z" fill="black"/>
<path d="M23.5 29.382V29H22.5V29.382C22.5007 29.6068 22.4432 29.8279 22.333 30.0239C22.2228 30.2198 22.0637 30.3839 21.8712 30.5H21.5V28.5H20.5V30.5H20.1288C19.9363 30.3839 19.7772 30.2198 19.667 30.0239C19.5568 29.8279 19.4993 29.6068 19.5 29.382V29H18.5V29.382C18.4987 29.7566 18.5891 30.1259 18.7634 30.4575C18.9378 30.7892 19.1906 31.0731 19.5 31.2844V32.2929L18.6465 33.1465C18.6 33.1929 18.5632 33.248 18.5381 33.3087C18.5129 33.3693 18.5 33.4343 18.5 33.5V34.5C18.5 35.1631 18.7634 35.799 19.2322 36.2678C19.701 36.7367 20.3369 37.0001 21 37.0001C21.663 37.0001 22.2989 36.7367 22.7677 36.2679C23.2366 35.799 23.5 35.1631 23.5 34.5001V33.5C23.5 33.4339 23.4869 33.3685 23.4615 33.3076C23.4361 33.2466 23.3988 33.1913 23.3519 33.1448C23.0334 32.8293 22.6843 32.4821 22.5 32.2968V31.2844C22.8093 31.0731 23.0622 30.7892 23.2366 30.4575C23.4109 30.1259 23.5013 29.7566 23.5 29.382ZM22.5 34.5001C22.5 34.6971 22.4612 34.8921 22.3858 35.0741C22.3104 35.2561 22.1999 35.4215 22.0606 35.5607C21.9213 35.7 21.756 35.8105 21.574 35.8859C21.392 35.9613 21.1969 36.0001 21 36.0001C20.803 36.0001 20.6079 35.9613 20.4259 35.8859C20.244 35.8105 20.0786 35.7 19.9393 35.5607C19.8 35.4214 19.6895 35.256 19.6142 35.0741C19.5388 34.8921 19.5 34.697 19.5 34.5V33.7071L20.3535 32.8535C20.4 32.8071 20.4368 32.752 20.4619 32.6913C20.4871 32.6307 20.5 32.5657 20.5 32.5V31.5H21.5V32.5C21.5 32.7096 21.5822 32.7922 21.8019 33.0129C21.8961 33.1075 22.0217 33.2328 22.1473 33.3579C22.2762 33.4862 22.4052 33.6143 22.5 33.7083V34.5001Z" fill="black"/>
<path d="M15.5 29.5H14.5V30.5H15.5V29.5Z" fill="black"/>
<path d="M21.5 26.5H20.5V27.5H21.5V26.5Z" fill="black"/>
</svg>
