<svg width="30" height="30" viewBox="0 0 30 30" fill="none" xmlns="http://www.w3.org/2000/svg">
<path d="M29.4643 20.6897C29.4642 22.7473 28.6176 24.7207 27.1106 26.1757C25.6036 27.6307 23.5598 28.4482 21.4286 28.4483V26.3793C22.9915 26.3793 24.4903 25.7799 25.5955 24.7129C26.7006 23.6458 27.3214 22.1986 27.3214 20.6897C27.3214 19.1807 26.7006 17.7335 25.5955 16.6665C24.4903 15.5994 22.9915 15 21.4286 15V12.931C23.5598 12.9311 25.6036 13.7486 27.1106 15.2036C28.6176 16.6586 29.4642 18.632 29.4643 20.6897Z" fill="white"/>
<path d="M15.5357 20.6463C15.5298 21.3971 15.6778 22.1417 15.9713 22.837C16.2648 23.5323 16.698 24.1646 17.2457 24.6976C17.7935 25.2305 18.4452 25.6535 19.1631 25.9421C19.881 26.2307 20.6509 26.3793 21.4286 26.3793V29.4828C19.6907 29.4827 17.9891 29.0025 16.5247 28.0989C15.0603 27.1954 13.8942 25.9062 13.1641 24.3835C12.434 22.8608 12.1704 21.1682 12.4043 19.5055C12.6383 17.8428 13.36 16.2795 14.4844 15H14.4643L15.8685 9.57665C15.9265 9.35285 16.0603 9.15416 16.2486 9.01219C16.4369 8.87022 16.669 8.7931 16.9079 8.7931H25.9492C26.1881 8.7931 26.4202 8.87022 26.6085 9.01219C26.7969 9.15416 26.9307 9.35285 26.9886 9.57665L28.3929 15H21.5026C18.2533 15 15.5601 17.5092 15.5357 20.6463Z" fill="#FFC956"/>
<path d="M19.2857 12.931C19.8774 12.931 20.3571 12.4679 20.3571 11.8966C20.3571 11.3252 19.8774 10.8621 19.2857 10.8621C18.694 10.8621 18.2143 11.3252 18.2143 11.8966C18.2143 12.4679 18.694 12.931 19.2857 12.931Z" fill="#E9EEF2"/>
<path d="M23.5714 12.931C24.1632 12.931 24.6429 12.4679 24.6429 11.8966C24.6429 11.3252 24.1632 10.8621 23.5714 10.8621C22.9797 10.8621 22.5 11.3252 22.5 11.8966C22.5 12.4679 22.9797 12.931 23.5714 12.931Z" fill="#E9EEF2"/>
<path d="M17.6786 20.6897C17.6785 22.7473 16.8318 24.7207 15.3249 26.1757C13.8179 27.6307 11.774 28.4482 9.64286 28.4483V26.3793C11.2057 26.3793 12.7046 25.7799 13.8097 24.7129C14.9149 23.6458 15.5357 22.1986 15.5357 20.6897C15.5357 19.1807 14.9149 17.7335 13.8097 16.6665C12.7046 15.5994 11.2057 15 9.64286 15V12.931C11.774 12.9311 13.8179 13.7486 15.3249 15.2036C16.8318 16.6586 17.6785 18.632 17.6786 20.6897Z" fill="white"/>
<path d="M3.75 20.6463C3.74408 21.3971 3.89213 22.1417 4.18562 22.837C4.47911 23.5323 4.91224 24.1646 5.46003 24.6976C6.00783 25.2305 6.65945 25.6535 7.37735 25.9421C8.09524 26.2307 8.8652 26.3793 9.64286 26.3793V29.4828C7.90497 29.4827 6.2034 29.0025 4.739 28.0989C3.2746 27.1954 2.10852 25.9062 1.37841 24.3835C0.648311 22.8608 0.384666 21.1682 0.618604 19.5055C0.852541 17.8428 1.57429 16.2795 2.69866 15H2.67857L4.08281 9.57665C4.14077 9.35285 4.27455 9.15416 4.46288 9.01219C4.65121 8.87022 4.88329 8.7931 5.12223 8.7931H14.1635C14.4024 8.7931 14.6345 8.87022 14.8228 9.01219C15.0112 9.15416 15.1449 9.35285 15.2029 9.57665L16.6071 15H9.71652C6.46761 15 3.77437 17.5092 3.75 20.6463Z" fill="#FFC956"/>
<path d="M7.5 12.931C8.09174 12.931 8.57143 12.4679 8.57143 11.8966C8.57143 11.3252 8.09174 10.8621 7.5 10.8621C6.90827 10.8621 6.42857 11.3252 6.42857 11.8966C6.42857 12.4679 6.90827 12.931 7.5 12.931Z" fill="#E9EEF2"/>
<path d="M11.7857 12.931C12.3774 12.931 12.8571 12.4679 12.8571 11.8966C12.8571 11.3252 12.3774 10.8621 11.7857 10.8621C11.194 10.8621 10.7143 11.3252 10.7143 11.8966C10.7143 12.4679 11.194 12.931 11.7857 12.931Z" fill="#E9EEF2"/>
<path d="M12.3214 6.72414H6.96429L6.42857 8.7931H12.8571L12.3214 6.72414Z" fill="white"/>
<path d="M24.1071 6.72414H18.75L18.2143 8.7931H24.6429L24.1071 6.72414Z" fill="white"/>
<path d="M8.57143 4.65517H10.7143V6.72413H8.57143V4.65517Z" fill="#FFC956"/>
<path d="M20.3571 4.65517H22.5V6.72413H20.3571V4.65517Z" fill="#FFC956"/>
<path d="M30 20.6897C29.9971 18.8094 29.3332 16.9857 28.1169 15.5172H28.3929C28.4743 15.5172 28.5546 15.4993 28.6278 15.4649C28.7009 15.4304 28.765 15.3803 28.8151 15.3183C28.8652 15.2564 28.9 15.1842 28.9169 15.1073C28.9338 15.0304 28.9323 14.9508 28.9126 14.8746L27.5083 9.45129C27.4218 9.11538 27.2213 8.81712 26.9387 8.60408C26.6561 8.39104 26.3078 8.27549 25.9493 8.27586H25.0611L24.6269 6.59871C24.5979 6.4868 24.531 6.38745 24.4368 6.31646C24.3427 6.24546 24.2266 6.2069 24.1071 6.2069H23.0357V4.77601C23.2043 4.63076 23.3391 4.45274 23.4315 4.25364C23.5238 4.05453 23.5715 3.83884 23.5714 3.62069V1.55172C23.5709 1.14033 23.4014 0.74592 23.1002 0.455019C22.7989 0.164118 22.3904 0.000479492 21.9643 3.67861e-07H20.8929C20.4972 -0.00026305 20.1156 0.140953 19.8214 0.396401C19.5273 0.140953 19.1456 -0.00026305 18.75 3.67861e-07H16.6071C16.2115 -0.00026305 15.8298 0.140953 15.5357 0.396401C15.2416 0.140953 14.8599 -0.00026305 14.4643 3.67861e-07H12.3214C11.9258 -0.00026305 11.5441 0.140953 11.25 0.396401C10.9559 0.140953 10.5742 -0.00026305 10.1786 3.67861e-07H9.10714C8.68105 0.000479492 8.27256 0.164118 7.97127 0.455019C7.66998 0.74592 7.5005 1.14033 7.5 1.55172V3.62069C7.49994 3.83884 7.54764 4.05453 7.63996 4.25364C7.73229 4.45274 7.86715 4.63076 8.03571 4.77601V6.2069H6.96429C6.84481 6.2069 6.72877 6.24546 6.6346 6.31646C6.54043 6.38745 6.47355 6.4868 6.44458 6.59871L6.01031 8.27586H5.12223C4.76372 8.27548 4.4154 8.39102 4.13282 8.60405C3.85024 8.81707 3.64967 9.11532 3.5631 9.45123L2.18002 14.7931C0.770501 16.4569 0.000298218 18.5402 0 20.6897C0 25.8233 4.32589 30 9.64286 30C9.78494 30 9.9212 29.9455 10.0217 29.8485C10.1221 29.7515 10.1786 29.6199 10.1786 29.4828V28.9489C11.814 28.8516 13.3856 28.3011 14.7054 27.3636C16.5075 29.0509 18.9182 29.9962 21.4286 30C21.5707 30 21.7069 29.9455 21.8074 29.8485C21.9078 29.7515 21.9643 29.6199 21.9643 29.4828V28.9489C26.442 28.681 30 25.0792 30 20.6897ZM26.4689 9.70215L27.7067 14.4828H21.5022C21.4882 14.4828 21.4735 14.4828 21.459 14.4834C19.7534 14.4896 18.1186 15.143 16.9075 16.3027C16.7313 16.0303 16.5389 15.7681 16.3312 15.5172H16.6071C16.6886 15.5172 16.7689 15.4993 16.8421 15.4649C16.9152 15.4304 16.9793 15.3803 17.0294 15.3183C17.0795 15.2564 17.1143 15.1842 17.1312 15.1073C17.1481 15.0304 17.1466 14.9508 17.1269 14.8746L16.0879 10.8621L16.3882 9.70215C16.4171 9.5902 16.4839 9.49079 16.5781 9.41978C16.6722 9.34877 16.7883 9.31024 16.9078 9.31034H25.9493C26.0688 9.31024 26.1849 9.34877 26.2791 9.41978C26.3732 9.49079 26.4401 9.5902 26.4689 9.70215ZM13.2754 8.27586L12.8411 6.59871C12.8122 6.4868 12.7453 6.38745 12.6511 6.31646C12.5569 6.24546 12.4409 6.2069 12.3214 6.2069H11.25V4.77601C11.481 4.57643 11.6473 4.31669 11.7291 4.02802C11.9175 4.10064 12.1185 4.13794 12.3214 4.13793H14.4643C14.8599 4.13819 15.2416 3.99698 15.5357 3.74153C15.8298 3.99698 16.2115 4.13819 16.6071 4.13793H18.75C18.9529 4.13794 19.1539 4.10064 19.3424 4.02802C19.4241 4.31669 19.5905 4.57643 19.8214 4.77601V6.2069H18.75C18.6305 6.2069 18.5145 6.24546 18.4203 6.31646C18.3261 6.38745 18.2593 6.4868 18.2303 6.59871L17.796 8.27586H16.9078C16.632 8.27572 16.3608 8.34428 16.1204 8.4749C15.8801 8.60552 15.6787 8.7938 15.5357 9.02153C15.3927 8.79379 15.1913 8.60551 14.9509 8.47488C14.7105 8.34426 14.4393 8.27571 14.1635 8.27586H13.2754ZM23.9567 8.27586H18.9004L19.1683 7.24138H23.6889L23.9567 8.27586ZM21.9643 6.2069H20.8929V5.17241H21.9643V6.2069ZM20.8929 1.03448H21.9643C22.1063 1.03464 22.2425 1.08918 22.3429 1.18615C22.4433 1.28312 22.4998 1.41459 22.5 1.55172V3.62069C22.4998 3.75782 22.4433 3.8893 22.3429 3.98626C22.2425 4.08323 22.1063 4.13778 21.9643 4.13793H20.8929C20.7508 4.13778 20.6147 4.08323 20.5142 3.98626C20.4138 3.8893 20.3573 3.75782 20.3571 3.62069V1.55172C20.3573 1.41459 20.4138 1.28312 20.5142 1.18615C20.6147 1.08918 20.7508 1.03464 20.8929 1.03448ZM16.6071 1.03448H18.75C18.892 1.03464 19.0282 1.08918 19.1286 1.18615C19.2291 1.28312 19.2856 1.41459 19.2857 1.55172V2.58621C19.2856 2.72334 19.2291 2.85481 19.1286 2.95178C19.0282 3.04875 18.892 3.10329 18.75 3.10345H16.6071C16.4651 3.10329 16.3289 3.04875 16.2285 2.95178C16.1281 2.85481 16.0716 2.72334 16.0714 2.58621V1.55172C16.0716 1.41459 16.1281 1.28312 16.2285 1.18615C16.3289 1.08918 16.4651 1.03464 16.6071 1.03448ZM12.3214 1.03448H14.4643C14.6063 1.03464 14.7425 1.08918 14.8429 1.18615C14.9433 1.28312 14.9998 1.41459 15 1.55172V2.58621C14.9998 2.72334 14.9433 2.85481 14.8429 2.95178C14.7425 3.04875 14.6063 3.10329 14.4643 3.10345H12.3214C12.1794 3.10329 12.0432 3.04875 11.9428 2.95178C11.8424 2.85481 11.7859 2.72334 11.7857 2.58621V1.55172C11.7859 1.41459 11.8424 1.28312 11.9428 1.18615C12.0432 1.08918 12.1794 1.03464 12.3214 1.03448ZM8.57143 1.55172C8.57159 1.41459 8.62808 1.28312 8.72851 1.18615C8.82894 1.08918 8.96511 1.03464 9.10714 1.03448H10.1786C10.3206 1.03464 10.4568 1.08918 10.5572 1.18615C10.6576 1.28312 10.7141 1.41459 10.7143 1.55172V3.62069C10.7141 3.75782 10.6576 3.8893 10.5572 3.98626C10.4568 4.08323 10.3206 4.13778 10.1786 4.13793H9.10714C8.96511 4.13778 8.82894 4.08323 8.72851 3.98626C8.62808 3.8893 8.57159 3.75782 8.57143 3.62069V1.55172ZM9.10714 5.17241H10.1786V6.2069H9.10714V5.17241ZM7.38254 7.24138H11.9032L12.171 8.27586H7.11469L7.38254 7.24138ZM9.10714 28.9495C4.62958 28.6815 1.07143 25.0792 1.07143 20.6897C1.07155 18.7283 1.79297 16.8306 3.10714 15.3349C3.19245 15.2379 3.23775 15.114 3.23438 14.9868L4.60272 9.70215C4.63158 9.59018 4.69843 9.49077 4.79263 9.41975C4.88682 9.34874 5.00293 9.31022 5.12243 9.31034H14.1635C14.283 9.31022 14.3991 9.34874 14.4933 9.41975C14.5875 9.49077 14.6543 9.59018 14.6832 9.70215L15.921 14.4828H9.71685C9.7044 14.4828 9.69208 14.4831 9.67962 14.4832C9.66716 14.4833 9.65518 14.4828 9.64286 14.4828V14.4837C6.11732 14.5217 3.24047 17.2696 3.21429 20.6425C3.20218 22.2072 3.80252 23.7187 4.89516 24.8743C5.9878 26.03 7.49214 26.7447 9.10714 26.8753V28.9495ZM13.6344 24.1347C13.1223 23.0535 12.8573 21.8785 12.8573 20.6895C12.8573 19.5006 13.1223 18.3256 13.6344 17.2443C14.5138 18.191 15.0001 19.4179 15.0001 20.6895C15.0001 21.9612 14.5138 23.1881 13.6344 24.1347ZM5.84062 24.3333C5.34093 23.85 4.94604 23.2753 4.67906 22.6429C4.41208 22.0105 4.27836 21.3331 4.28571 20.6502C4.30748 17.8318 6.72368 15.5373 9.67949 15.5181C10.8051 15.5244 11.8997 15.8748 12.8063 16.5189C12.135 17.8137 11.7854 19.2416 11.7854 20.6896C11.7854 22.1375 12.135 23.5655 12.8063 24.8602C11.7725 25.5931 10.5005 25.943 9.22186 25.8463C7.94324 25.7496 6.74314 25.2127 5.84016 24.3333H5.84062ZM10.1786 26.8748C11.5094 26.7677 12.7726 26.263 13.7926 25.4307C14.8126 24.5985 15.5388 23.4802 15.8702 22.2311C16.2016 20.9821 16.1218 19.6644 15.6418 18.4611C15.1618 17.2579 14.3055 16.2289 13.192 15.5172H14.8898C15.9218 16.4928 16.6402 17.7354 16.9584 19.0956C17.2766 20.4559 17.1812 21.8759 16.6836 23.185C16.186 24.4942 15.3074 25.6367 14.1534 26.4753C12.9995 27.3139 11.6192 27.8129 10.1786 27.9123V26.8748ZM20.8929 28.9492C18.8888 28.8247 16.9928 28.0277 15.533 26.6961C16.0552 26.2186 16.5135 25.6799 16.8973 25.0927C17.968 26.1256 19.3842 26.7575 20.8929 26.8754V28.9492ZM17.4345 24.1366C17.9473 23.0584 18.2132 21.8861 18.2143 20.6997C18.2153 19.5132 17.9514 18.3405 17.4406 17.2615C17.9485 16.7147 18.5697 16.277 19.2639 15.9766C19.9581 15.6763 20.7099 15.52 21.4706 15.5179C22.3626 15.5245 23.2387 15.7461 24.0195 16.1625C24.8003 16.5789 25.461 17.1769 25.9418 17.9024C26.4225 18.6278 26.7081 19.4576 26.7725 20.3166C26.8369 21.1756 26.6782 22.0365 26.3107 22.8212C25.9432 23.6059 25.3785 24.2896 24.668 24.8103C23.9575 25.3309 23.1236 25.6721 22.242 25.8027C21.3603 25.9333 20.4588 25.8494 19.6193 25.5584C18.7798 25.2674 18.0288 24.7786 17.4345 24.1364V24.1366ZM21.9643 27.9123V26.8748C23.2939 26.7661 24.5557 26.2607 25.5746 25.4287C26.5935 24.5967 27.3191 23.4793 27.6509 22.2314C27.9828 20.9834 27.9044 19.6667 27.4266 18.4637C26.9488 17.2607 26.0953 16.231 24.9844 15.5172H26.6755C27.7076 16.4928 28.4259 17.7354 28.7441 19.0956C29.0623 20.4559 28.9669 21.8759 28.4693 23.185C27.9717 24.4942 27.0931 25.6367 25.9392 26.4753C24.7852 27.3139 23.4049 27.8129 21.9643 27.9123Z" fill="black"/>
<path d="M19.2857 13.4483C19.6036 13.4483 19.9143 13.3573 20.1786 13.1868C20.4429 13.0163 20.6489 12.7739 20.7705 12.4904C20.8922 12.2068 20.924 11.8948 20.862 11.5938C20.8 11.2928 20.6469 11.0163 20.4221 10.7993C20.1974 10.5823 19.911 10.4345 19.5993 10.3746C19.2875 10.3148 18.9644 10.3455 18.6707 10.4629C18.377 10.5804 18.126 10.7793 17.9494 11.0345C17.7728 11.2896 17.6786 11.5896 17.6786 11.8966C17.6791 12.308 17.8485 12.7024 18.1498 12.9933C18.4511 13.2842 18.8596 13.4478 19.2857 13.4483ZM19.2857 11.3793C19.3917 11.3793 19.4952 11.4096 19.5833 11.4665C19.6714 11.5233 19.7401 11.6041 19.7807 11.6986C19.8212 11.7931 19.8318 11.8971 19.8111 11.9975C19.7905 12.0978 19.7394 12.19 19.6645 12.2623C19.5896 12.3346 19.4941 12.3839 19.3902 12.4039C19.2863 12.4238 19.1786 12.4136 19.0807 12.3744C18.9828 12.3353 18.8992 12.269 18.8403 12.1839C18.7814 12.0989 18.75 11.9989 18.75 11.8966C18.7502 11.7594 18.8067 11.6279 18.9071 11.531C19.0075 11.434 19.1437 11.3795 19.2857 11.3793Z" fill="black"/>
<path d="M23.5714 13.4483C23.8893 13.4483 24.2 13.3573 24.4643 13.1868C24.7286 13.0163 24.9346 12.7739 25.0562 12.4904C25.1779 12.2068 25.2097 11.8948 25.1477 11.5938C25.0857 11.2928 24.9326 11.0163 24.7079 10.7993C24.4831 10.5823 24.1967 10.4345 23.885 10.3746C23.5732 10.3148 23.2501 10.3455 22.9564 10.4629C22.6627 10.5804 22.4117 10.7793 22.2351 11.0345C22.0585 11.2896 21.9643 11.5896 21.9643 11.8966C21.9648 12.308 22.1342 12.7024 22.4355 12.9933C22.7368 13.2842 23.1453 13.4478 23.5714 13.4483ZM23.5714 11.3793C23.6774 11.3793 23.781 11.4096 23.8691 11.4665C23.9572 11.5233 24.0258 11.6041 24.0664 11.6986C24.1069 11.7931 24.1175 11.8971 24.0969 11.9975C24.0762 12.0978 24.0252 12.19 23.9502 12.2623C23.8753 12.3346 23.7799 12.3839 23.6759 12.4039C23.572 12.4238 23.4643 12.4136 23.3664 12.3744C23.2685 12.3353 23.1849 12.269 23.126 12.1839C23.0671 12.0989 23.0357 11.9989 23.0357 11.8966C23.0359 11.7594 23.0924 11.6279 23.1928 11.531C23.2932 11.434 23.4294 11.3795 23.5714 11.3793Z" fill="black"/>
<path d="M7.5 13.4483C7.81787 13.4483 8.12859 13.3573 8.39288 13.1868C8.65718 13.0163 8.86317 12.7739 8.98481 12.4904C9.10645 12.2068 9.13828 11.8948 9.07627 11.5938C9.01425 11.2928 8.86119 11.0163 8.63643 10.7993C8.41166 10.5823 8.1253 10.4345 7.81354 10.3746C7.50179 10.3148 7.17864 10.3455 6.88498 10.4629C6.59131 10.5804 6.34031 10.7793 6.16371 11.0345C5.98712 11.2896 5.89286 11.5896 5.89286 11.8966C5.89334 12.308 6.06282 12.7024 6.36411 12.9933C6.6654 13.2842 7.07391 13.4478 7.5 13.4483ZM7.5 11.3793C7.60596 11.3793 7.70953 11.4096 7.79763 11.4665C7.88573 11.5233 7.95439 11.6041 7.99494 11.6986C8.03549 11.7931 8.04609 11.8971 8.02542 11.9975C8.00475 12.0978 7.95373 12.19 7.87881 12.2623C7.80389 12.3346 7.70843 12.3839 7.60452 12.4039C7.5006 12.4238 7.39288 12.4136 7.29499 12.3744C7.19711 12.3353 7.11344 12.269 7.05457 12.1839C6.99571 12.0989 6.96429 11.9989 6.96429 11.8966C6.96445 11.7594 7.02094 11.6279 7.12137 11.531C7.2218 11.434 7.35797 11.3795 7.5 11.3793Z" fill="black"/>
<path d="M11.7857 13.4483C12.1036 13.4483 12.4143 13.3573 12.6786 13.1868C12.9429 13.0163 13.1489 12.7739 13.2705 12.4904C13.3922 12.2068 13.424 11.8948 13.362 11.5938C13.3 11.2928 13.1469 11.0163 12.9221 10.7993C12.6974 10.5823 12.411 10.4345 12.0993 10.3746C11.7875 10.3148 11.4644 10.3455 11.1707 10.4629C10.877 10.5804 10.626 10.7793 10.4494 11.0345C10.2728 11.2896 10.1786 11.5896 10.1786 11.8966C10.1791 12.308 10.3485 12.7024 10.6498 12.9933C10.9511 13.2842 11.3596 13.4478 11.7857 13.4483ZM11.7857 11.3793C11.8917 11.3793 11.9952 11.4096 12.0833 11.4665C12.1714 11.5233 12.2401 11.6041 12.2807 11.6986C12.3212 11.7931 12.3318 11.8971 12.3111 11.9975C12.2905 12.0978 12.2394 12.19 12.1645 12.2623C12.0896 12.3346 11.9941 12.3839 11.8902 12.4039C11.7863 12.4238 11.6786 12.4136 11.5807 12.3744C11.4828 12.3353 11.3992 12.269 11.3403 12.1839C11.2814 12.0989 11.25 11.9989 11.25 11.8966C11.2502 11.7594 11.3067 11.6279 11.4071 11.531C11.5075 11.434 11.6437 11.3795 11.7857 11.3793Z" fill="black"/>
</svg>
