<svg width="24" height="24" viewBox="0 0 24 24" fill="none" xmlns="http://www.w3.org/2000/svg">
<g clip-path="url(#clip0)">
<path d="M15.2495 18.0002C15.2495 19.6541 13.9035 21.0001 12.2495 21.0001H9.49976C9.08467 21.0001 8.71279 20.7441 8.56576 20.3561L1.31593 1.35677C1.19801 1.04971 1.23994 0.704751 1.42597 0.433763C1.61292 0.162776 1.92089 0.000732422 2.24992 0.000732422H12.2495C13.9035 0.000732422 15.2495 1.3467 15.2495 3.00064V18.0002Z" fill="#FFC956" stroke="#020080" stroke-width="0.5"/>
<path d="M9.24967 4.00057V22C9.24967 22.6901 8.68975 23.25 7.99984 23.25C7.85976 23.25 7.72976 23.2301 7.59976 23.19L1.59995 21.1902C1.10997 21.0201 0.75 20.55 0.75 20.0002V2.00075C0.75 1.31065 1.30992 0.750732 2.00002 0.750732C2.13991 0.750732 2.26991 0.77069 2.39991 0.810789L8.39972 2.8106C8.8897 2.9807 9.24967 3.45072 9.24967 4.00057Z" fill="#FFC956" stroke="#020080" stroke-width="0.5"/>
<path d="M7.36281 23.9009L1.35494 21.898C0.543989 21.618 0 20.855 0 20.0001V2.0007C0 0.683667 1.28097 -0.31734 2.637 0.0997617L8.64469 2.10269C9.45564 2.38265 9.99963 3.14563 9.99963 4.00052V22C9.99963 23.1029 9.1028 24 7.99981 24C7.78577 24 7.58271 23.969 7.36281 23.9009ZM1.49995 2.0007V20.0001C1.49995 20.2131 1.64204 20.411 1.83686 20.4791L7.81982 22.474C8.14483 22.572 8.49967 22.3391 8.49967 22V4.00052C8.49967 3.78757 8.35777 3.58964 8.16277 3.52153L2.17889 1.52776C2.11901 1.50871 2.06298 1.50066 2 1.50066C1.72388 1.50066 1.49995 1.72459 1.49995 2.0007Z" fill="#FFC956" stroke="#020080" stroke-width="0.5"/>
<path d="M23.2493 11.2504H13.7495C13.3355 11.2504 12.9995 10.9145 12.9995 10.5005C12.9995 10.0865 13.3355 9.75049 13.7495 9.75049H23.2493C23.6632 9.75049 23.9992 10.0865 23.9992 10.5005C23.9992 10.9145 23.6632 11.2504 23.2493 11.2504Z" fill="#020080" stroke="#020080" stroke-width="0.5"/>
<path d="M19.4994 15.0003C19.3074 15.0003 19.1155 14.9272 18.9694 14.7804C18.6764 14.4872 18.6764 14.0123 18.9694 13.7193L22.1894 10.4995L18.9694 7.27952C18.6764 6.98656 18.6764 6.5116 18.9694 6.21864C19.2625 5.92549 19.7375 5.92549 20.0304 6.21864L23.7803 9.96852C24.0733 10.2615 24.0733 10.7364 23.7803 11.0294L20.0304 14.7793C19.8834 14.9272 19.6915 15.0003 19.4994 15.0003Z" fill="#020080" stroke="#020080" stroke-width="0.5"/>
<path d="M7.99981 24C7.78577 24 7.58271 23.97 7.37983 23.907L1.3619 21.902C0.543074 21.616 0 20.853 0 20.0002V2.00073C0 0.897738 0.897006 0.000732422 2 0.000732422C2.21386 0.000732422 2.41692 0.0307608 2.61997 0.0937471L8.63773 2.09869C9.45673 2.38469 9.99963 3.14767 9.99963 4.00055V22C9.99963 23.103 9.1028 24 7.99981 24ZM2 1.50069C1.72498 1.50069 1.49995 1.72572 1.49995 2.00073V20.0002C1.49995 20.2131 1.64295 20.411 1.84693 20.4821L7.83667 22.4781C7.8797 22.492 7.93573 22.5 7.99981 22.5C8.27483 22.5 8.49967 22.275 8.49967 22V4.00055C8.49967 3.7876 8.35667 3.58967 8.1527 3.51863L2.16296 1.52266C2.11993 1.50874 2.0639 1.50069 2 1.50069Z" fill="#020080"/>
<path d="M15.2494 8.00054C14.8355 8.00054 14.4995 7.66456 14.4995 7.25057V2.75071C14.4995 2.0617 13.9386 1.50069 13.2496 1.50069H1.99998C1.58599 1.50069 1.25 1.1647 1.25 0.750709C1.25 0.33672 1.58599 0.000732422 1.99998 0.000732422H13.2496C14.7666 0.000732422 15.9994 1.23373 15.9994 2.75071V7.25057C15.9994 7.66456 15.6634 8.00054 15.2494 8.00054Z" fill="#020080"/>
<path d="M13.2496 21.0001H9.24961C8.83562 21.0001 8.49963 20.6641 8.49963 20.2501C8.49963 19.8361 8.83562 19.5001 9.24961 19.5001H13.2496C13.9386 19.5001 14.4995 18.9391 14.4995 18.2501V13.7502C14.4995 13.3362 14.8354 13.0002 15.2494 13.0002C15.6634 13.0002 15.9994 13.3362 15.9994 13.7502V18.2501C15.9994 19.7671 14.7666 21.0001 13.2496 21.0001Z" fill="#020080"/>
</g>
<defs>
<clipPath id="clip0">
<rect width="24" height="24" fill="white"/>
</clipPath>
</defs>
</svg>
