<svg width="50" height="50" viewBox="0 0 50 50" fill="none" xmlns="http://www.w3.org/2000/svg">
<rect width="50" height="50" rx="8" fill="#FFE3EB"/>
<path d="M18.3625 10.7439C16.8642 10.7439 15.6705 11.2277 14.8143 12.1819C13.2047 13.9756 13.0988 16.976 13.1789 18.6049L13.1909 18.8431C13.2964 20.8964 13.4401 23.6908 10.7834 26.4799C10.9332 26.7365 11.2608 27.1668 11.8652 27.4055C12.0545 27.4802 12.244 27.5166 12.4443 27.5166C12.6867 27.5166 12.9233 27.4651 13.174 27.4106C13.4502 27.3505 13.7359 27.2884 14.0547 27.2884C14.3591 27.2884 14.6475 27.346 14.9362 27.4647C15.2497 27.5936 15.4958 27.8431 15.7564 28.1071C16.1571 28.5133 16.535 28.898 17.163 28.8798C17.7051 28.8657 18.1801 28.6816 18.6831 28.4868C19.1987 28.287 19.7645 28.0711 20.3395 28.0711C21.1705 28.0711 21.8715 28.4345 22.3125 28.6935C22.8196 27.0702 24.4712 21.1153 23.2471 15.8931C23.0455 15.0332 21.8629 10.7439 18.3625 10.7439ZM14.655 15.793C14.655 14.8957 15.345 14.1656 16.1932 14.1656C17.0415 14.1656 17.7316 14.8956 17.7316 15.793C17.7316 16.6904 17.0414 17.4205 16.1932 17.4205C15.3451 17.4205 14.655 16.6904 14.655 15.793ZM20.8258 18.3209C20.385 19.2033 19.3555 19.7734 18.2032 19.7734C17.0507 19.7734 16.0212 19.2033 15.5803 18.3209C15.5227 18.2056 15.5264 18.0668 15.5901 17.9551C15.6537 17.8433 15.768 17.775 15.8912 17.775H20.5151C20.6384 17.775 20.7526 17.8434 20.8163 17.9551C20.8798 18.0667 20.8834 18.2055 20.8258 18.3209ZM20.2128 17.4205C19.3646 17.4205 18.6746 16.6904 18.6746 15.793C18.6746 14.8957 19.3646 14.1656 20.2128 14.1656C21.061 14.1656 21.7511 14.8956 21.7511 15.793C21.7511 16.6904 21.061 17.4205 20.2128 17.4205Z" fill="white"/>
<path d="M20.2128 14.9094C19.7524 14.9094 19.3777 15.3057 19.3777 15.7929C19.3777 16.28 19.7524 16.6764 20.2128 16.6764C20.6733 16.6764 21.048 16.28 21.048 15.7929C21.048 15.3058 20.6733 14.9094 20.2128 14.9094Z" fill="white"/>
<path d="M29.0253 26.1687C29.0253 26.6559 29.3999 27.0522 29.8604 27.0522C30.1708 27.0522 30.4456 26.8729 30.5892 26.5994L29.0516 25.9486C29.0342 26.02 29.0253 26.0938 29.0253 26.1687Z" fill="white"/>
<path d="M17.0284 15.7939C17.0284 15.3067 16.6537 14.9104 16.1932 14.9104C15.7328 14.9104 15.3582 15.3067 15.3582 15.7939C15.3582 16.281 15.7328 16.6774 16.1932 16.6774C16.6537 16.6774 17.0284 16.281 17.0284 15.7939Z" fill="white"/>
<path d="M18.2031 19.0294C18.7961 19.0294 19.3542 18.8371 19.752 18.5189H16.6541C17.0519 18.8371 17.61 19.0294 18.2031 19.0294Z" fill="white"/>
<path d="M36.8089 29.2187L36.821 28.9808C36.901 27.3518 36.7949 24.3513 35.1854 22.5576C34.3292 21.6035 33.1356 21.1198 31.6374 21.1198C28.1371 21.1198 26.9542 25.4091 26.7526 26.2689C25.5275 31.4959 27.1797 37.4467 27.6872 39.0695C28.1282 38.8104 28.8281 38.4469 29.6603 38.4469C30.2247 38.4469 30.8011 38.6627 31.3168 38.8626C31.8196 39.0574 32.2947 39.2415 32.8367 39.2556C33.4649 39.2735 33.8428 38.889 34.2434 38.483C34.5039 38.2189 34.75 37.9694 35.0636 37.8405C35.3523 37.7218 35.6406 37.6642 35.945 37.6642C36.2639 37.6642 36.5496 37.7263 36.8258 37.7864C37.0764 37.8409 37.313 37.8924 37.5555 37.8924H37.5556C37.7558 37.8924 37.9452 37.856 38.1345 37.7813C38.7393 37.5426 39.0668 37.112 39.2163 36.8558C36.5597 34.0665 36.7034 31.272 36.8089 29.2187ZM28.3222 26.1689C28.3222 25.8462 28.4116 25.534 28.5807 25.266C28.6731 25.1199 28.8493 25.062 29.0038 25.1272L31.159 26.0394C31.3132 26.1046 31.4032 26.2752 31.3748 26.4484C31.2466 27.2295 30.6097 27.7963 29.8604 27.7963C29.0122 27.7963 28.3222 27.0663 28.3222 26.1689ZM32.0298 30.0797C31.4101 30.0797 30.9059 29.5463 30.9059 28.8907C30.9059 28.235 31.4101 27.7016 32.0298 27.7016C32.6495 27.7016 33.1537 28.235 33.1537 28.8907C33.1538 29.5463 32.6496 30.0797 32.0298 30.0797ZM33.6781 27.7963C32.9289 27.7963 32.292 27.2294 32.1638 26.4483C32.1354 26.2751 32.2253 26.1045 32.3796 26.0393L34.5348 25.1272C34.6891 25.062 34.8655 25.1198 34.9578 25.266C35.127 25.5341 35.2164 25.8463 35.2164 26.1688C35.2164 27.0663 34.5263 27.7963 33.6781 27.7963Z" fill="#FE1D5F"/>
<path d="M32.9493 26.5994C33.0928 26.8728 33.3676 27.0522 33.6781 27.0522C34.1386 27.0522 34.5132 26.6559 34.5132 26.1687C34.5132 26.0939 34.5044 26.02 34.487 25.9486L32.9493 26.5994Z" fill="white"/>
<path d="M32.0298 28.4454C31.7979 28.4454 31.6091 28.6451 31.6091 28.8905C31.6091 29.1359 31.7979 29.3356 32.0298 29.3356C32.2617 29.3356 32.4505 29.1359 32.4505 28.8905C32.4506 28.6451 32.2618 28.4454 32.0298 28.4454Z" fill="white"/>
<path d="M18.3625 10C16.6638 10 15.2985 10.5618 14.3043 11.6697C12.5139 13.665 12.3907 16.8955 12.4767 18.6435L12.4889 18.8834C12.5949 20.948 12.7269 23.5176 10.1101 26.1342C10.0067 26.2376 9.97238 26.3966 10.0232 26.5372C10.0393 26.5817 10.4306 27.633 11.6196 28.1023C11.8889 28.2086 12.1587 28.2603 12.4444 28.2603C12.7583 28.2603 13.0416 28.1986 13.3156 28.1391C13.5686 28.0841 13.8075 28.0321 14.0548 28.0321C14.2706 28.0321 14.4755 28.0732 14.6816 28.1579C14.8646 28.233 15.0615 28.4327 15.2701 28.6441C15.7009 29.0807 16.237 29.624 17.1243 29.624C17.7626 29.624 18.3908 29.392 18.9251 29.1851C19.4069 28.9985 19.8903 28.8148 20.3498 28.8148C21.2823 28.8148 22.2908 29.5491 22.3006 29.5562C22.3896 29.622 22.5024 29.6406 22.6061 29.6068C22.7098 29.5728 22.7929 29.49 22.8312 29.3826C22.8577 29.3081 23.4864 27.5278 23.9422 24.947C24.364 22.5584 24.7043 19.0176 23.9298 15.7137C23.2821 12.9517 21.4797 10 18.3625 10ZM22.3124 28.6936C21.8714 28.4346 21.1705 28.0712 20.3394 28.0712C19.7645 28.0712 19.1987 28.287 18.683 28.4868C18.1801 28.6817 17.705 28.8657 17.1629 28.8799C16.5349 28.8981 16.157 28.5133 15.7563 28.1072C15.4958 27.8431 15.2496 27.5937 14.9361 27.4647C14.6475 27.3461 14.3591 27.2884 14.0546 27.2884C13.7358 27.2884 13.4501 27.3505 13.1739 27.4107C12.9233 27.4651 12.6866 27.5166 12.4442 27.5166C12.2439 27.5166 12.0545 27.4803 11.8651 27.4055C11.2607 27.1669 10.9331 26.7365 10.7834 26.4799C13.4401 23.6908 13.2963 20.8964 13.1909 18.8432L13.1788 18.605C13.0987 16.976 13.2047 13.9756 14.8142 12.182C15.6704 11.2278 16.8642 10.744 18.3624 10.744C21.8628 10.744 23.0455 15.0333 23.247 15.8931C24.4712 21.1153 22.8196 27.0702 22.3124 28.6936Z" fill="black" stroke="black" stroke-width="0.5"/>
<path d="M20.515 17.775H15.8911C15.7678 17.775 15.6536 17.8433 15.5899 17.955C15.5263 18.0666 15.5227 18.2055 15.5802 18.3208C16.0211 19.2032 17.0506 19.7733 18.203 19.7733C19.3554 19.7733 20.3849 19.2032 20.8257 18.3208C20.8833 18.2055 20.8796 18.0667 20.816 17.955C20.7525 17.8432 20.6382 17.775 20.515 17.775ZM18.2031 19.0294C17.6101 19.0294 17.052 18.8371 16.654 18.5189H19.752C19.3542 18.8371 18.7961 19.0294 18.2031 19.0294Z" fill="black"/>
<path d="M17.7315 15.7929C17.7315 14.8956 17.0414 14.1655 16.1932 14.1655C15.345 14.1655 14.655 14.8955 14.655 15.7929C14.655 16.6903 15.345 17.4204 16.1932 17.4204C17.0415 17.4204 17.7315 16.6903 17.7315 15.7929ZM15.3582 15.7929C15.3582 15.3058 15.7328 14.9095 16.1932 14.9095C16.6537 14.9095 17.0284 15.3058 17.0284 15.7929C17.0284 16.2801 16.6537 16.6764 16.1932 16.6764C15.7328 16.6764 15.3582 16.2801 15.3582 15.7929Z" fill="black"/>
<path d="M20.2128 14.1655C19.3646 14.1655 18.6746 14.8955 18.6746 15.7929C18.6746 16.6903 19.3646 17.4204 20.2128 17.4204C21.061 17.4204 21.7511 16.6904 21.7511 15.7929C21.7511 14.8957 21.061 14.1655 20.2128 14.1655ZM20.2128 16.6765C19.7524 16.6765 19.3777 16.2801 19.3777 15.793C19.3777 15.3059 19.7524 14.9096 20.2128 14.9096C20.6733 14.9096 21.048 15.3059 21.048 15.793C21.048 16.2801 20.6733 16.6765 20.2128 16.6765Z" fill="black"/>
<path d="M32.0298 27.7015C31.4101 27.7015 30.9059 28.235 30.9059 28.8906C30.9059 29.5462 31.4101 30.0796 32.0298 30.0796C32.6495 30.0796 33.1537 29.5462 33.1537 28.8906C33.1538 28.2349 32.6496 27.7015 32.0298 27.7015ZM32.0298 29.3357C31.7979 29.3357 31.6091 29.136 31.6091 28.8906C31.6091 28.6452 31.7979 28.4455 32.0298 28.4455C32.2617 28.4455 32.4505 28.6452 32.4505 28.8906C32.4506 29.136 32.2618 29.3357 32.0298 29.3357Z" fill="black"/>
<path d="M37.511 29.259L37.5232 29.0194C37.6091 27.2712 37.4859 24.0407 35.6955 22.0454C34.7012 20.9375 33.336 20.3757 31.6375 20.3757C28.5204 20.3757 26.7178 23.3274 26.0703 26.0898C25.2958 29.3936 25.6362 32.9344 26.058 35.323C26.5138 37.9038 27.1424 39.684 27.169 39.7586C27.2072 39.866 27.2903 39.9485 27.3938 39.9826C27.4976 40.0167 27.6103 39.998 27.6992 39.9324C27.7094 39.925 28.7125 39.1908 29.6503 39.1908C30.0752 39.1908 30.5933 39.3745 31.075 39.5611C31.6093 39.7681 32.1617 39.9821 32.8196 39.9993C32.8384 39.9997 32.8572 40 32.8758 40C33.7632 40 34.2992 39.4567 34.73 39.0201C34.9385 38.8088 35.1355 38.6092 35.3184 38.5338C35.5244 38.4492 35.7294 38.4081 35.9452 38.4081C36.1926 38.4081 36.4315 38.46 36.6844 38.5151C36.9583 38.5746 37.2417 38.6363 37.5556 38.6363C37.5557 38.6363 37.5557 38.6363 37.5558 38.6363C37.8415 38.6363 38.1111 38.5846 38.3805 38.4782C39.5694 38.009 39.9608 36.9577 39.9768 36.9131C40.0276 36.7725 39.9933 36.6134 39.89 36.51C37.2729 33.8933 37.4049 31.3237 37.511 29.259ZM38.1346 37.7813C37.9453 37.856 37.7558 37.8924 37.5557 37.8924H37.5556C37.3132 37.8924 37.0765 37.8409 36.8259 37.7864C36.5496 37.7263 36.264 37.6642 35.9452 37.6642C35.6407 37.6642 35.3523 37.7218 35.0638 37.8405C34.7502 37.9694 34.504 38.2189 34.2435 38.483C33.8429 38.889 33.465 39.2735 32.8368 39.2556C32.2949 39.2415 31.8198 39.0574 31.3169 38.8626C30.8012 38.6628 30.2249 38.4469 29.6604 38.4469C28.8283 38.4469 28.1283 38.8105 27.6873 39.0695C27.1798 37.4467 25.5276 31.4959 26.7528 26.2689C26.9544 25.4091 28.1372 21.1198 31.6375 21.1198C33.1357 21.1198 34.3293 21.6035 35.1855 22.5576C36.7951 24.3513 36.901 27.3518 36.8211 28.9808L36.809 29.2187C36.7036 31.272 36.5598 34.0666 39.2166 36.8558C39.0669 37.112 38.7395 37.5425 38.1346 37.7813Z" fill="black" stroke="black" stroke-width="0.5"/>
<path d="M31.3747 26.4483C31.4031 26.2751 31.3131 26.1045 31.1589 26.0392L29.0037 25.1271C28.8493 25.0619 28.673 25.1197 28.5807 25.2659C28.4116 25.5339 28.3221 25.8461 28.3221 26.1687C28.3221 27.0661 29.0122 27.7962 29.8604 27.7962C30.6096 27.7962 31.2465 27.2293 31.3747 26.4483ZM29.8604 27.0523C29.3999 27.0523 29.0253 26.6559 29.0253 26.1688C29.0253 26.0939 29.0341 26.0201 29.0515 25.9487L30.5892 26.5995C30.4456 26.8729 30.1707 27.0523 29.8604 27.0523Z" fill="black"/>
<path d="M34.5348 25.1271L32.3796 26.0392C32.2254 26.1045 32.1354 26.2751 32.1638 26.4483C32.292 27.2293 32.9289 27.7962 33.6781 27.7962C34.5263 27.7962 35.2165 27.0661 35.2165 26.1687C35.2165 25.8461 35.1271 25.5339 34.9578 25.2659C34.8655 25.1197 34.6892 25.0619 34.5348 25.1271ZM33.6781 27.0523C33.3678 27.0523 33.0929 26.873 32.9493 26.5995L34.487 25.9486C34.5044 26.02 34.5133 26.0939 34.5133 26.1687C34.5132 26.6559 34.1386 27.0523 33.6781 27.0523Z" fill="black"/>
</svg>
