<svg width="50" height="50" viewBox="0 0 50 50" fill="none" xmlns="http://www.w3.org/2000/svg">
<rect width="50" height="50" rx="8" fill="#FFE3EB"/>
<path d="M25 23.2955V33.4076C24.7719 33.3532 24.5342 33.3235 24.2894 33.3235C22.6067 33.3235 21.2425 34.6876 21.2425 36.3703C21.2425 38.0531 22.6067 39.4172 24.2894 39.4172C25.9722 39.4172 27.3363 38.0531 27.3363 36.3703C27.3363 36.3296 27.3348 36.2892 27.3332 36.2489H27.3437V26.6148L37.0703 24.6407V30.3591C36.8445 30.3057 36.6093 30.2766 36.3672 30.2766C34.6844 30.2766 33.3203 31.6408 33.3203 33.3235C33.3203 35.0063 34.6844 36.3704 36.3672 36.3704C38.0499 36.3704 39.4141 35.0063 39.4141 33.3235V20.37L25 23.2955Z" fill="#FE1D5F"/>
<path d="M24.2894 40.0032C22.2863 40.0032 20.6566 38.3735 20.6566 36.3704C20.6566 34.3672 22.2863 32.7376 24.2894 32.7376C24.3309 32.7376 24.3725 32.7383 24.414 32.7397V23.2955C24.414 23.0169 24.6103 22.7767 24.8834 22.7213L39.2975 19.7958C39.4697 19.7609 39.6488 19.8051 39.7849 19.9164C39.921 20.0277 40 20.1942 40 20.3701V33.3235C40 35.3266 38.3703 36.9563 36.3672 36.9563C34.364 36.9563 32.7344 35.3266 32.7344 33.3235C32.7344 31.3204 34.364 29.6907 36.3672 29.6907C36.4062 29.6907 36.4453 29.6913 36.4844 29.6926V25.3575L27.9297 27.0938V36.249C27.9297 36.2813 27.9271 36.3128 27.9221 36.3436C27.9222 36.3525 27.9222 36.3615 27.9222 36.3704C27.9222 38.3735 26.2926 40.0032 24.2894 40.0032ZM24.2894 33.9094C22.9324 33.9094 21.8285 35.0134 21.8285 36.3704C21.8285 37.7274 22.9324 38.8313 24.2894 38.8313C25.6464 38.8313 26.7504 37.7274 26.7504 36.3704C26.7504 36.3373 26.749 36.3046 26.7478 36.2718C26.746 36.2268 26.7495 36.1821 26.7578 36.1386V26.6148C26.7578 26.3361 26.9541 26.096 27.2272 26.0406L36.9538 24.0665C37.126 24.0316 37.305 24.0758 37.4411 24.1871C37.5772 24.2984 37.6562 24.4649 37.6562 24.6407V30.3591C37.6562 30.5382 37.5743 30.7075 37.4339 30.8186C37.2934 30.9297 37.1099 30.9704 36.9355 30.9294C36.7481 30.8851 36.557 30.8626 36.3672 30.8626C35.0103 30.8626 33.9063 31.9665 33.9063 33.3235C33.9063 34.6805 35.0103 35.7844 36.3672 35.7844C37.7242 35.7844 38.8282 34.6805 38.8282 33.3235V21.0869L25.586 23.7745V33.4077C25.586 33.5871 25.5038 33.7566 25.363 33.8677C25.2222 33.9788 25.0382 34.0191 24.8638 33.9776C24.6746 33.9324 24.4814 33.9094 24.2894 33.9094Z" fill="black"/>
<path d="M20.9512 17.2757C19.6543 15.9788 17.5517 15.9788 16.2549 17.2757C14.958 15.9788 12.8554 15.9788 11.5586 17.2757C10.2617 18.5725 10.2617 20.6751 11.5586 21.972L16.2549 26.6683L20.9512 21.972C22.248 20.6752 22.248 18.5725 20.9512 17.2757Z" fill="white"/>
<path d="M16.2549 27.2543C16.1049 27.2543 15.9549 27.1971 15.8406 27.0827L11.1443 22.3863C10.4063 21.6485 10 20.6674 10 19.6239C10 18.5804 10.4064 17.5993 11.1442 16.8614C11.8821 16.1236 12.8632 15.7171 13.9067 15.7171C14.7654 15.7171 15.5818 15.9923 16.2552 16.5009C17.7846 15.3497 19.9738 15.4697 21.3655 16.8614C22.1034 17.5992 22.5097 18.5803 22.5097 19.6238C22.5097 20.6674 22.1033 21.6484 21.3655 22.3863L16.6692 27.0826C16.5548 27.1971 16.4048 27.2543 16.2549 27.2543ZM13.9067 16.8903C13.2063 16.8903 12.506 17.1569 11.9729 17.6901C10.9065 18.7564 10.9065 20.4914 11.9729 21.5577L16.2548 25.8397L20.5368 21.5577C21.6031 20.4914 21.6031 18.7564 20.5368 17.6901C20.0203 17.1736 19.3335 16.8891 18.603 16.8891C17.8725 16.8891 17.1857 17.1736 16.6691 17.6901C16.4403 17.9189 16.0693 17.9189 15.8404 17.6901C15.3074 17.1569 14.6071 16.8903 13.9067 16.8903Z" fill="black"/>
<path d="M27.2555 11.052C26.6327 10.4291 25.6229 10.4291 25 11.052C24.3772 10.4291 23.3673 10.4291 22.7445 11.052C22.1216 11.6748 22.1216 12.6846 22.7445 13.3075L25 15.563L27.2555 13.3075C27.8784 12.6846 27.8784 11.6748 27.2555 11.052Z" fill="white"/>
<path d="M25 16.149C24.8501 16.149 24.7001 16.0918 24.5857 15.9774L22.3301 13.7219C21.4798 12.8715 21.4798 11.488 22.3301 10.6377C23.0531 9.91479 24.1616 9.80651 25 10.3129C25.8384 9.80651 26.9469 9.91479 27.6698 10.6377C28.5201 11.488 28.5201 12.8715 27.6698 13.7219L25.4143 15.9774C25.2999 16.0917 25.1499 16.149 25 16.149ZM23.8723 11.1713C23.6139 11.1713 23.3555 11.2697 23.1588 11.4664C22.7654 11.8598 22.7654 12.4998 23.1588 12.8932L25 14.7344L26.8412 12.8932C27.2346 12.4998 27.2346 11.8597 26.8412 11.4663C26.4478 11.0729 25.8077 11.0729 25.4143 11.4663C25.1855 11.6951 24.8145 11.6951 24.5856 11.4663C24.3889 11.2697 24.1306 11.1713 23.8723 11.1713Z" fill="black"/>
</svg>
