<svg width="50" height="50" viewBox="0 0 50 50" fill="none" xmlns="http://www.w3.org/2000/svg">
<rect width="50" height="50" rx="8" fill="#FFE3EB"/>
<path d="M24.1649 39.7655C31.8586 39.7655 38.0955 33.5272 38.0955 25.8318C38.0955 18.1364 31.8586 11.898 24.1649 11.898C16.4711 11.898 10.2342 18.1364 10.2342 25.8318C10.2342 33.5272 16.4711 39.7655 24.1649 39.7655Z" fill="white"/>
<path d="M38.096 25.8322C38.0961 28.6868 37.2197 31.4727 35.5852 33.8128C33.9507 36.153 31.637 37.9346 28.9571 38.9166C26.2773 39.8987 23.3605 40.0337 20.6014 39.3036C17.8423 38.5734 15.3739 37.0133 13.5302 34.8342C16.1481 37.2147 19.5733 38.5099 23.1109 38.4569C26.6485 38.4039 30.0335 37.0066 32.5788 34.5487C35.1241 32.0908 36.6392 28.7563 36.8165 25.222C36.9939 21.6876 35.8202 18.2182 33.5337 15.5177C34.972 16.8231 36.121 18.4153 36.9068 20.1917C37.6926 21.9682 38.0977 23.8896 38.096 25.8322Z" fill="white"/>
<path d="M24.1649 36.3343C29.9638 36.3343 34.6647 31.6323 34.6647 25.8321C34.6647 20.0319 29.9638 15.33 24.1649 15.33C18.3659 15.33 13.665 20.0319 13.665 25.8321C13.665 31.6323 18.3659 36.3343 24.1649 36.3343Z" fill="#FE1D5F"/>
<path d="M34.6649 25.8321C34.6656 28.1525 33.898 30.4077 32.4819 32.2457C31.0659 34.0836 29.0812 35.4008 26.8378 35.9915C24.5943 36.5822 22.2185 36.4131 20.0812 35.5107C17.944 34.6083 16.1657 33.0233 15.0241 31.0034C16.7078 33.0102 19.0806 34.3151 21.6769 34.6619C24.2731 35.0087 26.9051 34.3723 29.0563 32.8777C31.2075 31.3831 32.7224 29.1381 33.3037 26.5836C33.885 24.0291 33.4907 21.3495 32.1981 19.0709C33.7944 20.9616 34.6685 23.3574 34.6649 25.8321Z" fill="#FE1D5F"/>
<path d="M24.1648 32.7673C27.9941 32.7673 31.0984 29.6624 31.0984 25.8322C31.0984 22.002 27.9941 18.8971 24.1648 18.8971C20.3355 18.8971 17.2312 22.002 17.2312 25.8322C17.2312 29.6624 20.3355 32.7673 24.1648 32.7673Z" fill="white"/>
<path d="M31.0504 25.8322C31.05 27.4007 30.5183 28.9227 29.5419 30.1501C28.5655 31.3775 27.2021 32.2376 25.6742 32.5904C24.1462 32.9431 22.5438 32.7675 21.1285 32.0922C19.7131 31.417 18.5682 30.282 17.8807 28.8723C18.9963 30.1215 20.5262 30.9247 22.1877 31.1334C23.8493 31.3421 25.5302 30.9422 26.9199 30.0076C28.3096 29.073 29.3142 27.667 29.748 26.0491C30.1818 24.4313 30.0155 22.7112 29.2799 21.2065C30.4211 22.4767 31.0518 24.1245 31.0504 25.8322Z" fill="white"/>
<path d="M24.1648 28.4638C25.618 28.4638 26.796 27.2856 26.796 25.8321C26.796 24.3787 25.618 23.2004 24.1648 23.2004C22.7117 23.2004 21.5337 24.3787 21.5337 25.8321C21.5337 27.2856 22.7117 28.4638 24.1648 28.4638Z" fill="#FE1D5F"/>
<path d="M26.7969 25.8322C26.7971 26.4111 26.6065 26.9739 26.2546 27.4335C25.9026 27.8932 25.409 28.2239 24.8502 28.3745C24.2913 28.5252 23.6984 28.4873 23.1633 28.2668C22.6281 28.0463 22.1806 27.6555 21.8899 27.1548C22.293 27.3938 22.7531 27.5194 23.2217 27.5184C23.9188 27.518 24.5872 27.2408 25.0801 26.7477C25.573 26.2547 25.8501 25.5861 25.8504 24.8888C25.8514 24.4202 25.7258 23.96 25.4869 23.5568C25.8856 23.7879 26.2165 24.1197 26.4464 24.5191C26.6764 24.9185 26.7972 25.3713 26.7969 25.8322Z" fill="#FE1D5F"/>
<path d="M24.1651 40C21.3635 40 18.6248 39.169 16.2954 37.6122C13.966 36.0554 12.1504 33.8426 11.0783 31.2537C10.0061 28.6648 9.72562 25.8161 10.2722 23.0677C10.8187 20.3194 12.1678 17.7948 14.1489 15.8134C16.1299 13.8319 18.6539 12.4825 21.4016 11.9359C24.1494 11.3892 26.9975 11.6698 29.5858 12.7421C32.1741 13.8145 34.3864 15.6304 35.9429 17.9604C37.4994 20.2903 38.3301 23.0296 38.3301 25.8318C38.3259 29.5881 36.8321 33.1894 34.1766 35.8455C31.521 38.5016 27.9206 39.9957 24.1651 40ZM24.1651 12.1325C21.4562 12.1325 18.8082 12.9359 16.5558 14.4412C14.3035 15.9465 12.548 18.0861 11.5113 20.5893C10.4747 23.0925 10.2035 25.847 10.7319 28.5044C11.2604 31.1618 12.5649 33.6028 14.4803 35.5187C16.3958 37.4346 18.8362 38.7393 21.4931 39.2679C24.1499 39.7965 26.9037 39.5252 29.4064 38.4883C31.9091 37.4515 34.0482 35.6956 35.5531 33.4427C37.0581 31.1899 37.8614 28.5413 37.8614 25.8318C37.8575 22.1997 36.4132 18.7175 33.8455 16.1492C31.2778 13.581 27.7964 12.1364 24.1651 12.1325Z" fill="black" stroke="black"/>
<path d="M24.1651 36.5687C22.042 36.5687 19.9666 35.939 18.2014 34.7593C16.4361 33.5795 15.0602 31.9026 14.2478 29.9407C13.4353 27.9788 13.2227 25.82 13.6369 23.7372C14.0511 21.6545 15.0735 19.7414 16.5747 18.2398C18.0759 16.7382 19.9886 15.7156 22.0709 15.3014C24.1532 14.8871 26.3116 15.0997 28.273 15.9123C30.2345 16.725 31.911 18.1012 33.0905 19.8668C34.27 21.6325 34.8996 23.7083 34.8996 25.8319C34.8964 28.6785 33.7645 31.4076 31.7521 33.4205C29.7396 35.4334 27.0111 36.5656 24.1651 36.5687ZM24.1651 15.5639C22.1348 15.5639 20.15 16.1661 18.4618 17.2944C16.7736 18.4226 15.4578 20.0263 14.6808 21.9025C13.9038 23.7787 13.7005 25.8433 14.0966 27.8351C14.4928 29.8269 15.4705 31.6565 16.9062 33.0925C18.3418 34.5285 20.171 35.5064 22.1624 35.9026C24.1537 36.2988 26.2178 36.0954 28.0936 35.3183C29.9695 34.5411 31.5728 33.225 32.7008 31.5365C33.8288 29.8479 34.4309 27.8627 34.4309 25.8319C34.4277 23.1097 33.3451 20.4999 31.4206 18.575C29.496 16.6501 26.8868 15.5669 24.1651 15.5639Z" fill="black" stroke="black"/>
<path d="M24.165 33.0015C22.7473 33.0015 21.3614 32.5811 20.1826 31.7933C19.0038 31.0055 18.0851 29.8858 17.5425 28.5757C17 27.2656 16.858 25.8241 17.1346 24.4333C17.4111 23.0425 18.0938 21.765 19.0963 20.7623C20.0988 19.7596 21.376 19.0768 22.7665 18.8002C24.1569 18.5235 25.5982 18.6655 26.908 19.2082C28.2178 19.7509 29.3372 20.6698 30.1248 21.8489C30.9124 23.028 31.3328 24.4142 31.3328 25.8322C31.3305 27.7329 30.5746 29.5551 29.2309 30.8992C27.8872 32.2432 26.0653 32.9992 24.165 33.0015ZM24.165 19.1313C22.8401 19.1312 21.5448 19.5242 20.4431 20.2604C19.3414 20.9966 18.4827 22.0431 17.9756 23.2675C17.4685 24.4919 17.3358 25.8391 17.5943 27.1389C17.8527 28.4388 18.4907 29.6327 19.4276 30.5699C20.3645 31.507 21.5581 32.1452 22.8576 32.4038C24.1571 32.6624 25.5041 32.5298 26.7283 32.0226C27.9524 31.5155 28.9987 30.6567 29.7349 29.5548C30.471 28.4529 30.864 27.1574 30.864 25.8322C30.862 24.0557 30.1556 22.3525 28.8997 21.0964C27.6439 19.8402 25.9411 19.1333 24.165 19.1313Z" fill="black" stroke="black"/>
<path d="M24.1651 28.6983C23.5983 28.6983 23.0443 28.5302 22.573 28.2153C22.1018 27.9004 21.7344 27.4528 21.5175 26.9291C21.3006 26.4054 21.2438 25.8291 21.3544 25.2731C21.4649 24.7171 21.7378 24.2064 22.1385 23.8056C22.5393 23.4047 23.0499 23.1317 23.6057 23.0211C24.1616 22.9105 24.7377 22.9672 25.2614 23.1842C25.785 23.4011 26.2325 23.7684 26.5474 24.2398C26.8623 24.7111 27.0303 25.2653 27.0303 25.8321C27.0295 26.592 26.7273 27.3204 26.1902 27.8577C25.653 28.3951 24.9247 28.6973 24.1651 28.6983ZM24.1651 23.4349C23.691 23.4348 23.2276 23.5754 22.8334 23.8388C22.4393 24.1021 22.132 24.4765 21.9506 24.9146C21.7692 25.3526 21.7217 25.8346 21.8141 26.2997C21.9066 26.7647 22.1348 27.1919 22.47 27.5272C22.8052 27.8625 23.2322 28.0908 23.6972 28.1833C24.1621 28.2758 24.644 28.2284 25.082 28.0469C25.5199 27.8655 25.8943 27.5582 26.1576 27.164C26.421 26.7698 26.5616 26.3063 26.5616 25.8321C26.5608 25.1966 26.3081 24.5873 25.8588 24.1379C25.4096 23.6885 24.8005 23.4357 24.1651 23.4349Z" fill="black" stroke="black" stroke-width="0.8"/>
<path d="M38.3972 11.5913L38.3971 11.5911C38.1298 11.3238 37.6964 11.3238 37.4291 11.5911L23.7796 25.2407C23.5123 25.508 23.5123 25.9413 23.7796 26.2086L23.7798 26.2088C24.0471 26.4761 24.4804 26.4761 24.7477 26.2088L38.3972 12.5593C38.6645 12.292 38.6645 11.8586 38.3972 11.5913Z" fill="white"/>
<path d="M24.2654 26.645C24.1448 26.6452 24.0253 26.6215 23.9138 26.5754C23.8023 26.5293 23.701 26.4617 23.6157 26.3763C23.5304 26.291 23.4627 26.1897 23.4165 26.0782C23.3704 25.9667 23.3466 25.8472 23.3466 25.7265C23.3466 25.6058 23.3704 25.4863 23.4165 25.3748C23.4627 25.2633 23.5304 25.162 23.6157 25.0766L37.2633 11.4265C37.4365 11.2584 37.6688 11.1652 37.9102 11.167C38.1515 11.1688 38.3824 11.2655 38.5531 11.4362C38.7237 11.6068 38.8204 11.8378 38.8223 12.0792C38.8241 12.3205 38.731 12.553 38.5629 12.7262L24.9151 26.377C24.8298 26.4623 24.7285 26.5298 24.617 26.5758C24.5055 26.6218 24.386 26.6453 24.2654 26.645ZM37.9142 11.6256C37.855 11.6255 37.7965 11.6371 37.7419 11.6597C37.6873 11.6823 37.6376 11.7155 37.5959 11.7573L23.9471 25.4081C23.9053 25.4499 23.8722 25.4995 23.8495 25.5542C23.8269 25.6088 23.8153 25.6673 23.8153 25.7265C23.8153 25.7856 23.8269 25.8442 23.8495 25.8988C23.8722 25.9534 23.9053 26.003 23.9471 26.0448C24.0316 26.1292 24.1461 26.1765 24.2654 26.1765C24.3848 26.1765 24.4993 26.1292 24.5837 26.0448L38.2315 12.394C38.2945 12.3312 38.3375 12.251 38.355 12.1638C38.3724 12.0765 38.3636 11.986 38.3297 11.9037C38.2957 11.8214 38.2381 11.7511 38.1641 11.7016C38.0901 11.6521 38.0032 11.6256 37.9142 11.6256Z" fill="black" stroke="black" stroke-width="0.5"/>
<path d="M35.4004 18.0971L33.2188 17.7384L37.5843 13.3722L39.7656 13.7309L35.4004 18.0971Z" fill="#FE1D5F"/>
<path d="M35.4004 18.3319C35.3876 18.3319 35.3749 18.3309 35.3624 18.3289L33.1808 17.9699C33.1383 17.963 33.0985 17.9444 33.0658 17.9162C33.0331 17.8881 33.0089 17.8515 32.9957 17.8104C32.9825 17.7694 32.9808 17.7255 32.991 17.6835C33.0011 17.6416 33.0226 17.6033 33.0531 17.5728L37.4183 13.2066C37.4447 13.1803 37.4769 13.1607 37.5123 13.1493C37.5477 13.1379 37.5853 13.135 37.622 13.1409L39.8036 13.4996C39.8461 13.5066 39.8859 13.5252 39.9186 13.5533C39.9513 13.5815 39.9755 13.6181 39.9887 13.6592C40.0019 13.7002 40.0036 13.7441 39.9934 13.786C39.9833 13.8279 39.9618 13.8663 39.9313 13.8967L35.5661 18.2632C35.5221 18.3072 35.4625 18.3319 35.4004 18.3319ZM33.7075 17.5817L35.3197 17.8469L39.277 13.8876L37.6647 13.6225L33.7075 17.5817Z" fill="black" stroke="black" stroke-width="0.5"/>
<path d="M31.9035 14.6004L32.2623 16.7822L36.6276 12.416L36.2687 10.2342L31.9035 14.6004Z" fill="#FE1D5F"/>
<path d="M32.2621 17.0167C32.2066 17.0166 32.1529 16.9968 32.1106 16.9609C32.0683 16.9249 32.0402 16.8751 32.0312 16.8203L31.6724 14.6384C31.6663 14.6017 31.6691 14.5641 31.6805 14.5287C31.6919 14.4933 31.7115 14.4611 31.7378 14.4347L36.1031 10.0685C36.1335 10.0381 36.1718 10.0166 36.2137 10.0065C36.2556 9.99643 36.2994 9.99808 36.3404 10.0113C36.3814 10.0245 36.418 10.0487 36.4461 10.0814C36.4743 10.114 36.4928 10.1537 36.4999 10.1962L36.8587 12.3781C36.8647 12.4148 36.862 12.4524 36.8506 12.4878C36.8392 12.5233 36.8196 12.5555 36.7933 12.5818L32.4278 16.948C32.3838 16.992 32.3242 17.0167 32.2621 17.0167ZM32.1543 14.6811L32.4193 16.2935L36.3768 12.3354L36.1115 10.7235L32.1543 14.6811Z" fill="black" stroke="black" stroke-width="0.5"/>
</svg>
