<svg width="24" height="24" viewBox="0 0 24 24" fill="none" xmlns="http://www.w3.org/2000/svg">
<path d="M12 23.25C18.2132 23.25 23.25 18.2132 23.25 12C23.25 5.7868 18.2132 0.75 12 0.75C5.7868 0.75 0.75 5.7868 0.75 12C0.75 18.2132 5.7868 23.25 12 23.25Z" fill="#FFC956"/>
<path d="M23.25 12C23.25 18.2133 18.2133 23.25 12 23.25C11.6845 23.25 11.3714 23.2369 11.0625 23.2111C16.837 22.7353 21.375 17.8978 21.375 12C21.375 6.10219 16.837 1.26469 11.0625 0.788906C11.3714 0.763125 11.6845 0.75 12 0.75C18.2133 0.75 23.25 5.78672 23.25 12Z" fill="#FFC956"/>
<path d="M12 23C9.0618 23 6.29947 21.8558 4.2218 19.7782C2.14413 17.7006 1 14.9382 1 12C1 9.0618 2.14417 6.29947 4.2218 4.2218C6.29942 2.14413 9.0618 1 12 1C14.9382 1 17.7005 2.14417 19.7782 4.2218C21.8559 6.29942 23 9.0618 23 12C23 14.9382 21.8558 17.7005 19.7782 19.7782C17.7006 21.8559 14.9382 23 12 23V23ZM12 2.375C6.69276 2.375 2.375 6.69276 2.375 12C2.375 17.3072 6.69276 21.625 12 21.625C17.3072 21.625 21.625 17.3072 21.625 12C21.625 6.69276 17.3072 2.375 12 2.375Z" fill="#020080" stroke="#020080" stroke-width="0.8"/>
<path d="M12 15.2C11.6686 15.2 11.4 14.9313 11.4 14.6C11.4 13.0855 11.9898 11.6617 13.0607 10.5908C13.7309 9.92056 14.1 9.02949 14.1 8.08164C14.1 7.04409 13.2559 6.2 12.2184 6.2H12.0816C11.0441 6.2 10.2 7.04409 10.2 8.08164V8.3C10.2 8.63135 9.93135 8.9 9.6 8.9C9.26865 8.9 9 8.63135 9 8.3V8.08164C9 6.3824 10.3824 5 12.0816 5H12.2184C13.9176 5 15.3 6.3824 15.3 8.08164C15.3 9.35 14.8061 10.5425 13.9092 11.4393C13.0649 12.2836 12.6 13.4061 12.6 14.6C12.6 14.9313 12.3313 15.2 12 15.2V15.2Z" fill="#020080" stroke="#020080" stroke-width="0.8"/>
<path d="M12.001 19.25C11.5868 19.25 11.2507 18.9142 11.2507 18.5C11.2507 18.0858 11.5863 17.75 12.0005 17.75H12.001C12.4152 17.75 12.751 18.0858 12.751 18.5C12.751 18.9142 12.4152 19.25 12.001 19.25Z" fill="#020080" stroke="#020080" stroke-width="0.8"/>
</svg>
