<svg width="24" height="24" viewBox="0 0 24 24" fill="none" xmlns="http://www.w3.org/2000/svg">
<path d="M19 9.23565C19 11.4688 18.0201 13.5365 16.3302 14.9219C15.6403 15.4802 15.1903 16.2143 15.0504 17C15.0304 16.9897 15.0204 16.9897 15.0004 16.9897H9.00092C8.98092 16.9897 8.95092 16.9897 8.93092 17C8.79094 16.1832 8.38097 15.4699 7.79103 15.015C5.61123 13.3091 4.59132 10.5177 5.15127 7.70553C5.70122 4.96578 7.85102 2.73263 10.5008 2.164C12.6106 1.69876 14.7704 2.23637 16.4102 3.61142C18.0601 4.9968 19 7.04386 19 9.23565V9.23565Z" fill="#FE1D5F"/>
<path d="M15 18.0089C14.9706 18.16 14.951 18.3111 14.951 18.4711V20.4444C14.951 21.2978 14.1765 22 13.2353 22H10.7843C9.96078 22 9.06863 21.4311 9.06863 20.1867V18.6133C9.06863 18.4089 9.04902 18.2044 9 18.0089C9.01961 18 9.04902 18 9.06863 18H14.951C14.9706 18 14.9804 18 15 18.0089Z" fill="#FE1D5F"/>
<path d="M14.25 19H9.75C9.336 19 9 18.552 9 18C9 17.448 9.336 17 9.75 17H14.25C14.664 17 15 17.448 15 18C15 18.552 14.664 19 14.25 19Z" fill="#15153F"/>
<path d="M13.428 23H10.5705C9.60702 23 8.57035 22.2589 8.57035 20.6331V18.5905C8.57035 17.3619 8.05373 16.2341 7.18851 15.574C4.69113 13.6692 3.53559 10.5358 4.17222 7.39658C4.79514 4.32106 7.25137 1.82336 10.2837 1.18069C12.6953 0.66656 15.1618 1.26175 17.0432 2.81109C18.9222 4.35811 20 6.65202 20 9.10456C20 11.6034 18.8856 13.9228 16.9426 15.471C15.9802 16.2376 15.4281 17.3052 15.4281 18.3995V20.9736C15.4281 22.091 14.5309 23 13.428 23V23ZM11.9832 2.73814C11.5352 2.73814 11.0837 2.78561 10.6323 2.88057C8.25947 3.38312 6.33814 5.33774 5.8501 7.74513C5.34834 10.2197 6.25585 12.6884 8.21832 14.1857C9.51101 15.1722 10.2837 16.8188 10.2837 18.5905V20.6331C10.2837 20.7385 10.2974 21.2631 10.5694 21.2631H13.4268C13.5845 21.2631 13.7126 21.1334 13.7126 20.9736V18.3995C13.7126 16.7679 14.5035 15.2035 15.8819 14.1046C17.41 12.8888 18.2856 11.0661 18.2856 9.10456C18.2856 7.17773 17.4375 5.3748 15.9608 4.15895C14.8315 3.23027 13.4314 2.73814 11.9832 2.73814V2.73814Z" fill="#15153F" stroke="#15153F" stroke-width="0.2"/>
<path d="M12 17V11" stroke="#15153F" stroke-width="2"/>
</svg>
