<svg width="50" height="50" viewBox="0 0 50 50" fill="none" xmlns="http://www.w3.org/2000/svg">
<rect width="50" height="50" rx="8" fill="#FFE3EB"/>
<path d="M39.4643 30.6897C39.4642 32.7473 38.6176 34.7207 37.1106 36.1757C35.6036 37.6307 33.5598 38.4482 31.4286 38.4483V36.3793C32.9915 36.3793 34.4903 35.7799 35.5955 34.7129C36.7006 33.6458 37.3214 32.1986 37.3214 30.6897C37.3214 29.1807 36.7006 27.7335 35.5955 26.6665C34.4903 25.5994 32.9915 25 31.4286 25V22.931C33.5598 22.9311 35.6036 23.7486 37.1106 25.2036C38.6176 26.6586 39.4642 28.632 39.4643 30.6897Z" fill="white"/>
<path d="M25.5357 30.6463C25.5298 31.3971 25.6778 32.1417 25.9713 32.837C26.2648 33.5323 26.698 34.1646 27.2457 34.6976C27.7935 35.2305 28.4452 35.6535 29.1631 35.9421C29.881 36.2307 30.6509 36.3793 31.4286 36.3793V39.4828C29.6907 39.4827 27.9891 39.0025 26.5247 38.0989C25.0603 37.1954 23.8942 35.9062 23.1641 34.3835C22.434 32.8608 22.1704 31.1682 22.4043 29.5055C22.6383 27.8428 23.36 26.2795 24.4844 25H24.4643L25.8685 19.5767C25.9265 19.3528 26.0603 19.1542 26.2486 19.0122C26.4369 18.8702 26.669 18.7931 26.9079 18.7931H35.9492C36.1881 18.7931 36.4202 18.8702 36.6085 19.0122C36.7969 19.1542 36.9307 19.3528 36.9886 19.5767L38.3929 25H31.5026C28.2533 25 25.5601 27.5092 25.5357 30.6463Z" fill="#FE1D5F"/>
<path d="M29.2857 22.931C29.8774 22.931 30.3571 22.4679 30.3571 21.8966C30.3571 21.3252 29.8774 20.8621 29.2857 20.8621C28.694 20.8621 28.2143 21.3252 28.2143 21.8966C28.2143 22.4679 28.694 22.931 29.2857 22.931Z" fill="#E9EEF2"/>
<path d="M33.5714 22.931C34.1632 22.931 34.6429 22.4679 34.6429 21.8966C34.6429 21.3252 34.1632 20.8621 33.5714 20.8621C32.9797 20.8621 32.5 21.3252 32.5 21.8966C32.5 22.4679 32.9797 22.931 33.5714 22.931Z" fill="#E9EEF2"/>
<path d="M27.6786 30.6897C27.6785 32.7473 26.8318 34.7207 25.3249 36.1757C23.8179 37.6307 21.774 38.4482 19.6429 38.4483V36.3793C21.2057 36.3793 22.7046 35.7799 23.8097 34.7129C24.9149 33.6458 25.5357 32.1986 25.5357 30.6897C25.5357 29.1807 24.9149 27.7335 23.8097 26.6665C22.7046 25.5994 21.2057 25 19.6429 25V22.931C21.774 22.9311 23.8179 23.7486 25.3249 25.2036C26.8318 26.6586 27.6785 28.632 27.6786 30.6897Z" fill="white"/>
<path d="M13.75 30.6463C13.7441 31.3971 13.8921 32.1417 14.1856 32.837C14.4791 33.5323 14.9122 34.1646 15.46 34.6976C16.0078 35.2305 16.6595 35.6535 17.3773 35.9421C18.0952 36.2307 18.8652 36.3793 19.6429 36.3793V39.4828C17.905 39.4827 16.2034 39.0025 14.739 38.0989C13.2746 37.1954 12.1085 35.9062 11.3784 34.3835C10.6483 32.8608 10.3847 31.1682 10.6186 29.5055C10.8525 27.8428 11.5743 26.2795 12.6987 25H12.6786L14.0828 19.5767C14.1408 19.3528 14.2745 19.1542 14.4629 19.0122C14.6512 18.8702 14.8833 18.7931 15.1222 18.7931H24.1635C24.4024 18.7931 24.6345 18.8702 24.8228 19.0122C25.0112 19.1542 25.1449 19.3528 25.2029 19.5767L26.6071 25H19.7165C16.4676 25 13.7744 27.5092 13.75 30.6463Z" fill="#FE1D5F"/>
<path d="M17.5 22.931C18.0917 22.931 18.5714 22.4679 18.5714 21.8966C18.5714 21.3252 18.0917 20.8621 17.5 20.8621C16.9083 20.8621 16.4286 21.3252 16.4286 21.8966C16.4286 22.4679 16.9083 22.931 17.5 22.931Z" fill="#E9EEF2"/>
<path d="M21.7857 22.931C22.3774 22.931 22.8571 22.4679 22.8571 21.8966C22.8571 21.3252 22.3774 20.8621 21.7857 20.8621C21.194 20.8621 20.7143 21.3252 20.7143 21.8966C20.7143 22.4679 21.194 22.931 21.7857 22.931Z" fill="#E9EEF2"/>
<path d="M22.3214 16.7241H16.9643L16.4286 18.7931H22.8571L22.3214 16.7241Z" fill="white"/>
<path d="M34.1071 16.7241H28.75L28.2143 18.7931H34.6429L34.1071 16.7241Z" fill="white"/>
<path d="M18.5714 14.6552H20.7143V16.7241H18.5714V14.6552Z" fill="#FE1D5F"/>
<path d="M30.3571 14.6552H32.5V16.7241H30.3571V14.6552Z" fill="#FE1D5F"/>
<path d="M40 30.6897C39.9971 28.8094 39.3332 26.9857 38.1169 25.5172H38.3929C38.4743 25.5172 38.5546 25.4993 38.6278 25.4649C38.7009 25.4304 38.765 25.3803 38.8151 25.3183C38.8652 25.2564 38.9 25.1842 38.9169 25.1073C38.9338 25.0304 38.9323 24.9508 38.9126 24.8746L37.5083 19.4513C37.4218 19.1154 37.2213 18.8171 36.9387 18.6041C36.6561 18.391 36.3078 18.2755 35.9493 18.2759H35.0611L34.6269 16.5987C34.5979 16.4868 34.531 16.3874 34.4368 16.3165C34.3427 16.2455 34.2266 16.2069 34.1071 16.2069H33.0357V14.776C33.2043 14.6308 33.3391 14.4527 33.4315 14.2536C33.5238 14.0545 33.5715 13.8388 33.5714 13.6207V11.5517C33.5709 11.1403 33.4014 10.7459 33.1002 10.455C32.7989 10.1641 32.3904 10.0005 31.9643 10H30.8929C30.4972 9.99974 30.1156 10.141 29.8214 10.3964C29.5273 10.141 29.1456 9.99974 28.75 10H26.6071C26.2115 9.99974 25.8298 10.141 25.5357 10.3964C25.2416 10.141 24.8599 9.99974 24.4643 10H22.3214C21.9258 9.99974 21.5441 10.141 21.25 10.3964C20.9559 10.141 20.5742 9.99974 20.1786 10H19.1071C18.6811 10.0005 18.2726 10.1641 17.9713 10.455C17.67 10.7459 17.5005 11.1403 17.5 11.5517V13.6207C17.4999 13.8388 17.5476 14.0545 17.64 14.2536C17.7323 14.4527 17.8671 14.6308 18.0357 14.776V16.2069H16.9643C16.8448 16.2069 16.7288 16.2455 16.6346 16.3165C16.5404 16.3874 16.4735 16.4868 16.4446 16.5987L16.0103 18.2759H15.1222C14.7637 18.2755 14.4154 18.391 14.1328 18.604C13.8502 18.8171 13.6497 19.1153 13.5631 19.4512L12.18 24.7931C10.7705 26.4569 10.0003 28.5402 10 30.6897C10 35.8233 14.3259 40 19.6429 40C19.7849 40 19.9212 39.9455 20.0217 39.8485C20.1221 39.7515 20.1786 39.6199 20.1786 39.4828V38.9489C21.814 38.8516 23.3856 38.3011 24.7054 37.3636C26.5075 39.0509 28.9182 39.9962 31.4286 40C31.5707 40 31.7069 39.9455 31.8074 39.8485C31.9078 39.7515 31.9643 39.6199 31.9643 39.4828V38.9489C36.442 38.681 40 35.0792 40 30.6897ZM36.4689 19.7022L37.7067 24.4828H31.5022C31.4882 24.4828 31.4735 24.4828 31.459 24.4834C29.7534 24.4896 28.1186 25.143 26.9075 26.3027C26.7313 26.0303 26.5389 25.7681 26.3312 25.5172H26.6071C26.6886 25.5172 26.7689 25.4993 26.8421 25.4649C26.9152 25.4304 26.9793 25.3803 27.0294 25.3183C27.0795 25.2564 27.1143 25.1842 27.1312 25.1073C27.1481 25.0304 27.1466 24.9508 27.1269 24.8746L26.0879 20.8621L26.3882 19.7022C26.4171 19.5902 26.4839 19.4908 26.5781 19.4198C26.6722 19.3488 26.7883 19.3102 26.9078 19.3103H35.9493C36.0688 19.3102 36.1849 19.3488 36.2791 19.4198C36.3732 19.4908 36.4401 19.5902 36.4689 19.7022ZM23.2754 18.2759L22.8411 16.5987C22.8122 16.4868 22.7453 16.3874 22.6511 16.3165C22.5569 16.2455 22.4409 16.2069 22.3214 16.2069H21.25V14.776C21.481 14.5764 21.6473 14.3167 21.7291 14.028C21.9175 14.1006 22.1185 14.1379 22.3214 14.1379H24.4643C24.8599 14.1382 25.2416 13.997 25.5357 13.7415C25.8298 13.997 26.2115 14.1382 26.6071 14.1379H28.75C28.9529 14.1379 29.1539 14.1006 29.3424 14.028C29.4241 14.3167 29.5905 14.5764 29.8214 14.776V16.2069H28.75C28.6305 16.2069 28.5145 16.2455 28.4203 16.3165C28.3261 16.3874 28.2593 16.4868 28.2303 16.5987L27.796 18.2759H26.9078C26.632 18.2757 26.3608 18.3443 26.1204 18.4749C25.8801 18.6055 25.6787 18.7938 25.5357 19.0215C25.3927 18.7938 25.1913 18.6055 24.9509 18.4749C24.7105 18.3443 24.4393 18.2757 24.1635 18.2759H23.2754ZM33.9567 18.2759H28.9004L29.1683 17.2414H33.6889L33.9567 18.2759ZM31.9643 16.2069H30.8929V15.1724H31.9643V16.2069ZM30.8929 11.0345H31.9643C32.1063 11.0346 32.2425 11.0892 32.3429 11.1861C32.4433 11.2831 32.4998 11.4146 32.5 11.5517V13.6207C32.4998 13.7578 32.4433 13.8893 32.3429 13.9863C32.2425 14.0832 32.1063 14.1378 31.9643 14.1379H30.8929C30.7508 14.1378 30.6147 14.0832 30.5142 13.9863C30.4138 13.8893 30.3573 13.7578 30.3571 13.6207V11.5517C30.3573 11.4146 30.4138 11.2831 30.5142 11.1861C30.6147 11.0892 30.7508 11.0346 30.8929 11.0345ZM26.6071 11.0345H28.75C28.892 11.0346 29.0282 11.0892 29.1286 11.1861C29.2291 11.2831 29.2856 11.4146 29.2857 11.5517V12.5862C29.2856 12.7233 29.2291 12.8548 29.1286 12.9518C29.0282 13.0487 28.892 13.1033 28.75 13.1034H26.6071C26.4651 13.1033 26.3289 13.0487 26.2285 12.9518C26.1281 12.8548 26.0716 12.7233 26.0714 12.5862V11.5517C26.0716 11.4146 26.1281 11.2831 26.2285 11.1861C26.3289 11.0892 26.4651 11.0346 26.6071 11.0345ZM22.3214 11.0345H24.4643C24.6063 11.0346 24.7425 11.0892 24.8429 11.1861C24.9433 11.2831 24.9998 11.4146 25 11.5517V12.5862C24.9998 12.7233 24.9433 12.8548 24.8429 12.9518C24.7425 13.0487 24.6063 13.1033 24.4643 13.1034H22.3214C22.1794 13.1033 22.0432 13.0487 21.9428 12.9518C21.8424 12.8548 21.7859 12.7233 21.7857 12.5862V11.5517C21.7859 11.4146 21.8424 11.2831 21.9428 11.1861C22.0432 11.0892 22.1794 11.0346 22.3214 11.0345ZM18.5714 11.5517C18.5716 11.4146 18.6281 11.2831 18.7285 11.1861C18.8289 11.0892 18.9651 11.0346 19.1071 11.0345H20.1786C20.3206 11.0346 20.4568 11.0892 20.5572 11.1861C20.6576 11.2831 20.7141 11.4146 20.7143 11.5517V13.6207C20.7141 13.7578 20.6576 13.8893 20.5572 13.9863C20.4568 14.0832 20.3206 14.1378 20.1786 14.1379H19.1071C18.9651 14.1378 18.8289 14.0832 18.7285 13.9863C18.6281 13.8893 18.5716 13.7578 18.5714 13.6207V11.5517ZM19.1071 15.1724H20.1786V16.2069H19.1071V15.1724ZM17.3825 17.2414H21.9032L22.171 18.2759H17.1147L17.3825 17.2414ZM19.1071 38.9495C14.6296 38.6815 11.0714 35.0792 11.0714 30.6897C11.0715 28.7283 11.793 26.8306 13.1071 25.3349C13.1925 25.2379 13.2378 25.114 13.2344 24.9868L14.6027 19.7022C14.6316 19.5902 14.6984 19.4908 14.7926 19.4198C14.8868 19.3487 15.0029 19.3102 15.1224 19.3103H24.1635C24.283 19.3102 24.3991 19.3487 24.4933 19.4198C24.5875 19.4908 24.6543 19.5902 24.6832 19.7022L25.921 24.4828H19.7169C19.7044 24.4828 19.6921 24.4831 19.6796 24.4832C19.6672 24.4833 19.6552 24.4828 19.6429 24.4828V24.4837C16.1173 24.5217 13.2405 27.2696 13.2143 30.6425C13.2022 32.2072 13.8025 33.7187 14.8952 34.8743C15.9878 36.03 17.4921 36.7447 19.1071 36.8753V38.9495ZM23.6344 34.1347C23.1223 33.0535 22.8573 31.8785 22.8573 30.6895C22.8573 29.5006 23.1223 28.3256 23.6344 27.2443C24.5138 28.191 25.0001 29.4179 25.0001 30.6895C25.0001 31.9612 24.5138 33.1881 23.6344 34.1347ZM15.8406 34.3333C15.3409 33.85 14.946 33.2753 14.6791 32.6429C14.4121 32.0105 14.2784 31.3331 14.2857 30.6502C14.3075 27.8318 16.7237 25.5373 19.6795 25.5181C20.8051 25.5244 21.8997 25.8748 22.8063 26.5189C22.135 27.8137 21.7854 29.2416 21.7854 30.6896C21.7854 32.1375 22.135 33.5655 22.8063 34.8602C21.7725 35.5931 20.5005 35.943 19.2219 35.8463C17.9432 35.7496 16.7431 35.2127 15.8402 34.3333H15.8406ZM20.1786 36.8748C21.5094 36.7677 22.7726 36.263 23.7926 35.4307C24.8126 34.5985 25.5388 33.4802 25.8702 32.2311C26.2016 30.9821 26.1218 29.6644 25.6418 28.4611C25.1618 27.2579 24.3055 26.2289 23.192 25.5172H24.8898C25.9218 26.4928 26.6402 27.7354 26.9584 29.0956C27.2766 30.4559 27.1812 31.8759 26.6836 33.185C26.186 34.4942 25.3074 35.6367 24.1534 36.4753C22.9995 37.3139 21.6192 37.8129 20.1786 37.9123V36.8748ZM30.8929 38.9492C28.8888 38.8247 26.9928 38.0277 25.533 36.6961C26.0552 36.2186 26.5135 35.6799 26.8973 35.0927C27.968 36.1256 29.3842 36.7575 30.8929 36.8754V38.9492ZM27.4345 34.1366C27.9473 33.0584 28.2132 31.8861 28.2143 30.6997C28.2153 29.5132 27.9514 28.3405 27.4406 27.2615C27.9485 26.7147 28.5697 26.277 29.2639 25.9766C29.9581 25.6763 30.7099 25.52 31.4706 25.5179C32.3626 25.5245 33.2387 25.7461 34.0195 26.1625C34.8003 26.5789 35.461 27.1769 35.9418 27.9024C36.4225 28.6278 36.7081 29.4576 36.7725 30.3166C36.8369 31.1756 36.6782 32.0365 36.3107 32.8212C35.9432 33.6059 35.3785 34.2896 34.668 34.8103C33.9575 35.3309 33.1236 35.6721 32.242 35.8027C31.3603 35.9333 30.4588 35.8494 29.6193 35.5584C28.7798 35.2674 28.0288 34.7786 27.4345 34.1364V34.1366ZM31.9643 37.9123V36.8748C33.2939 36.7661 34.5557 36.2607 35.5746 35.4287C36.5935 34.5967 37.3191 33.4793 37.6509 32.2314C37.9828 30.9834 37.9044 29.6667 37.4266 28.4637C36.9488 27.2607 36.0953 26.231 34.9844 25.5172H36.6755C37.7076 26.4928 38.4259 27.7354 38.7441 29.0956C39.0623 30.4559 38.9669 31.8759 38.4693 33.185C37.9717 34.4942 37.0931 35.6367 35.9392 36.4753C34.7852 37.3139 33.4049 37.8129 31.9643 37.9123Z" fill="black"/>
<path d="M29.2857 23.4483C29.6036 23.4483 29.9143 23.3573 30.1786 23.1868C30.4429 23.0163 30.6489 22.7739 30.7705 22.4904C30.8922 22.2068 30.924 21.8948 30.862 21.5938C30.8 21.2928 30.6469 21.0163 30.4221 20.7993C30.1974 20.5823 29.911 20.4345 29.5993 20.3746C29.2875 20.3148 28.9644 20.3455 28.6707 20.4629C28.377 20.5804 28.126 20.7793 27.9494 21.0345C27.7728 21.2896 27.6786 21.5896 27.6786 21.8966C27.6791 22.308 27.8485 22.7024 28.1498 22.9933C28.4511 23.2842 28.8596 23.4478 29.2857 23.4483ZM29.2857 21.3793C29.3917 21.3793 29.4952 21.4096 29.5833 21.4665C29.6714 21.5233 29.7401 21.6041 29.7807 21.6986C29.8212 21.7931 29.8318 21.8971 29.8111 21.9975C29.7905 22.0978 29.7394 22.19 29.6645 22.2623C29.5896 22.3346 29.4941 22.3839 29.3902 22.4039C29.2863 22.4238 29.1786 22.4136 29.0807 22.3744C28.9828 22.3353 28.8992 22.269 28.8403 22.1839C28.7814 22.0989 28.75 21.9989 28.75 21.8966C28.7502 21.7594 28.8067 21.6279 28.9071 21.531C29.0075 21.434 29.1437 21.3795 29.2857 21.3793Z" fill="black"/>
<path d="M33.5714 23.4483C33.8893 23.4483 34.2 23.3573 34.4643 23.1868C34.7286 23.0163 34.9346 22.7739 35.0562 22.4904C35.1779 22.2068 35.2097 21.8948 35.1477 21.5938C35.0857 21.2928 34.9326 21.0163 34.7079 20.7993C34.4831 20.5823 34.1967 20.4345 33.885 20.3746C33.5732 20.3148 33.2501 20.3455 32.9564 20.4629C32.6627 20.5804 32.4117 20.7793 32.2351 21.0345C32.0585 21.2896 31.9643 21.5896 31.9643 21.8966C31.9648 22.308 32.1342 22.7024 32.4355 22.9933C32.7368 23.2842 33.1453 23.4478 33.5714 23.4483ZM33.5714 21.3793C33.6774 21.3793 33.781 21.4096 33.8691 21.4665C33.9572 21.5233 34.0258 21.6041 34.0664 21.6986C34.1069 21.7931 34.1175 21.8971 34.0969 21.9975C34.0762 22.0978 34.0252 22.19 33.9502 22.2623C33.8753 22.3346 33.7799 22.3839 33.6759 22.4039C33.572 22.4238 33.4643 22.4136 33.3664 22.3744C33.2685 22.3353 33.1849 22.269 33.126 22.1839C33.0671 22.0989 33.0357 21.9989 33.0357 21.8966C33.0359 21.7594 33.0924 21.6279 33.1928 21.531C33.2932 21.434 33.4294 21.3795 33.5714 21.3793Z" fill="black"/>
<path d="M17.5 23.4483C17.8179 23.4483 18.1286 23.3573 18.3929 23.1868C18.6572 23.0163 18.8632 22.7739 18.9848 22.4904C19.1065 22.2068 19.1383 21.8948 19.0763 21.5938C19.0143 21.2928 18.8612 21.0163 18.6364 20.7993C18.4117 20.5823 18.1253 20.4345 17.8135 20.3746C17.5018 20.3148 17.1786 20.3455 16.885 20.4629C16.5913 20.5804 16.3403 20.7793 16.1637 21.0345C15.9871 21.2896 15.8929 21.5896 15.8929 21.8966C15.8933 22.308 16.0628 22.7024 16.3641 22.9933C16.6654 23.2842 17.0739 23.4478 17.5 23.4483ZM17.5 21.3793C17.606 21.3793 17.7095 21.4096 17.7976 21.4665C17.8857 21.5233 17.9544 21.6041 17.9949 21.6986C18.0355 21.7931 18.0461 21.8971 18.0254 21.9975C18.0048 22.0978 17.9537 22.19 17.8788 22.2623C17.8039 22.3346 17.7084 22.3839 17.6045 22.4039C17.5006 22.4238 17.3929 22.4136 17.295 22.3744C17.1971 22.3353 17.1134 22.269 17.0546 22.1839C16.9957 22.0989 16.9643 21.9989 16.9643 21.8966C16.9644 21.7594 17.0209 21.6279 17.1214 21.531C17.2218 21.434 17.358 21.3795 17.5 21.3793Z" fill="black"/>
<path d="M21.7857 23.4483C22.1036 23.4483 22.4143 23.3573 22.6786 23.1868C22.9429 23.0163 23.1489 22.7739 23.2705 22.4904C23.3922 22.2068 23.424 21.8948 23.362 21.5938C23.3 21.2928 23.1469 21.0163 22.9221 20.7993C22.6974 20.5823 22.411 20.4345 22.0993 20.3746C21.7875 20.3148 21.4644 20.3455 21.1707 20.4629C20.877 20.5804 20.626 20.7793 20.4494 21.0345C20.2728 21.2896 20.1786 21.5896 20.1786 21.8966C20.1791 22.308 20.3485 22.7024 20.6498 22.9933C20.9511 23.2842 21.3596 23.4478 21.7857 23.4483ZM21.7857 21.3793C21.8917 21.3793 21.9952 21.4096 22.0833 21.4665C22.1714 21.5233 22.2401 21.6041 22.2807 21.6986C22.3212 21.7931 22.3318 21.8971 22.3111 21.9975C22.2905 22.0978 22.2394 22.19 22.1645 22.2623C22.0896 22.3346 21.9941 22.3839 21.8902 22.4039C21.7863 22.4238 21.6786 22.4136 21.5807 22.3744C21.4828 22.3353 21.3992 22.269 21.3403 22.1839C21.2814 22.0989 21.25 21.9989 21.25 21.8966C21.2502 21.7594 21.3067 21.6279 21.4071 21.531C21.5075 21.434 21.6437 21.3795 21.7857 21.3793Z" fill="black"/>
</svg>
