<svg width="24" height="20" viewBox="0 0 24 20" fill="none" xmlns="http://www.w3.org/2000/svg">
<path fill-rule="evenodd" clip-rule="evenodd" d="M2 0H7H17H22C23.1046 0 24 0.895431 24 2V5V5.97983C24 6.87824 23.4009 7.66641 22.5353 7.90687L21.9373 8.07296C19.9844 8.61545 19.9844 11.3846 21.9373 11.927L22.5353 12.0931C23.4009 12.3336 24 13.1218 24 14.0202V15V18C24 19.1046 23.1046 20 22 20H17H7H2C0.895431 20 0 19.1046 0 18V15V14.0202C0 13.1218 0.599074 12.3336 1.46471 12.0931L2.06267 11.927C4.01562 11.3846 4.01562 8.61545 2.06267 8.07296L1.46471 7.90687C0.599073 7.66641 0 6.87824 0 5.97983V5V2C0 0.895431 0.89543 0 2 0Z" fill="#15153F"/>
<circle cx="12" cy="10" r="2" fill="#FE1D5F"/>
<path d="M6 0C6 12.8889 6 18.7037 6 20" stroke="#FE1D5F" stroke-width="1.5" stroke-dasharray="2 2"/>
<path d="M18 0C18 12.8889 18 18.7037 18 20" stroke="#FE1D5F" stroke-width="1.5" stroke-dasharray="2 2"/>
</svg>
