<svg width="30" height="30" viewBox="0 0 30 30" fill="none" xmlns="http://www.w3.org/2000/svg">
<path d="M24.324 9.14468C24.3237 8.63048 24.2395 8.11978 24.0749 7.63268C21.0808 7.08817 18.0426 6.82279 14.9995 6.83995C11.9564 6.82279 8.91821 7.08817 5.9241 7.63268C5.75946 8.11978 5.67532 8.63048 5.675 9.14468C5.675 12.7563 9.84802 15.6866 14.9995 15.6866C20.151 15.6866 24.324 12.7563 24.324 9.14468Z" fill="white"/>
<path d="M14.9995 13.84C23.0388 13.84 29.556 11.9439 29.556 9.60487C29.556 7.26587 23.0388 5.36974 14.9995 5.36974C6.96018 5.36974 0.443024 7.26587 0.443024 9.60487C0.443024 11.9439 6.96018 13.84 14.9995 13.84Z" fill="#FE1D5F"/>
<path d="M21.5385 6.97275C21.5389 7.48181 21.4803 7.9892 21.3639 8.48476C19.2862 9.0264 17.1465 9.29291 14.9995 9.27749C12.8525 9.29291 10.7128 9.0264 8.63515 8.48476C8.42206 7.58636 8.40145 6.65301 8.57468 5.74606C8.74791 4.83912 9.11105 3.97913 9.64023 3.22263C10.1694 2.46613 10.8527 1.83025 11.645 1.3568C12.4374 0.883345 13.321 0.583039 14.2377 0.475623C15.1544 0.368207 16.0834 0.456115 16.9637 0.733567C17.844 1.01102 18.6556 1.47173 19.3452 2.08542C20.0348 2.6991 20.5867 3.45186 20.9648 4.2942C21.3428 5.13655 21.5383 6.0494 21.5385 6.97275Z" fill="white"/>
<path d="M24.3361 5.90162C24.2218 5.87428 24.1014 5.89349 24.0012 5.95502C23.9011 6.01655 23.8294 6.11537 23.8021 6.22972C23.7748 6.34408 23.794 6.46462 23.8555 6.56481C23.917 6.66501 24.0158 6.73665 24.1301 6.76399C27.8041 7.64207 29.1129 8.80761 29.1129 9.60565C29.1129 10.6423 26.9611 12.0454 22.1537 12.8434C19.7879 13.2214 17.3953 13.4062 14.9995 13.3958C12.6034 13.4055 10.2105 13.22 7.84454 12.8411C3.03762 12.0441 0.886046 10.641 0.886046 9.60439C0.886046 8.56219 3.13331 7.12237 8.04783 6.33293C8.02859 6.5439 8.01745 6.75715 8.01745 6.97294C8.0173 7.51617 8.07982 8.05761 8.20377 8.58651C8.22213 8.66414 8.26107 8.73539 8.31649 8.79276C8.37191 8.85012 8.44177 8.89147 8.5187 8.91246C8.98704 9.03909 9.47917 9.15509 9.98169 9.25336C10.0959 9.27344 10.2135 9.24789 10.3091 9.18221C10.4047 9.11653 10.4708 9.01594 10.4931 8.90207C10.5154 8.78819 10.4922 8.6701 10.4284 8.57317C10.3647 8.47623 10.2654 8.40819 10.1521 8.38364C9.76296 8.30766 9.3807 8.22104 9.01286 8.12607C8.9408 7.74593 8.90461 7.35985 8.90476 6.97294C8.90476 6.17205 9.06244 5.379 9.36879 4.63907C9.67515 3.89915 10.1242 3.22683 10.6902 2.66052C11.2563 2.0942 11.9283 1.64498 12.6679 1.33849C13.4075 1.032 14.2002 0.874254 15.0008 0.874254C15.8013 0.874254 16.594 1.032 17.3336 1.33849C18.0732 1.64498 18.7452 2.0942 19.3113 2.66052C19.8773 3.22683 20.3264 3.89915 20.6327 4.63907C20.9391 5.379 21.0968 6.17205 21.0968 6.97294C21.0969 7.35985 21.0607 7.74593 20.9887 8.12607C18.6937 8.6855 16.3311 8.91718 13.9712 8.81419C13.8537 8.80979 13.7392 8.85227 13.6531 8.93228C13.5669 9.01229 13.516 9.12327 13.5116 9.24082C13.5072 9.35837 13.5496 9.47285 13.6296 9.55908C13.7096 9.64532 13.8205 9.69623 13.938 9.70063C14.2907 9.7138 14.6468 9.72039 14.9995 9.72039C17.1858 9.73501 19.3645 9.46322 21.4803 8.91195C21.5572 8.89099 21.627 8.84967 21.6824 8.79236C21.7379 8.73504 21.7768 8.66384 21.7952 8.58625C22.0056 7.69212 22.0376 6.76526 21.8895 5.85873C21.7414 4.95219 21.416 4.08378 20.932 3.3032C20.448 2.52263 19.8149 1.84521 19.0689 1.30974C18.3229 0.774259 17.4786 0.391236 16.5845 0.182592C15.6903 -0.0260528 14.7638 -0.056222 13.8579 0.0938108C12.9521 0.243844 12.0848 0.571133 11.3055 1.05694C10.5263 1.54275 9.85045 2.17755 9.31673 2.92498C8.78302 3.67242 8.40189 4.51783 8.19517 5.41281C3.05737 6.19439 0 7.75275 0 9.60439C0 11.3912 2.76294 12.8802 7.58303 13.6964C9.44272 15.2442 12.1358 16.1311 14.9995 16.1311C17.8632 16.1311 20.5563 15.2447 22.417 13.6964C27.2373 12.8799 30 11.3917 30 9.60439C29.999 8.08858 27.9879 6.77311 24.3361 5.90162ZM9.60398 13.9821C11.3954 14.1842 13.1968 14.2844 14.9995 14.2822C16.8022 14.2845 18.6036 14.1843 20.395 13.9821C18.7244 14.8315 16.8734 15.2646 14.9995 15.2447C13.1256 15.2646 11.2746 14.8315 9.60398 13.9821Z" fill="black"/>
<path d="M19.1649 12.1439C19.1772 12.2606 19.235 12.3677 19.3259 12.442C19.4167 12.5162 19.5332 12.5516 19.65 12.5404C21.662 12.3658 23.6495 11.9754 25.5781 11.3759C25.6876 11.3374 25.7777 11.2576 25.8289 11.1535C25.8802 11.0494 25.8886 10.9293 25.8523 10.8191C25.8161 10.7089 25.7381 10.6173 25.635 10.5639C25.532 10.5106 25.4121 10.4998 25.3012 10.5339C23.4338 11.1135 21.5094 11.4906 19.5614 11.6586C19.5035 11.6645 19.4473 11.6816 19.396 11.7092C19.3448 11.7367 19.2994 11.7741 19.2626 11.8192C19.2258 11.8642 19.1982 11.9161 19.1815 11.9718C19.1647 12.0276 19.1591 12.086 19.1649 12.1439Z" fill="black"/>
<path d="M11.6907 8.63032C11.5742 8.61555 11.4565 8.64769 11.3636 8.71969C11.2707 8.79169 11.2102 8.89764 11.1954 9.01423C11.1807 9.13082 11.2128 9.24851 11.2848 9.34139C11.3568 9.43428 11.4628 9.49476 11.5794 9.50953C11.8291 9.54093 12.0823 9.56903 12.3388 9.59384C12.3532 9.59534 12.3677 9.5961 12.3821 9.59611C12.4959 9.59604 12.6053 9.55217 12.6877 9.47361C12.77 9.39504 12.8189 9.2878 12.8244 9.17412C12.8298 9.06045 12.7912 8.94905 12.7167 8.86303C12.6422 8.777 12.5374 8.72295 12.4241 8.71209C12.1764 8.68795 11.9319 8.6607 11.6907 8.63032Z" fill="black"/>
<path d="M7.74834 15.9986C7.63336 15.975 7.51371 15.9979 7.41553 16.0622C7.31734 16.1266 7.2486 16.2272 7.22431 16.3421L4.4882 29.4661C4.46424 29.5812 4.48694 29.7011 4.55131 29.7995C4.61568 29.8978 4.71646 29.9666 4.83148 29.9906C4.86138 29.9968 4.89183 30 4.92237 30C5.02409 29.9998 5.12267 29.9647 5.20158 29.9005C5.28049 29.8362 5.33492 29.7468 5.35577 29.6472L8.09162 16.5229C8.10352 16.4659 8.10407 16.4072 8.09326 16.35C8.08244 16.2928 8.06046 16.2383 8.02858 16.1896C7.9967 16.1409 7.95554 16.099 7.90746 16.0662C7.85937 16.0334 7.8053 16.0105 7.74834 15.9986Z" fill="black"/>
<path d="M22.7747 16.342C22.7636 16.2843 22.7411 16.2294 22.7085 16.1805C22.676 16.1316 22.6341 16.0896 22.5852 16.057C22.5363 16.0245 22.4814 16.002 22.4238 15.9908C22.3661 15.9797 22.3068 15.9801 22.2493 15.9921C22.1918 16.0041 22.1372 16.0274 22.0888 16.0606C22.0404 16.0939 21.9991 16.1365 21.9673 16.1859C21.9355 16.2353 21.9138 16.2905 21.9035 16.3484C21.8932 16.4062 21.8945 16.4655 21.9074 16.5229L24.6432 29.6472C24.6641 29.7468 24.7185 29.8362 24.7974 29.9005C24.8763 29.9647 24.9749 29.9998 25.0766 30C25.1072 30 25.1376 29.9968 25.1675 29.9906C25.2825 29.9666 25.3833 29.8978 25.4477 29.7995C25.5121 29.7011 25.5348 29.5812 25.5108 29.4661L22.7747 16.342Z" fill="black"/>
<path d="M18.1774 16.7465C18.1193 16.7503 18.0625 16.7655 18.0103 16.7912C17.9581 16.8169 17.9115 16.8526 17.8731 16.8964C17.8347 16.9401 17.8053 16.991 17.7866 17.0461C17.7679 17.1012 17.7602 17.1595 17.764 17.2176L18.5657 29.5854C18.573 29.6977 18.6227 29.803 18.7047 29.88C18.7867 29.957 18.895 29.9999 19.0075 30H19.0366C19.0946 29.9962 19.1514 29.9811 19.2036 29.9553C19.2558 29.9296 19.3024 29.8939 19.3408 29.8501C19.3792 29.8064 19.4086 29.7555 19.4273 29.7004C19.4461 29.6453 19.4537 29.587 19.45 29.5289L18.6482 17.1601C18.6447 17.1019 18.6297 17.045 18.604 16.9927C18.5784 16.9404 18.5427 16.8936 18.4989 16.8552C18.4551 16.8167 18.4042 16.7873 18.349 16.7687C18.2938 16.75 18.2355 16.7425 18.1774 16.7465Z" fill="black"/>
<path d="M11.8216 16.7465C11.7636 16.7427 11.7053 16.7503 11.6502 16.769C11.5951 16.7877 11.5442 16.8172 11.5004 16.8556C11.4567 16.894 11.421 16.9407 11.3953 16.9929C11.3696 17.0452 11.3545 17.102 11.3508 17.1601L10.549 29.5279C10.5452 29.586 10.5529 29.6443 10.5717 29.6994C10.5904 29.7545 10.6198 29.8054 10.6582 29.8491C10.6966 29.8929 10.7432 29.9286 10.7954 29.9543C10.8476 29.98 10.9044 29.9952 10.9624 29.999H10.9915C11.104 29.9989 11.2123 29.956 11.2943 29.879C11.3763 29.802 11.426 29.6967 11.4333 29.5844L12.235 17.2176C12.2388 17.1595 12.2311 17.1012 12.2124 17.0461C12.1937 16.991 12.1643 16.9401 12.1259 16.8964C12.0875 16.8526 12.0409 16.8169 11.9887 16.7912C11.9365 16.7655 11.8797 16.7503 11.8216 16.7465Z" fill="black"/>
</svg>
