<svg width="24" height="24" viewBox="0 0 24 24" fill="none" xmlns="http://www.w3.org/2000/svg">
<path d="M14.7078 17.5C14.7078 19.0162 13.5862 20.25 12.2079 20.25H9.91642C9.57051 20.25 9.26062 20.0153 9.13809 19.6597L3.09655 2.24307C2.99828 1.96159 3.03322 1.64537 3.18825 1.39696C3.34404 1.14854 3.60068 1 3.87488 1H12.2079C13.5862 1 14.7078 2.23384 14.7078 3.75V17.5Z" fill="#FFC956"/>
<path d="M9.70808 4.66661V21.1666C9.70808 21.7992 9.24148 22.3125 8.66655 22.3125C8.54982 22.3125 8.44148 22.2942 8.33315 22.2574L3.33329 20.4242C2.92498 20.2683 2.625 19.8374 2.625 19.3334V2.83339C2.625 2.20077 3.0916 1.6875 3.66669 1.6875C3.78326 1.6875 3.8916 1.7058 3.99993 1.74255L8.99979 3.57577C9.4081 3.7317 9.70808 4.16257 9.70808 4.66661V4.66661Z" fill="#FFC956" stroke="#020080" stroke-width="0.5"/>
<path d="M8.13569 22.9094L3.12912 21.0734C2.45333 20.8167 2 20.1173 2 19.3336V2.83363C2 1.62631 3.06747 0.708689 4.19751 1.09104L9.20393 2.92712C9.87972 3.18376 10.333 3.88317 10.333 4.66685V21.1668C10.333 22.178 9.58569 23.0002 8.66653 23.0002C8.48816 23.0002 8.31894 22.9719 8.13569 22.9094ZM3.24996 2.83363V19.3336C3.24996 19.5288 3.36837 19.7103 3.53072 19.7727L8.51654 21.6014C8.78737 21.6912 9.08308 21.4777 9.08308 21.1668V4.66685C9.08308 4.47164 8.96483 4.2902 8.80233 4.22776L3.81574 2.40008C3.76585 2.38262 3.71916 2.37524 3.66667 2.37524C3.43657 2.37524 3.24996 2.58052 3.24996 2.83363Z" fill="#FFC956" stroke="#020080" stroke-width="0.5"/>
<path d="M21.3744 11.3125H13.4579C13.1129 11.3125 12.8329 11.0045 12.8329 10.625C12.8329 10.2455 13.1129 9.9375 13.4579 9.9375H21.3744C21.7194 9.9375 21.9993 10.2455 21.9993 10.625C21.9993 11.0045 21.7194 11.3125 21.3744 11.3125Z" fill="#020080" stroke="#020080" stroke-width="0.5"/>
<path d="M18.2496 14.7504C18.0895 14.7504 17.9296 14.6834 17.8079 14.5488C17.5637 14.2801 17.5637 13.8447 17.8079 13.5762L20.4912 10.6246L17.8079 7.67282C17.5637 7.40427 17.5637 6.96888 17.8079 6.70032C18.0521 6.4316 18.4479 6.4316 18.6921 6.70032L21.817 10.1378C22.0611 10.4064 22.0611 10.8418 21.817 11.1103L18.6921 14.5478C18.5696 14.6834 18.4096 14.7504 18.2496 14.7504V14.7504Z" fill="#020080" stroke="#020080" stroke-width="0.5"/>
<path d="M8.66653 23C8.48816 23 8.31894 22.9725 8.14988 22.9147L3.13492 21.0768C2.45256 20.8146 2 20.1152 2 19.3334V2.83339C2 1.82228 2.74751 1 3.66667 1C3.84489 1 4.0141 1.02753 4.18332 1.08527L9.19813 2.92319C9.88063 3.18536 10.333 3.88478 10.333 4.66661V21.1666C10.333 22.1777 9.58569 23 8.66653 23ZM3.66667 2.375C3.43749 2.375 3.24996 2.58128 3.24996 2.83339V19.3334C3.24996 19.5286 3.36913 19.71 3.53911 19.7752L8.53057 21.6049C8.56643 21.6176 8.61312 21.625 8.66653 21.625C8.89571 21.625 9.08308 21.4187 9.08308 21.1666V4.66661C9.08308 4.4714 8.96391 4.28996 8.79393 4.22484L3.80247 2.39514C3.76661 2.38239 3.71992 2.375 3.66667 2.375V2.375Z" fill="#020080"/>
<path d="M14.7079 8.33339C14.3629 8.33339 14.0829 8.02539 14.0829 7.64589V3.52089C14.0829 2.88928 13.6155 2.375 13.0413 2.375H3.66661C3.32162 2.375 3.04163 2.067 3.04163 1.6875C3.04163 1.308 3.32162 1 3.66661 1H13.0413C14.3055 1 15.3328 2.13028 15.3328 3.52089V7.64589C15.3328 8.02539 15.0528 8.33339 14.7079 8.33339Z" fill="#020080" stroke="#020080" stroke-width="0.5"/>
<path d="M13.0413 20.2501H9.70799C9.363 20.2501 9.08301 19.9421 9.08301 19.5626C9.08301 19.1831 9.363 18.8751 9.70799 18.8751H13.0413C13.6155 18.8751 14.0829 18.3609 14.0829 17.7292V13.6042C14.0829 13.2247 14.3629 12.9167 14.7079 12.9167C15.0528 12.9167 15.3328 13.2247 15.3328 13.6042V17.7292C15.3328 19.1199 14.3055 20.2501 13.0413 20.2501V20.2501Z" fill="#020080" stroke="#020080" stroke-width="0.5"/>
</svg>
