<svg xmlns="http://www.w3.org/2000/svg" width="483.015" height="500" viewBox="0 0 483.015 500"><g transform="translate(10 5.515)"><g transform="translate(0 4.485)"><path d="M433.957,14.226l19.026,38.55,42.543,6.182a7.566,7.566,0,0,1,4.193,12.9L468.935,101.87l7.267,42.371a7.566,7.566,0,0,1-10.977,7.976l-38.052-20.005-38.052,20.005a7.566,7.566,0,0,1-10.977-7.976l7.267-42.371L354.627,71.863a7.566,7.566,0,0,1,4.193-12.9l42.543-6.182,19.026-38.55a7.565,7.565,0,0,1,13.568,0Z" transform="translate(-44.016 75.653)" fill="#fe1d5f"/><path d="M406.072,381.075c-134.64,0-243.787-103.92-243.787-232.112A223.607,223.607,0,0,1,207.347,14.486C94.921,35.135,10,129.3,10,242.373c0,128.192,109.147,232.112,243.787,232.112,81.995,0,154.535-38.542,198.725-97.635A256.9,256.9,0,0,1,406.072,381.075Z" transform="translate(0 -4.485)" fill="#fe1d5f"/><g transform="translate(0 -4.485)" fill="#15153f"><path d="M 253.7962341308594 489.4849548339844 C 184.7129058837891 489.4849548339844 119.7535095214844 463.8093566894531 70.88417053222656 417.1878967285156 C 21.9495735168457 370.5062255859375 -4.999959945678711 308.4205627441406 -4.999959945678711 242.3679046630859 C -4.999959945678711 124.1250991821289 83.13063812255859 22.08516883850098 204.5550384521484 -0.2602984309196472 C 205.4711761474609 -0.4292317628860474 206.4091796875 -0.5150317549705505 207.34130859375 -0.5150317549705505 C 209.7810363769531 -0.5150317549705505 212.2095031738281 0.07443489879369736 214.3641662597656 1.189568281173706 C 216.5687713623047 2.330568313598633 218.4567718505859 4.006568431854248 219.8241119384766 6.036368370056152 C 221.4822387695313 8.497835159301758 222.3200378417969 11.35276794433594 222.2469024658203 14.29250144958496 C 222.1739044189453 17.22970199584961 221.1967010498047 20.04016876220703 219.4209136962891 22.42010116577148 C 191.7812347412109 59.45236968994141 177.1719665527344 103.132438659668 177.1719665527344 148.7385711669922 C 177.1719665527344 269.055419921875 279.8867797851563 366.9403076171875 406.140380859375 366.9403076171875 C 420.7688293457031 366.9403076171875 435.4635620117188 365.6011047363281 449.8163146972656 362.9598388671875 C 450.7325744628906 362.7910461425781 451.6697692871094 362.7054443359375 452.6011657714844 362.7054443359375 C 455.0406494140625 362.7054443359375 457.4690551757813 363.2947082519531 459.6237182617188 364.4095153808594 C 461.8286437988281 365.55029296875 463.7171020507813 367.2261657714844 465.0848999023438 369.2557678222656 C 466.7434997558594 371.7179565429688 467.5813598632813 374.5728454589844 467.50830078125 377.5126342773438 C 467.435302734375 380.4498291015625 466.4580993652344 383.2603149414063 464.6823120117188 385.6402282714844 C 441.2178955078125 417.078369140625 409.9468994140625 443.1863708496094 374.2495727539063 461.1423645019531 C 337.3815612792969 479.6842956542969 295.7295837402344 489.4849548339844 253.7961730957031 489.4849548339844 L 253.7962341308594 489.4849548339844 Z M 175.0007781982422 37.43642044067383 C 85.97882080078125 68.56660461425781 24.82784080505371 151.1525421142578 24.82784080505371 242.3679046630859 C 24.82784080505371 362.6847534179688 127.5426406860352 460.5696411132813 253.7962341308594 460.5696411132813 C 315.1062927246094 460.5696411132813 373.7695007324219 437.0511779785156 416.7309265136719 395.6459350585938 C 413.1912841796875 395.7842102050781 409.6544799804688 395.853759765625 406.140380859375 395.853759765625 C 337.0577697753906 395.853759765625 272.0980529785156 370.1785583496094 223.2274475097656 323.5577697753906 C 174.2927093505859 276.8758239746094 147.3431701660156 214.7898406982422 147.3431701660156 148.7366333007813 C 147.3437042236328 127.1503677368164 150.247314453125 105.7523651123047 155.9733123779297 85.13697052001953 C 160.5485992431641 68.66457366943359 166.9315948486328 52.67025375366211 175.0007781982422 37.43642044067383 Z" stroke="none"/><path d="M 253.7962036132813 484.4849548339844 C 294.9547729492188 484.4849548339844 335.8308410644531 474.8674621582031 372.0027770996094 456.6755981445313 C 407.0108337402344 439.0663146972656 437.6726379394531 413.4690246582031 460.6749267578125 382.6501770019531 C 463.0254821777344 379.4998168945313 463.1295471191406 375.3025207519531 460.9385681152344 372.0500183105469 C 459.0921936035156 369.310302734375 455.9306945800781 367.7054443359375 452.6011657714844 367.7054443359375 C 451.9779968261719 367.7054443359375 451.3486633300781 367.7616882324219 450.7212829589844 367.8772583007813 C 436.0684814453125 370.5736694335938 421.0697631835938 371.9403076171875 406.1403503417969 371.9403076171875 C 277.1306457519531 371.9403076171875 172.1719818115234 271.8125305175781 172.1719818115234 148.738525390625 C 172.1719818115234 102.0468139648438 187.1241302490234 57.33274459838867 215.4134826660156 19.43003082275391 C 217.7641296386719 16.27967262268066 217.8681945800781 12.08238697052002 215.6772003173828 8.829887390136719 C 213.8318176269531 6.090354919433594 210.6711273193359 4.484980583190918 207.3413238525391 4.484980583190918 C 206.7178192138672 4.484980583190918 206.0877532958984 4.541361331939697 205.4599914550781 4.657101631164551 C 86.40869903564453 26.56588745117188 -1.215471547766356e-05 126.5375289916992 -1.215471547766356e-05 242.3678894042969 C -1.215471547766356e-05 307.0396118164063 26.39877319335938 367.8403930664063 74.33555603027344 413.5701599121094 C 122.2712707519531 459.301025390625 186.0049133300781 484.4849548339844 253.7962036132813 484.4849548339844 M 185.6122741699219 28.80074501037598 C 163.7798461914063 65.20346069335938 152.3441314697266 106.2176742553711 152.3431243896484 148.7366790771484 C 152.3431243896484 213.4093170166016 178.7419128417969 274.2099609375 226.6786956787109 319.9399719238281 C 274.6154174804688 365.6698303222656 338.3490600585938 390.8537292480469 406.1403503417969 390.8537292480469 C 413.8989868164063 390.8537292480469 421.6734924316406 390.5133056640625 429.4172668457031 389.8370971679688 C 385.2319030761719 437.6240234375 321.2039184570313 465.5696105957031 253.7962036132813 465.5696105957031 C 124.7854843139648 465.5696105957031 19.82784461975098 365.44189453125 19.82784461975098 242.3678894042969 C 19.82784461975098 143.4063110351563 88.24177551269531 57.00174331665039 185.6122741699219 28.80074501037598 M 253.7962036132813 494.4849548339844 C 183.4215545654297 494.4849548339844 117.2364196777344 468.3184509277344 67.43284606933594 420.8056640625 C 17.49955940246582 373.1713256835938 -10.00001239776611 309.8008117675781 -10.00001239776611 242.3678894042969 C -10.00001239776611 121.7123870849609 79.85284423828125 17.60445785522461 203.6501312255859 -5.177755355834961 C 204.8799896240234 -5.404469966888428 206.1171264648438 -5.515041351318359 207.3413391113281 -5.515041351318359 C 214.0601959228516 -5.515041351318359 220.2769165039063 -2.240969896316528 223.9710540771484 3.243101596832275 C 228.5108489990234 9.982387542724609 228.2927703857422 18.89074516296387 223.4282684326172 25.41024398803711 C 196.4379119873047 61.57260131835938 182.1719818115234 104.2183837890625 182.1719818115234 148.738525390625 C 182.1719818115234 266.2984008789063 282.6437683105469 361.9403076171875 406.1403503417969 361.9403076171875 C 420.4658508300781 361.9403076171875 434.8561401367188 360.6288757324219 448.9114074707031 358.0423889160156 C 450.1415710449219 357.8157348632813 451.3774108886719 357.7054443359375 452.6011352539063 357.7054443359375 C 459.3194274902344 357.7054443359375 465.5362854003906 360.9787292480469 469.231201171875 366.4614562988281 C 473.772216796875 373.2024536132813 473.55419921875 382.1108093261719 468.6897583007813 388.6303100585938 C 444.7630004882813 420.6878051757813 412.8833312988281 447.3062438964844 376.4964294433594 465.6091003417969 C 338.9346313476563 484.4999694824219 296.5057678222656 494.4849548339844 253.7962036132813 494.4849548339844 Z M 164.8625335693359 46.65133285522461 C 84.26009368896484 79.99996185302734 29.82784461975098 157.3543243408203 29.82784461975098 242.3678894042969 C 29.82784461975098 359.927734375 130.2996368408203 455.5696105957031 253.7962036132813 455.5696105957031 C 309.3259887695313 455.5696105957031 362.6221008300781 435.8757019042969 403.5747985839844 400.8421325683594 C 334.157958984375 400.2149353027344 268.9761352539063 374.110595703125 219.7761383056641 327.1755981445313 C 169.8426971435547 279.5408935546875 142.3431243896484 216.1700286865234 142.3431243896484 148.7366790771484 C 142.3439331054688 113.4303436279297 150.0751190185547 78.59348297119141 164.8625335693359 46.65133285522461 Z" stroke="none" fill="#15153f"/></g><g transform="translate(298.312 75.591)"><path d="M468.761,163.1a17.56,17.56,0,0,1-8.19-2.037l-33.4-17.558-33.4,17.558a17.566,17.566,0,0,1-25.487-18.517l6.378-37.189-27.02-26.338a17.565,17.565,0,0,1,9.735-29.961l37.34-5.426L411.421,9.8a17.565,17.565,0,0,1,31.5,0l16.7,33.836,37.34,5.426A17.565,17.565,0,0,1,506.7,79.023l-27.02,26.338,6.379,37.189a17.6,17.6,0,0,1-17.3,20.554ZM365.139,68.144l27.252,26.565a10,10,0,0,1,2.876,8.851l-6.433,37.51,33.686-17.709a10,10,0,0,1,9.307,0l33.686,17.709-6.434-37.51a10,10,0,0,1,2.876-8.852l27.252-26.564-37.662-5.473a10,10,0,0,1-7.529-5.47L427.173,23.074,410.33,57.2a10,10,0,0,1-7.529,5.47Z" transform="translate(-342.328 -0.008)" fill="#15153f" stroke="#15153f" stroke-width="10"/></g><g transform="translate(141.114 352)"><ellipse cx="25" cy="25" rx="25" ry="25" fill="#fe1d5f"/><ellipse cx="16.667" cy="16.667" rx="16.667" ry="16.667" transform="translate(89.214 36.419)" fill="#fe1d5f"/></g></g></g></svg>