<svg width="30" height="30" viewBox="0 0 30 30" fill="none" xmlns="http://www.w3.org/2000/svg">
<path d="M18.2999 7.33218C19.5488 7.33218 20.5613 5.86608 20.5613 4.05755C20.5613 2.24902 19.5488 0.782913 18.2999 0.782913C17.051 0.782913 16.0386 2.24902 16.0386 4.05755C16.0386 5.86608 17.051 7.33218 18.2999 7.33218Z" fill="white"/>
<path d="M8.92288 29.2359L8.85252 28.6319C8.77212 27.9697 8.68167 27.3002 8.56609 26.5216L8.43543 25.641H22.1744L21.9784 26.5798C21.835 27.2588 21.7176 27.9488 21.6266 28.6464L21.5512 29.2431L8.92288 29.2359Z" fill="white"/>
<path d="M2.76197 15.5915C4.01088 15.5915 5.02331 14.1254 5.02331 12.3169C5.02331 10.5084 4.01088 9.04227 2.76197 9.04227C1.51306 9.04227 0.500626 10.5084 0.500626 12.3169C0.500626 14.1254 1.51306 15.5915 2.76197 15.5915Z" fill="white"/>
<path d="M27.2448 21.122C28.4937 21.122 29.5061 19.6559 29.5061 17.8474C29.5061 16.0389 28.4937 14.5728 27.2448 14.5728C25.9959 14.5728 24.9834 16.0389 24.9834 17.8474C24.9834 19.6559 25.9959 21.122 27.2448 21.122Z" fill="white"/>
<path d="M8.42538 25.641L8.3299 25.0952C7.32486 19.5211 5.89267 16.3629 4.8424 14.631L4.61627 14.2817L4.77708 13.8378C5.00371 13.2123 5.07978 12.4953 4.99316 11.8002L4.90773 11.0725L5.41025 10.9634C5.73124 10.8924 6.05543 10.856 6.38012 10.8542C8.42632 10.9288 10.3397 12.3383 11.5862 14.6892C11.806 10.8316 13.3353 7.38431 15.6667 5.49111L16.0989 5.11999L16.3552 5.74581C16.6311 6.42984 17.0683 6.9466 17.5863 7.2012L17.9431 7.37585V7.92162C17.7924 13.081 19.8627 15.4969 19.9532 15.5988C20.8133 15.0199 21.7486 14.7124 22.697 14.6965C23.4885 14.7 24.2713 14.9352 24.9985 15.3878L25.501 15.6934L25.2498 16.4211C25.0844 16.8819 24.9983 17.3936 24.9985 17.9129C24.9995 18.2669 25.0402 18.6184 25.1191 18.9535L25.2297 19.4338L24.9583 19.754C23.7649 21.2041 22.8538 23.0803 22.3151 25.1971L22.1894 25.6628L8.42538 25.641Z" fill="#FE1D5F"/>
<path d="M27.2448 13.8451C26.5771 13.845 25.9323 14.1967 25.4307 14.8347C23.7274 13.6643 21.7579 13.6166 20.0286 14.7038C18.8831 12.8981 18.2984 10.4918 18.4105 8.04533C19.9441 7.959 21.139 6.08873 21.0794 3.86798C21.0198 1.64714 19.7283 -0.0832287 18.1947 0.00309435C16.6611 0.0894174 15.4661 1.95969 15.5257 4.18044C15.5303 4.34899 15.5421 4.517 15.5612 4.68337C13.3376 6.40628 11.7565 9.46879 11.2445 13.0446C9.63262 10.744 7.35488 9.70684 5.12381 10.2575C4.32895 8.37043 2.62817 7.7738 1.32501 8.92484C0.0218468 10.0759 -0.390157 12.5388 0.404705 14.4259C1.19957 16.313 2.90035 16.9096 4.20351 15.7585C4.33888 15.639 4.46689 15.5028 4.58612 15.3514C5.94795 17.6291 7.60124 21.8279 8.42035 29.3887C8.46018 29.7445 8.67393 30.0046 8.92287 29.9999H21.5361C21.7917 30.0026 22.008 29.7271 22.0387 29.3596C22.0387 29.3013 22.5412 23.5817 25.104 20.4453C26.0754 22.1504 27.8174 22.3923 28.9949 20.9856C30.1723 19.579 30.3394 17.0564 29.368 15.3513C28.8404 14.4252 28.0536 13.8911 27.2246 13.896L27.2448 13.8451ZM2.76197 14.8638C1.79059 14.8638 1.00314 13.7235 1.00314 12.3169C1.00314 10.9103 1.79059 9.76997 2.76197 9.76997C3.73334 9.76997 4.52079 10.9103 4.52079 12.3169C4.52079 13.7235 3.73334 14.8638 2.76197 14.8638ZM18.2999 1.51061C19.2713 1.51061 20.0587 2.65091 20.0587 4.05755C20.0587 5.46419 19.2713 6.60449 18.2999 6.60449C17.3285 6.60449 16.5411 5.46419 16.5411 4.05755C16.5411 2.65091 17.3285 1.51061 18.2999 1.51061ZM21.1341 28.5082H9.34499C9.25454 27.7805 9.15906 27.0528 9.05353 26.3615H21.4959C21.3481 27.0669 21.2273 27.7836 21.1341 28.5082ZM24.4809 17.8474C24.4813 18.2806 24.5305 18.7107 24.6266 19.1209C23.3686 20.6812 22.4112 22.6869 21.8477 24.9424H8.81734C7.84748 19.3756 6.42032 16.0791 5.21929 14.1434C5.49643 13.3771 5.59009 12.4992 5.48563 11.6474C9.03845 10.8761 11.0887 14.9002 11.1792 15.0822C11.3404 15.4093 11.6542 15.4854 11.8801 15.252C11.9993 15.1289 12.0755 14.9366 12.0888 14.7256C12.2864 11.0977 13.726 7.85467 15.923 6.08782C16.2621 6.92085 16.7974 7.54867 17.4305 7.85613C17.2647 13.3648 19.5261 16.0209 19.6316 16.13C19.7751 16.2905 19.9671 16.3267 20.1341 16.2246C21.588 15.1857 23.2813 15.1087 24.7774 16.0136C24.5785 16.5817 24.4768 17.2106 24.4809 17.8474ZM27.2448 20.3943C26.2734 20.3943 25.486 19.254 25.486 17.8474C25.486 16.4408 26.2734 15.3005 27.2448 15.3005C28.2162 15.3005 29.0036 16.4408 29.0036 17.8474C29.0036 19.254 28.2162 20.3943 27.2448 20.3943Z" fill="black"/>
</svg>
