<svg width="24" height="24" viewBox="0 0 24 24" fill="none" xmlns="http://www.w3.org/2000/svg">
<path d="M14.835 17.1495C14.835 18.5416 13.7021 19.6745 12.3101 19.6745H9.99566C9.64629 19.6745 9.33329 19.459 9.20954 19.1325L3.1076 3.14133C3.00835 2.88289 3.04364 2.59255 3.20021 2.36447C3.35756 2.13639 3.61677 2 3.89371 2H12.3101C13.7021 2 14.835 3.13286 14.835 4.52492V17.1495Z" fill="#FFC956" stroke="#020080" stroke-width="0.5"/>
<path d="M9.78513 5.36663V20.5162C9.78513 21.097 9.31386 21.5683 8.73318 21.5683C8.61528 21.5683 8.50587 21.5515 8.39645 21.5177L3.3466 19.8345C2.9342 19.6914 2.63123 19.2958 2.63123 18.833V3.68345C2.63123 3.10261 3.10249 2.63135 3.68333 2.63135C3.80107 2.63135 3.91049 2.64815 4.0199 2.6819L9.06975 4.36508C9.48215 4.50824 9.78513 4.90384 9.78513 5.36663V5.36663Z" fill="#FFC956" stroke="#020080" stroke-width="0.5"/>
<path d="M8.19703 22.1165L3.14041 20.4307C2.45786 20.1951 2 19.5529 2 18.8334V3.68381C2 2.57531 3.07815 1.73279 4.21948 2.08385L9.27595 3.76965C9.9585 4.00529 10.4164 4.64746 10.4164 5.36699V20.5165C10.4164 21.4449 9.66153 22.1999 8.73318 22.1999C8.55303 22.1999 8.38212 22.1738 8.19703 22.1165ZM3.26246 3.68381V18.8334C3.26246 19.0126 3.38205 19.1792 3.54602 19.2365L8.58169 20.9155C8.85523 20.998 9.1539 20.8019 9.1539 20.5165V5.36699C9.1539 5.18776 9.03446 5.02117 8.87034 4.96384L3.8339 3.28575C3.7835 3.26972 3.73635 3.26294 3.68333 3.26294C3.45094 3.26294 3.26246 3.45142 3.26246 3.68381Z" fill="#FFC956" stroke="#020080" stroke-width="0.5"/>
<path d="M21.568 11.4685H13.5724C13.224 11.4685 12.9412 11.1857 12.9412 10.8373C12.9412 10.4888 13.224 10.2061 13.5724 10.2061H21.568C21.9165 10.2061 22.1993 10.4888 22.1993 10.8373C22.1993 11.1857 21.9165 11.4685 21.568 11.4685Z" fill="#020080" stroke="#020080" stroke-width="0.5"/>
<path d="M18.412 14.6249C18.2503 14.6249 18.0888 14.5634 17.9658 14.4398C17.7192 14.193 17.7192 13.7933 17.9658 13.5467L20.676 10.8367L17.9658 8.12654C17.7192 7.87996 17.7192 7.4802 17.9658 7.23363C18.2125 6.9869 18.6123 6.9869 18.8589 7.23363L22.015 10.3898C22.2616 10.6364 22.2616 11.0361 22.015 11.2827L18.8589 14.4388C18.7351 14.5634 18.5736 14.6249 18.412 14.6249V14.6249Z" fill="#020080" stroke="#020080" stroke-width="0.5"/>
<path d="M8.73318 22.1994C8.55303 22.1994 8.38212 22.1741 8.21137 22.1211L3.14626 20.4336C2.45709 20.1929 2 19.5507 2 18.8329V3.68333C2 2.75498 2.75498 2 3.68333 2C3.86333 2 4.03424 2.02527 4.20515 2.07829L9.2701 3.76578C9.95943 4.0065 10.4164 4.64867 10.4164 5.36651V20.5161C10.4164 21.4444 9.66153 22.1994 8.73318 22.1994ZM3.68333 3.26246C3.45186 3.26246 3.26246 3.45186 3.26246 3.68333V18.8329C3.26246 19.0121 3.38282 19.1787 3.5545 19.2385L8.59587 20.9184C8.63208 20.9302 8.67924 20.9369 8.73318 20.9369C8.96465 20.9369 9.1539 20.7475 9.1539 20.5161V5.36651C9.1539 5.18729 9.03354 5.02069 8.86186 4.9609L3.82049 3.28096C3.78428 3.26924 3.73712 3.26246 3.68333 3.26246V3.26246Z" fill="#020080"/>
<path d="M14.835 8.73318C14.4866 8.73318 14.2038 8.45039 14.2038 8.10195V4.31457C14.2038 3.73465 13.7317 3.26246 13.1518 3.26246H3.68335C3.33491 3.26246 3.05212 2.97967 3.05212 2.63123C3.05212 2.28279 3.33491 2 3.68335 2H13.1518C14.4286 2 15.4662 3.03777 15.4662 4.31457V8.10195C15.4662 8.45039 15.1834 8.73318 14.835 8.73318Z" fill="#020080"/>
<path d="M13.1517 19.6746H9.78504C9.4366 19.6746 9.15381 19.3918 9.15381 19.0434C9.15381 18.6949 9.4366 18.4121 9.78504 18.4121H13.1517C13.7316 18.4121 14.2037 17.9399 14.2037 17.36V13.5726C14.2037 13.2242 14.4865 12.9414 14.8349 12.9414C15.1833 12.9414 15.4661 13.2242 15.4661 13.5726V17.36C15.4661 18.6368 14.4285 19.6746 13.1517 19.6746V19.6746Z" fill="#020080"/>
</svg>
