<svg width="324" height="324" viewBox="0 0 324 324" fill="none" xmlns="http://www.w3.org/2000/svg">
<path d="M36.5351 287.08C36.1605 286.735 36.1605 286.735 35.786 286.735L27.9197 288.805L21.5518 290.185L24.5485 277.42C24.5485 277.075 24.5485 276.73 24.5485 276.73L16.6823 266.035L30.9164 265C31.291 265 31.6656 265 31.6656 264.655L40.2809 254.304L45.8997 266.38C45.8997 266.725 46.2743 266.725 46.6488 267.07L59.7592 271.555L48.8963 279.835C48.5217 280.18 48.5217 280.18 48.5217 280.525L48.1472 293.635L36.5351 287.08Z" fill="#FE1D5F"/>
<path d="M197.271 296.381C131.945 296.381 74.5033 256.205 56.4824 198.366C34.7072 126.673 80.1348 52.5555 157.474 32.4675C168.738 29.6968 180.376 27.9651 191.639 27.6187H196.52C202.527 27.6187 208.534 27.9651 214.165 28.6578L223.551 29.6968L216.042 34.8919C194.643 49.4384 178.123 69.1799 167.987 91.6923C156.724 116.629 154.846 144.683 162.731 171.005C177.748 220.878 225.804 256.205 285.122 261.401L294.508 262.093L287.375 267.288C261.845 285.991 229.934 296.381 197.271 296.381Z" fill="#FE1D5F"/>
<path d="M239.819 182.747C239.445 182.403 239.445 182.403 239.07 182.403L224.087 182.058L221.839 181.713L219.592 178.611L220.716 176.543L228.207 164.822C228.207 164.478 228.207 164.133 228.207 163.788L223.712 149.655L225.96 144.829L243.565 148.621H244.314C244.689 148.621 244.689 148.621 245.064 148.277L258.174 140.004L263.418 139.659L265.291 156.894C265.291 157.239 265.666 157.584 265.666 157.584L278.776 166.891L279.525 171.027L276.903 172.406L263.044 177.921C262.669 177.921 262.669 178.266 262.294 178.611L257.05 192.054L253.304 195.846L239.819 182.747Z" fill="#FE1D5F"/>
<path d="M259.485 74.5555C259.485 74.2135 259.485 73.8715 259.11 73.8715L248.622 65.3212L261.732 60.8751C262.107 60.8751 262.107 60.5331 262.482 60.1911L268.1 48.2207L276.716 58.481C277.09 58.823 277.09 58.823 277.465 58.823L291.699 59.8491L283.458 71.1354C283.458 71.4774 283.458 71.8194 283.458 71.8194L286.455 84.4738L272.97 81.0537H272.595C272.221 81.0537 272.221 81.0537 271.846 81.0537L259.86 87.5518L259.485 74.5555Z" fill="#FE1D5F"/>
<path d="M191.947 31.1374C113.711 33.563 52.6952 94.5477 55.3155 166.621C57.9358 238.693 123.818 295.52 201.679 293.095C224.513 292.402 246.599 286.511 266.064 276.116C272.428 272.651 278.417 268.839 284.406 264.681C257.455 262.256 231.626 253.247 209.54 238.693C159.005 205.083 140.663 143.405 164.62 90.3897C175.102 67.1739 191.947 47.0766 213.658 31.8304C206.545 31.1374 199.433 30.7909 191.947 31.1374ZM274.299 61.6298L269.433 56.0857L266.438 62.6693C266.064 63.7088 264.941 64.7484 263.444 65.0949L256.332 67.5204L261.947 72.0249C263.07 72.718 263.444 74.104 263.444 75.1435L263.818 82.4201L270.556 78.955C271.679 78.262 273.176 77.9155 274.674 78.262L282.16 80.341L280.289 73.411C279.914 72.3714 280.289 70.9854 281.037 69.9459L285.529 64.0553L277.668 63.3623C276.545 63.0158 275.048 62.6693 274.299 61.6298ZM275.797 48.8092L280.663 54.6997L288.524 55.3927C293.016 55.7392 296.385 59.5508 296.385 63.7088C296.385 64.4018 296.011 65.0949 296.011 65.7879C296.011 66.1344 295.636 66.4809 295.262 67.1739L294.888 67.5204L294.513 67.8669L290.396 73.7575L292.267 81.0341C293.016 85.1921 290.021 89.3502 285.529 90.0432H285.155C284.406 90.0432 283.658 90.0432 283.283 90.0432C282.535 90.0432 282.16 90.0432 281.412 89.6967L273.925 87.6176L266.813 91.4292L266.438 91.7757C262.321 93.8547 257.455 92.4687 255.209 89.0037C254.834 88.3106 254.46 87.9641 254.46 87.2711V86.9246C254.46 86.5781 254.46 86.2316 254.086 85.8851C254.086 85.5386 254.086 85.1921 254.086 85.1921V84.8456L253.711 77.9155L248.096 72.718C244.727 69.9459 244.353 65.0949 247.348 61.6298C247.722 60.9368 248.471 60.5903 249.219 60.2438C249.968 59.8973 250.717 59.5508 251.465 59.2043L258.578 56.7788L261.572 49.8487C263.444 46.0371 268.31 43.9581 272.428 45.6906C273.176 46.0371 273.551 46.3836 274.299 46.7301L274.674 47.0766C275.048 47.7696 275.422 48.1161 275.797 48.8092ZM243.23 143.502L253.711 136.918C258.203 134.146 264.567 135.186 267.562 139.344C268.685 140.73 269.059 142.116 269.433 143.849L270.556 155.63L280.289 162.56C281.037 162.906 281.786 163.599 282.535 164.292C286.278 168.104 285.529 173.994 281.037 177.46C280.289 178.153 279.54 178.499 278.791 178.846L266.813 183.35L262.321 194.438C261.947 195.131 261.572 195.824 261.198 196.517C260.824 197.21 260.075 197.903 259.701 198.25C255.583 201.715 249.219 201.368 245.476 197.557L236.866 188.548L224.513 188.201C222.642 188.201 221.144 187.855 219.273 186.815C214.406 184.043 212.909 178.499 215.904 173.994L222.642 163.946L218.898 152.511C217.775 148.7 219.273 144.542 223.016 142.116L223.39 141.77C225.636 140.384 228.257 140.037 230.877 140.73L243.23 143.502ZM259.326 144.542L246.973 152.165C245.85 152.858 244.353 153.204 242.856 152.858L228.631 149.739H228.257V150.086L232.374 163.253C232.749 164.639 232.374 166.025 231.626 167.064L224.139 178.499C224.139 178.499 224.139 178.499 224.139 178.846H224.513L239.112 179.192C240.61 179.192 241.733 179.885 242.481 180.578L252.214 190.973H252.588H252.963V190.627L257.829 177.806C258.203 176.766 259.326 175.727 260.449 175.034L274.299 169.836C274.299 169.836 274.299 169.836 274.299 169.49V169.143L263.07 161.174C261.947 160.481 261.198 159.095 261.198 158.055L259.701 144.195C259.701 144.195 259.701 144.195 259.701 143.849L259.326 144.542ZM34.0856 266.76L38.9519 261.216L41.9465 267.8C42.3209 268.839 43.4439 269.879 44.9412 270.225L52.4278 272.651L46.4385 277.502C45.3155 278.195 44.9412 279.581 44.5668 280.621L44.1925 287.897L37.8289 284.432C36.7059 283.739 35.2086 283.393 33.7112 283.739L26.2246 285.818L28.0963 278.888C28.4706 277.848 28.0963 276.462 27.3476 275.423L22.8556 269.532L30.7166 268.839C31.8396 268.493 33.3369 267.8 34.0856 266.76ZM32.5882 253.94L27.7219 259.83L19.861 260.523C15.369 260.87 12 264.681 12 268.839C12 269.532 12.3743 270.225 12.3743 270.918C12.3743 271.265 12.7487 271.611 13.123 272.304L13.4973 272.651L13.8717 272.997L17.9893 278.888L16.1176 286.165C14.9947 290.323 17.9893 294.481 22.4813 295.52H22.8556C23.6043 295.52 24.3529 295.52 24.7273 295.52C25.4759 295.52 25.8503 295.52 26.5989 295.174L34.0856 293.095L40.8235 296.906L41.1979 297.253C45.3155 299.332 50.1818 297.946 52.4278 294.481C52.8021 293.788 53.1765 293.441 53.1765 292.748V292.402C53.1765 292.055 53.1765 291.709 53.1765 291.362C53.1765 291.016 53.1765 290.669 53.1765 290.669V290.323L53.5508 283.393L59.5401 278.542C62.9091 275.769 63.2834 270.918 60.2888 267.453C59.9144 266.76 59.1658 266.414 58.4171 266.067C57.6685 265.721 56.9198 265.374 56.5455 265.028L49.4332 262.602L46.4385 255.672C44.5668 251.861 39.7005 250.128 35.5829 251.861C34.8342 252.207 34.4599 252.554 33.7112 252.9L33.3369 253.247C33.3369 253.247 32.9626 253.593 32.5882 253.94ZM155.636 27.3259C179.219 21.0888 203.925 20.3958 227.508 24.9004C230.128 25.2469 232 27.6724 231.251 30.0979C230.877 31.4839 230.128 32.5235 229.005 33.2165C204.299 47.7696 184.834 68.9064 173.604 93.8547C151.519 143.058 168.738 200.232 215.529 231.417C239.112 247.356 267.562 256.019 297.134 256.365C299.754 256.365 302 258.444 302 260.87C302 262.256 301.251 263.295 300.503 263.988C239.487 317.003 143.658 314.231 86.385 257.751C29.1123 201.271 32.107 112.566 93.123 59.5508C111.091 44.6511 132.428 33.2165 155.636 27.3259Z" fill="#15153F"/>
<path d="M196.947 31.1374C118.711 33.563 57.6952 94.5477 60.3155 166.621C62.9358 238.693 128.818 295.52 206.679 293.095C229.513 292.402 251.599 286.511 271.064 276.116C277.428 272.651 283.417 268.839 289.406 264.681C262.455 262.256 236.626 253.247 214.54 238.693C164.005 205.083 145.663 143.405 169.62 90.3897C180.102 67.1739 196.947 47.0766 218.658 31.8304C211.545 31.1374 204.433 30.7909 196.947 31.1374ZM279.299 61.6298L274.433 56.0857L271.438 62.6693C271.064 63.7088 269.941 64.7484 268.444 65.0949L261.332 67.5204L266.947 72.0249C268.07 72.718 268.444 74.104 268.444 75.1435L268.818 82.4201L275.556 78.955C276.679 78.262 278.176 77.9155 279.674 78.262L287.16 80.341L285.289 73.411C284.914 72.3714 285.289 70.9854 286.037 69.9459L290.529 64.0553L282.668 63.3623C281.545 63.0158 280.048 62.6693 279.299 61.6298ZM280.797 48.8092L285.663 54.6997L293.524 55.3927C298.016 55.7392 301.385 59.5508 301.385 63.7088C301.385 64.4018 301.011 65.0949 301.011 65.7879C301.011 66.1344 300.636 66.4809 300.262 67.1739L299.888 67.5204L299.513 67.8669L295.396 73.7575L297.267 81.0341C298.016 85.1921 295.021 89.3502 290.529 90.0432H290.155C289.406 90.0432 288.658 90.0432 288.283 90.0432C287.535 90.0432 287.16 90.0432 286.412 89.6967L278.925 87.6176L271.813 91.4292L271.438 91.7757C267.321 93.8547 262.455 92.4687 260.209 89.0037C259.834 88.3106 259.46 87.9641 259.46 87.2711L259.5 87C259.5 86.6535 259.175 86.5 259.635 86L259.221 84.8456L258.711 77.9155L253.096 72.718C249.727 69.9459 249.353 65.0949 252.348 61.6298C252.722 60.9368 253.471 60.5903 254.219 60.2438C254.968 59.8973 255.717 59.5508 256.465 59.2043L263.578 56.7788L266.572 49.8487C268.444 46.0371 273.31 43.9581 277.428 45.6906C278.176 46.0371 278.551 46.3836 279.299 46.7301L279.674 47.0766C280.048 47.7696 280.422 48.1161 280.797 48.8092ZM248.23 143.502L258.711 136.918C263.203 134.146 269.567 135.186 272.562 139.344C273.685 140.73 274.059 142.116 274.433 143.849L275.556 155.63L285.289 162.56C286.037 162.906 286.786 163.599 287.535 164.292C291.278 168.104 290.529 173.994 286.037 177.46C285.289 178.153 284.54 178.499 283.791 178.846L271.813 183.35L267.321 194.438C266.947 195.131 266.572 195.824 266.198 196.517C265.824 197.21 265.075 197.903 264.701 198.25C260.583 201.715 254.219 201.368 250.476 197.557L241.866 188.548L229.513 188.201C227.642 188.201 226.144 187.855 224.273 186.815C219.406 184.043 217.909 178.499 220.904 173.994L227.642 163.946L223.898 152.511C222.775 148.7 224.273 144.542 228.016 142.116L228.39 141.77C230.636 140.384 233.257 140.037 235.877 140.73L248.23 143.502ZM264.326 144.542L251.973 152.165C250.85 152.858 249.353 153.204 247.856 152.858L233.631 149.739H233.257V150.086L237.374 163.253C237.749 164.639 237.374 166.025 236.626 167.064L229.139 178.499C229.139 178.499 229.139 178.499 229.139 178.846H229.513L244.112 179.192C245.61 179.192 246.733 179.885 247.481 180.578L257.214 190.973H257.588H257.963V190.627L262.829 177.806C263.203 176.766 264.326 175.727 265.449 175.034L279.299 169.836C279.299 169.836 279.299 169.836 279.299 169.49V169.143L268.07 161.174C266.947 160.481 266.198 159.095 266.198 158.055L264.701 144.195C264.701 144.195 264.701 144.195 264.701 143.849L264.326 144.542ZM39.0856 266.76L43.9519 261.216L46.9465 267.8C47.3209 268.839 48.4439 269.879 49.9412 270.225L57.4278 272.651L51.4385 277.502C50.3155 278.195 49.9412 279.581 49.5668 280.621L49.1925 287.897L42.8289 284.432C41.7059 283.739 40.2086 283.393 38.7112 283.739L31.2246 285.818L33.0963 278.888C33.4706 277.848 33.0963 276.462 32.3476 275.423L27.8556 269.532L35.7166 268.839C36.8396 268.493 38.3369 267.8 39.0856 266.76ZM37.5882 253.94L32.7219 259.83L24.861 260.523C20.369 260.87 17 264.681 17 268.839C17 269.532 17.3743 270.225 17.3743 270.918C17.3743 271.265 17.7487 271.611 18.123 272.304L18.4973 272.651L18.8717 272.997L22.9893 278.888L21.1176 286.165C19.9947 290.323 22.9893 294.481 27.4813 295.52H27.8556C28.6043 295.52 29.3529 295.52 29.7273 295.52C30.4759 295.52 30.8503 295.52 31.5989 295.174L39.0856 293.095L45.8235 296.906L46.1979 297.253C50.3155 299.332 55.1818 297.946 57.4278 294.481C57.8021 293.788 58.1765 293.441 58.1765 292.748V292.402C58.1765 292.055 58.1765 291.709 58.1765 291.362C58.1765 291.016 58.1765 290.669 58.1765 290.669V290.323L58.5508 283.393L64.5401 278.542C67.9091 275.769 68.2834 270.918 65.2888 267.453C64.9144 266.76 64.1658 266.414 63.4171 266.067C62.6685 265.721 61.3743 265.346 61 265L54.4332 262.602L51.4385 255.672C49.5668 251.861 44.7005 250.128 40.5829 251.861C39.8342 252.207 39.4599 252.554 38.7112 252.9L38.3369 253.247C38.3369 253.247 37.9626 253.593 37.5882 253.94ZM160.636 27.3259C184.219 21.0888 208.925 20.3958 232.508 24.9004C235.128 25.2469 237 27.6724 236.251 30.0979C235.877 31.4839 235.128 32.5235 234.005 33.2165C209.299 47.7696 189.834 68.9064 178.604 93.8547C156.519 143.058 173.738 200.232 220.529 231.417C244.112 247.356 272.562 256.019 302.134 256.365C304.754 256.365 307 258.444 307 260.87C307 262.256 306.251 263.295 305.503 263.988C244.487 317.003 148.658 314.231 91.385 257.751C34.1123 201.271 37.107 112.566 98.123 59.5508C116.091 44.6511 137.428 33.2165 160.636 27.3259Z" stroke="#15153F" stroke-width="15"/>
</svg>
