<svg width="50" height="50" viewBox="0 0 50 50" fill="none" xmlns="http://www.w3.org/2000/svg">
<rect width="50" height="50" rx="8" fill="#FFE3EB"/>
<path d="M30.44 27.608L26.954 28.5L23.4679 27.608C22.2312 27.2915 21.1333 26.561 20.3488 25.5326C19.5643 24.5041 19.1382 23.2367 19.1382 21.9319V10.5H34.7697V21.9319C34.7697 23.2367 34.3436 24.5041 33.5591 25.5326C32.7746 26.561 31.6767 27.2915 30.44 27.608Z" fill="#FE1D5F"/>
<path d="M36.7237 23L34.2812 20.5C33.763 19.9696 33.4719 19.2502 33.4719 18.5C33.4719 17.7499 33.763 17.0305 34.2812 16.5L32.083 14.25C31.8887 14.0511 31.7795 13.7813 31.7795 13.5C31.7795 13.2187 31.8887 12.9489 32.083 12.75C32.2774 12.5511 32.5409 12.4394 32.8158 12.4394C33.0906 12.4394 33.3542 12.5511 33.5485 12.75L34.7697 14V12H36.7237C37.1123 12 37.4851 12.1581 37.7599 12.4394C38.0347 12.7207 38.1891 13.1022 38.1891 13.5V18L39.6546 19.5L36.7237 23Z" fill="white"/>
<path d="M19.56 38.608L23.0461 39.5001L26.5321 38.608C27.7688 38.2915 28.8667 37.561 29.6512 36.5326C30.4357 35.5041 30.8618 34.2367 30.8618 32.9319V21.5001H15.2303V32.9319C15.2303 34.2367 15.6564 35.5041 16.4409 36.5326C17.2254 37.561 18.3233 38.2915 19.56 38.608Z" fill="#FE1D5F"/>
<path d="M13.2763 35.5L15.7187 33C16.237 32.4696 16.5281 31.7502 16.5281 31C16.5281 30.2499 16.237 29.5305 15.7187 29L17.9169 26.75C18.1113 26.5511 18.2204 26.2813 18.2204 26C18.2204 25.7187 18.1113 25.449 17.9169 25.25C17.7226 25.0511 17.459 24.9394 17.1842 24.9394C16.9094 24.9394 16.6458 25.0511 16.4515 25.25L15.2303 26.5V24.5H13.2763C12.8877 24.5 12.5149 24.6581 12.2401 24.9394C11.9653 25.2207 11.8109 25.6022 11.8109 26V30.5L10.3454 32L13.2763 35.5Z" fill="white"/>
<path d="M31.3503 32.9319V21.5C31.3503 21.3674 31.2989 21.2402 31.2072 21.1465C31.1156 21.0527 30.9914 21 30.8618 21H15.2303C15.1007 21 14.9765 21.0527 14.8849 21.1465C14.7933 21.2402 14.7418 21.3674 14.7418 21.5V24H13.2763C12.7583 24.0006 12.2616 24.2115 11.8953 24.5865C11.529 24.9614 11.323 25.4698 11.3224 26V30.293L10 31.6465L10.6908 32.3536L12.1563 30.8536C12.2017 30.8071 12.2376 30.752 12.2622 30.6914C12.2867 30.6307 12.2994 30.5657 12.2994 30.5V26C12.2997 25.7349 12.4027 25.4807 12.5859 25.2933C12.769 25.1058 13.0173 25.0003 13.2763 25H14.7418V26.293L13.9079 27.1465L14.5987 27.8536L16.7969 25.6036C16.8478 25.5515 16.9082 25.5102 16.9746 25.482C17.0411 25.4539 17.1123 25.4394 17.1842 25.4394C17.2562 25.4394 17.3274 25.4539 17.3938 25.482C17.4603 25.5102 17.5207 25.5515 17.5715 25.6036C17.6224 25.6556 17.6627 25.7174 17.6903 25.7855C17.7178 25.8535 17.732 25.9264 17.732 26C17.732 26.0736 17.7178 26.1465 17.6903 26.2146C17.6627 26.2826 17.6224 26.3444 17.5715 26.3965L15.3733 28.6465C15.328 28.6929 15.292 28.748 15.2674 28.8087C15.2429 28.8693 15.2303 28.9344 15.2303 29C15.2303 29.0657 15.2429 29.1307 15.2674 29.1914C15.292 29.252 15.328 29.3071 15.3733 29.3536C15.7993 29.7906 16.0385 30.3827 16.0385 31C16.0385 31.6173 15.7993 32.2094 15.3733 32.6465L12.9309 35.1465L13.6218 35.8536L14.936 34.5084C15.2149 35.6166 15.7806 36.6273 16.5735 37.4341C17.3664 38.241 18.3571 38.814 19.4415 39.093L22.9276 39.9851C23.0054 40.005 23.0867 40.005 23.1645 39.9851L26.6507 39.093C27.9938 38.751 29.1864 37.9584 30.0381 36.8417C30.8899 35.7251 31.3519 34.3486 31.3503 32.9319ZM30.3733 22V23H15.7188V22H30.3733ZM26.4137 38.1229L23.0461 38.9846L19.6784 38.1229C18.6659 37.8626 17.7524 37.2984 17.0554 36.5028C16.3584 35.7072 15.9097 34.7165 15.7668 33.6579L16.0642 33.3536C16.6141 32.7905 16.9487 32.0444 17.0073 31.2505C17.066 30.4567 16.8449 29.6675 16.384 29.0262L18.2624 27.1036C18.5463 26.8105 18.7052 26.4142 18.7043 26.0014C18.7035 25.5886 18.5429 25.1931 18.2577 24.9012C17.9726 24.6093 17.5861 24.445 17.1829 24.4441C16.7796 24.4432 16.3924 24.6058 16.1061 24.8965L15.7188 25.293V24H30.3733V32.9319C30.3746 34.1255 29.9854 35.2852 29.2678 36.2261C28.5501 37.1669 27.5453 37.8347 26.4137 38.1229Z" fill="black"/>
<path d="M26.4654 28C26.0769 27.9995 25.7044 27.8413 25.4297 27.5601C25.155 27.2789 25.0004 26.8976 25 26.5H24.023C24.023 27.163 24.2803 27.7989 24.7384 28.2677C25.1964 28.7366 25.8177 29 26.4654 29C27.1132 29 27.7345 28.7366 28.1925 28.2677C28.6505 27.7989 28.9079 27.163 28.9079 26.5H27.9309C27.9304 26.8976 27.7759 27.2789 27.5012 27.5601C27.2264 27.8413 26.854 27.9995 26.4654 28Z" fill="black"/>
<path d="M23.0461 30.9999C19.6281 30.9999 18.8097 33.2855 18.6262 34.6479C18.5972 34.8679 18.6359 35.0916 18.7369 35.288C18.838 35.4844 18.9963 35.6436 19.1899 35.7436C19.3836 35.8435 19.6028 35.8792 19.8171 35.8456C20.0315 35.812 20.2302 35.7108 20.3858 35.5562C21.0946 34.8552 21.9897 34.4999 23.0461 34.4999C24.1024 34.4999 24.9976 34.8552 25.7064 35.5559C25.8995 35.7496 26.159 35.8585 26.4294 35.8593C26.5957 35.8588 26.7595 35.8181 26.9074 35.7405C27.1012 35.642 27.2596 35.4832 27.3599 35.287C27.4602 35.0907 27.4973 34.8671 27.466 34.6479C27.2824 33.2855 26.4641 30.9999 23.0461 30.9999ZM26.4651 34.8489C26.4525 34.8571 26.4375 34.8603 26.4228 34.858C26.4081 34.8557 26.3947 34.848 26.3851 34.8364C25.5007 33.9624 24.3459 33.4999 23.0461 33.4999C21.7462 33.4999 20.5914 33.9621 19.7071 34.8366C19.6975 34.8482 19.6841 34.8558 19.6694 34.8581C19.6547 34.8604 19.6397 34.8572 19.6271 34.8491C19.6147 34.8446 19.6044 34.8355 19.5983 34.8235C19.5921 34.8116 19.5906 34.7978 19.594 34.7848C19.843 32.9368 21.0044 31.9999 23.0461 31.9999C25.0878 31.9999 26.2492 32.9368 26.4982 34.7846C26.5016 34.7976 26.5001 34.8114 26.4939 34.8234C26.4878 34.8353 26.4775 34.8444 26.4651 34.8489Z" fill="black"/>
<path d="M22.0691 26.5H21.0921C21.092 26.7632 21.0243 27.0218 20.8957 27.2498C20.7671 27.4777 20.5822 27.667 20.3595 27.7987C20.1368 27.9304 19.8842 27.9998 19.627 28C19.3698 28.0001 19.1171 27.931 18.8943 27.7996L18.4051 28.6651C18.7764 28.8845 19.1976 29 19.6264 29C20.0551 29 20.4763 28.8844 20.8476 28.665C21.2189 28.4456 21.5273 28.13 21.7417 27.75C21.9561 27.3699 22.069 26.9388 22.0691 26.5Z" fill="black"/>
<path d="M38.6776 17.7929V13.5C38.677 12.9697 38.471 12.4614 38.1047 12.0864C37.7384 11.7115 37.2417 11.5006 36.7237 11.5H35.2582V10.5C35.2582 10.3674 35.2067 10.2402 35.1151 10.1464C35.0235 10.0527 34.8993 10 34.7697 10H19.1382C19.0086 10 18.8844 10.0527 18.7928 10.1464C18.7011 10.2402 18.6497 10.3674 18.6497 10.5V20H19.6267V13H30.3733V12H19.6267V11H34.2812V12.7929L33.8939 12.3964C33.7526 12.2505 33.5844 12.1346 33.3992 12.0553C33.2139 11.976 33.0152 11.935 32.8144 11.9346C32.6136 11.9341 32.4147 11.9743 32.2292 12.0527C32.0436 12.1312 31.875 12.2464 31.733 12.3917C31.591 12.537 31.4785 12.7096 31.4018 12.8996C31.3252 13.0895 31.286 13.2931 31.2864 13.4986C31.2868 13.7041 31.3269 13.9075 31.4043 14.0972C31.4818 14.2868 31.595 14.4589 31.7376 14.6036L33.616 16.5262C33.1551 17.1675 32.934 17.9567 32.9927 18.7505C33.0513 19.5444 33.3859 20.2905 33.9358 20.8536L34.2812 21.2071V21.9321C34.2808 22.7932 34.0776 23.6415 33.6887 24.4052C33.2999 25.1688 32.7369 25.8252 32.0474 26.3188L32.6071 27.1384C33.3889 26.5786 34.0341 25.842 34.4928 24.9857C34.9515 24.1294 35.2112 23.1765 35.252 22.2009L36.3782 23.3538L37.0691 22.6466L34.6267 20.1466C34.2007 19.7096 33.9615 19.1175 33.9615 18.5002C33.9615 17.8829 34.2007 17.2908 34.6267 16.8538C34.672 16.8073 34.708 16.7522 34.7325 16.6915C34.7571 16.6309 34.7697 16.5659 34.7697 16.5002C34.7697 16.4345 34.7571 16.3695 34.7325 16.3088C34.708 16.2482 34.672 16.1931 34.6267 16.1466L32.4285 13.8966C32.3776 13.8446 32.3373 13.7828 32.3097 13.7147C32.2822 13.6467 32.268 13.5738 32.268 13.5002C32.268 13.4266 32.2822 13.3537 32.3097 13.2856C32.3373 13.2176 32.3776 13.1558 32.4285 13.1038C32.4793 13.0517 32.5397 13.0104 32.6062 12.9822C32.6726 12.954 32.7438 12.9395 32.8158 12.9395C32.8877 12.9395 32.9589 12.954 33.0254 12.9822C33.0918 13.0104 33.1522 13.0517 33.2031 13.1038L35.4013 15.3538L36.0921 14.6466L35.2582 13.7929V12.5H36.7237C36.9827 12.5003 37.231 12.6058 37.4141 12.7932C37.5973 12.9807 37.7003 13.2349 37.7006 13.5V18C37.7006 18.0657 37.7133 18.1307 37.7378 18.1913C37.7624 18.252 37.7983 18.3071 37.8437 18.3536L39.3092 19.8536L40 19.1464L38.6776 17.7929Z" fill="black"/>
<path d="M23.5345 16.4999C23.9231 16.5004 24.2955 16.6586 24.5703 16.9398C24.845 17.221 24.9995 17.6023 25 17.9999H25.977C25.977 17.3369 25.7196 16.701 25.2616 16.2322C24.8035 15.7633 24.1823 15.4999 23.5345 15.4999C22.8868 15.4999 22.2655 15.7633 21.8075 16.2322C21.3494 16.701 21.0921 17.3369 21.0921 17.9999H22.0691C22.0695 17.6023 22.2241 17.221 22.4988 16.9398C22.7735 16.6586 23.146 16.5004 23.5345 16.4999Z" fill="black"/>
<path d="M30.3733 16.5C30.6306 16.5006 30.8832 16.5702 31.106 16.7018C31.3288 16.8335 31.5139 17.0226 31.643 17.2504L32.4887 16.7496C32.2199 16.2729 31.8049 15.9003 31.3081 15.6897C30.8113 15.479 30.2605 15.442 29.741 15.5845C29.2216 15.727 28.7627 16.041 28.4354 16.4778C28.1081 16.9145 27.9308 17.4496 27.9309 18H28.9079C28.9083 17.6023 29.0629 17.2211 29.3376 16.9398C29.6123 16.6586 29.9848 16.5005 30.3733 16.5Z" fill="black"/>
</svg>
