<svg width="24" height="18" viewBox="0 0 24 18" fill="none" xmlns="http://www.w3.org/2000/svg">
<path fill-rule="evenodd" clip-rule="evenodd" d="M2 0H7H17H22C23.1046 0 24 0.895431 24 2V4.5V5.38984C24 6.20396 23.484 6.92861 22.7147 7.19492C21.0009 7.78815 21.0009 10.2118 22.7147 10.8051C23.484 11.0714 24 11.796 24 12.6102V13.5V16C24 17.1046 23.1046 18 22 18H17H7H2C0.895431 18 0 17.1046 0 16V13.5V12.6102C0 11.796 0.515998 11.0714 1.28533 10.8051C2.9991 10.2118 2.9991 7.78815 1.28533 7.19492C0.515998 6.92861 0 6.20396 0 5.38984V4.5V2C0 0.895431 0.895431 0 2 0Z" fill="#F0F0F0"/>
<circle cx="12" cy="9" r="3" fill="#C0C0C0"/>
<path d="M6 0C6 11.6 6 16.8333 6 18" stroke="#C0C0C0" stroke-dasharray="1.5 1.5"/>
<path d="M18 0C18 11.6 18 16.8333 18 18" stroke="#C0C0C0" stroke-dasharray="1.5 1.5"/>
</svg>
