<svg width="50" height="50" viewBox="0 0 50 50" fill="none" xmlns="http://www.w3.org/2000/svg">
<rect width="50" height="50" rx="8" fill="#FFE3EB"/>
<path d="M34.324 19.1447C34.3237 18.6305 34.2395 18.1198 34.0749 17.6327C31.0808 17.0882 28.0426 16.8228 24.9995 16.84C21.9564 16.8228 18.9182 17.0882 15.9241 17.6327C15.7595 18.1198 15.6753 18.6305 15.675 19.1447C15.675 22.7563 19.848 25.6866 24.9995 25.6866C30.151 25.6866 34.324 22.7563 34.324 19.1447Z" fill="white"/>
<path d="M24.9995 23.84C33.0388 23.84 39.556 21.9439 39.556 19.6049C39.556 17.2659 33.0388 15.3697 24.9995 15.3697C16.9602 15.3697 10.443 17.2659 10.443 19.6049C10.443 21.9439 16.9602 23.84 24.9995 23.84Z" fill="#FE1D5F"/>
<path d="M31.5385 16.9728C31.5389 17.4818 31.4803 17.9892 31.3639 18.4848C29.2862 19.0264 27.1465 19.2929 24.9995 19.2775C22.8525 19.2929 20.7128 19.0264 18.6352 18.4848C18.4221 17.5864 18.4015 16.653 18.5747 15.7461C18.7479 14.8391 19.1111 13.9791 19.6402 13.2226C20.1694 12.4661 20.8527 11.8303 21.645 11.3568C22.4374 10.8833 23.321 10.583 24.2377 10.4756C25.1544 10.3682 26.0834 10.4561 26.9637 10.7336C27.844 11.011 28.6556 11.4717 29.3452 12.0854C30.0348 12.6991 30.5867 13.4519 30.9648 14.2942C31.3428 15.1365 31.5383 16.0494 31.5385 16.9728Z" fill="white"/>
<path d="M34.3361 15.9016C34.2218 15.8743 34.1014 15.8935 34.0012 15.955C33.9011 16.0166 33.8294 16.1154 33.8021 16.2297C33.7748 16.3441 33.794 16.4646 33.8555 16.5648C33.917 16.665 34.0158 16.7367 34.1301 16.764C37.8041 17.6421 39.1129 18.8076 39.1129 19.6057C39.1129 20.6423 36.9611 22.0454 32.1537 22.8434C29.7879 23.2214 27.3953 23.4062 24.9995 23.3958C22.6034 23.4055 20.2105 23.22 17.8445 22.8411C13.0376 22.0441 10.886 20.641 10.886 19.6044C10.886 18.5622 13.1333 17.1224 18.0478 16.3329C18.0286 16.5439 18.0175 16.7572 18.0175 16.9729C18.0173 17.5162 18.0798 18.0576 18.2038 18.5865C18.2221 18.6641 18.2611 18.7354 18.3165 18.7928C18.3719 18.8501 18.4418 18.8915 18.5187 18.9125C18.987 19.0391 19.4792 19.1551 19.9817 19.2534C20.0959 19.2734 20.2135 19.2479 20.3091 19.1822C20.4047 19.1165 20.4708 19.0159 20.4931 18.9021C20.5154 18.7882 20.4922 18.6701 20.4284 18.5732C20.3647 18.4762 20.2654 18.4082 20.1521 18.3836C19.763 18.3077 19.3807 18.221 19.0129 18.1261C18.9408 17.7459 18.9046 17.3599 18.9048 16.9729C18.9048 16.172 19.0624 15.379 19.3688 14.6391C19.6751 13.8991 20.1242 13.2268 20.6902 12.6605C21.2563 12.0942 21.9283 11.645 22.6679 11.3385C23.4075 11.032 24.2002 10.8743 25.0008 10.8743C25.8013 10.8743 26.594 11.032 27.3336 11.3385C28.0732 11.645 28.7452 12.0942 29.3113 12.6605C29.8773 13.2268 30.3264 13.8991 30.6327 14.6391C30.9391 15.379 31.0968 16.172 31.0968 16.9729C31.0969 17.3599 31.0607 17.7459 30.9887 18.1261C28.6937 18.6855 26.3311 18.9172 23.9712 18.8142C23.8537 18.8098 23.7392 18.8523 23.6531 18.9323C23.5669 19.0123 23.516 19.1233 23.5116 19.2408C23.5072 19.3584 23.5496 19.4729 23.6296 19.5591C23.7096 19.6453 23.8205 19.6962 23.938 19.7006C24.2907 19.7138 24.6468 19.7204 24.9995 19.7204C27.1858 19.735 29.3645 19.4632 31.4803 18.912C31.5572 18.891 31.627 18.8497 31.6824 18.7924C31.7379 18.735 31.7768 18.6638 31.7952 18.5863C32.0056 17.6921 32.0376 16.7653 31.8895 15.8587C31.7414 14.9522 31.416 14.0838 30.932 13.3032C30.448 12.5226 29.8149 11.8452 29.0689 11.3097C28.3229 10.7743 27.4786 10.3912 26.5845 10.1826C25.6903 9.97395 24.7638 9.94378 23.8579 10.0938C22.9521 10.2438 22.0848 10.5711 21.3055 11.0569C20.5263 11.5428 19.8504 12.1775 19.3167 12.925C18.783 13.6724 18.4019 14.5178 18.1952 15.4128C13.0574 16.1944 10 17.7527 10 19.6044C10 21.3912 12.7629 22.8802 17.583 23.6964C19.4427 25.2442 22.1358 26.1311 24.9995 26.1311C27.8632 26.1311 30.5563 25.2447 32.417 23.6964C37.2373 22.8799 40 21.3917 40 19.6044C39.999 18.0886 37.9879 16.7731 34.3361 15.9016ZM19.604 23.9821C21.3954 24.1842 23.1968 24.2844 24.9995 24.2822C26.8022 24.2845 28.6036 24.1843 30.395 23.9821C28.7244 24.8315 26.8734 25.2646 24.9995 25.2447C23.1256 25.2646 21.2746 24.8315 19.604 23.9821Z" fill="black"/>
<path d="M29.1649 22.1439C29.1772 22.2606 29.235 22.3677 29.3259 22.442C29.4167 22.5162 29.5332 22.5516 29.65 22.5404C31.662 22.3658 33.6495 21.9754 35.5781 21.3759C35.6876 21.3374 35.7777 21.2576 35.8289 21.1535C35.8802 21.0494 35.8886 20.9293 35.8523 20.8191C35.8161 20.7089 35.7381 20.6173 35.635 20.5639C35.532 20.5106 35.4121 20.4998 35.3012 20.5339C33.4338 21.1135 31.5094 21.4906 29.5614 21.6586C29.5035 21.6645 29.4473 21.6816 29.396 21.7092C29.3448 21.7367 29.2994 21.7741 29.2626 21.8192C29.2258 21.8642 29.1982 21.9161 29.1815 21.9718C29.1647 22.0276 29.1591 22.086 29.1649 22.1439Z" fill="black"/>
<path d="M21.6907 18.6303C21.5742 18.6155 21.4565 18.6477 21.3636 18.7197C21.2707 18.7917 21.2102 18.8976 21.1954 19.0142C21.1807 19.1308 21.2128 19.2485 21.2848 19.3414C21.3568 19.4343 21.4628 19.4948 21.5794 19.5095C21.8291 19.5409 22.0823 19.569 22.3388 19.5938C22.3532 19.5953 22.3677 19.5961 22.3821 19.5961C22.4959 19.596 22.6053 19.5522 22.6877 19.4736C22.77 19.395 22.8189 19.2878 22.8244 19.1741C22.8298 19.0604 22.7912 18.949 22.7167 18.863C22.6422 18.777 22.5374 18.723 22.4241 18.7121C22.1764 18.688 21.9319 18.6607 21.6907 18.6303Z" fill="black"/>
<path d="M17.7483 25.9986C17.6334 25.975 17.5137 25.9979 17.4155 26.0622C17.3173 26.1266 17.2486 26.2272 17.2243 26.3421L14.4882 39.4661C14.4642 39.5812 14.4869 39.7011 14.5513 39.7995C14.6157 39.8978 14.7165 39.9666 14.8315 39.9906C14.8614 39.9968 14.8918 40 14.9224 40C15.0241 39.9998 15.1227 39.9647 15.2016 39.9005C15.2805 39.8362 15.3349 39.7468 15.3558 39.6472L18.0916 26.5229C18.1035 26.4659 18.1041 26.4072 18.0933 26.35C18.0824 26.2928 18.0605 26.2383 18.0286 26.1896C17.9967 26.1409 17.9555 26.099 17.9075 26.0662C17.8594 26.0334 17.8053 26.0105 17.7483 25.9986Z" fill="black"/>
<path d="M32.7747 26.342C32.7636 26.2843 32.7411 26.2294 32.7085 26.1805C32.676 26.1316 32.6341 26.0896 32.5852 26.057C32.5363 26.0245 32.4814 26.002 32.4238 25.9908C32.3661 25.9797 32.3068 25.9801 32.2493 25.9921C32.1918 26.0041 32.1372 26.0274 32.0888 26.0606C32.0404 26.0939 31.9991 26.1365 31.9673 26.1859C31.9355 26.2353 31.9138 26.2905 31.9035 26.3484C31.8932 26.4062 31.8945 26.4655 31.9074 26.5229L34.6432 39.6472C34.6641 39.7468 34.7185 39.8362 34.7974 39.9005C34.8763 39.9647 34.9749 39.9998 35.0766 40C35.1072 40 35.1376 39.9968 35.1675 39.9906C35.2825 39.9666 35.3833 39.8978 35.4477 39.7995C35.5121 39.7011 35.5348 39.5812 35.5108 39.4661L32.7747 26.342Z" fill="black"/>
<path d="M28.1774 26.7465C28.1193 26.7503 28.0625 26.7655 28.0103 26.7912C27.9581 26.8169 27.9115 26.8526 27.8731 26.8964C27.8347 26.9401 27.8053 26.991 27.7866 27.0461C27.7679 27.1012 27.7602 27.1595 27.764 27.2176L28.5657 39.5854C28.573 39.6977 28.6227 39.803 28.7047 39.88C28.7867 39.957 28.895 39.9999 29.0075 40H29.0366C29.0946 39.9962 29.1514 39.9811 29.2036 39.9553C29.2558 39.9296 29.3024 39.8939 29.3408 39.8501C29.3792 39.8064 29.4086 39.7555 29.4273 39.7004C29.4461 39.6453 29.4537 39.587 29.45 39.5289L28.6482 27.1601C28.6447 27.1019 28.6297 27.045 28.604 26.9927C28.5784 26.9404 28.5427 26.8936 28.4989 26.8552C28.4551 26.8167 28.4042 26.7873 28.349 26.7687C28.2938 26.75 28.2355 26.7425 28.1774 26.7465Z" fill="black"/>
<path d="M21.8216 26.7465C21.7636 26.7427 21.7053 26.7503 21.6502 26.769C21.5951 26.7877 21.5442 26.8172 21.5004 26.8556C21.4567 26.894 21.421 26.9407 21.3953 26.9929C21.3696 27.0452 21.3545 27.102 21.3508 27.1601L20.549 39.5279C20.5452 39.586 20.5529 39.6443 20.5717 39.6994C20.5904 39.7545 20.6198 39.8054 20.6582 39.8491C20.6966 39.8929 20.7432 39.9286 20.7954 39.9543C20.8476 39.98 20.9044 39.9952 20.9624 39.999H20.9915C21.104 39.9989 21.2123 39.956 21.2943 39.879C21.3763 39.802 21.426 39.6967 21.4333 39.5844L22.235 27.2176C22.2388 27.1595 22.2311 27.1012 22.2124 27.0461C22.1937 26.991 22.1643 26.9401 22.1259 26.8964C22.0875 26.8526 22.0409 26.8169 21.9887 26.7912C21.9365 26.7655 21.8797 26.7503 21.8216 26.7465Z" fill="black"/>
</svg>
