<svg width="50" height="50" viewBox="0 0 50 50" fill="none" xmlns="http://www.w3.org/2000/svg">
<rect width="50" height="50" rx="8" fill="#FFE3EB"/>
<path d="M28.2999 17.3322C29.5488 17.3322 30.5613 15.8661 30.5613 14.0575C30.5613 12.249 29.5488 10.7829 28.2999 10.7829C27.051 10.7829 26.0386 12.249 26.0386 14.0575C26.0386 15.8661 27.051 17.3322 28.2999 17.3322Z" fill="white"/>
<path d="M18.9229 39.2359L18.8525 38.6319C18.7721 37.9697 18.6817 37.3002 18.5661 36.5216L18.4354 35.641H32.1744L31.9784 36.5798C31.835 37.2588 31.7176 37.9488 31.6266 38.6464L31.5512 39.2431L18.9229 39.2359Z" fill="white"/>
<path d="M12.762 25.5915C14.0109 25.5915 15.0233 24.1254 15.0233 22.3169C15.0233 20.5084 14.0109 19.0423 12.762 19.0423C11.5131 19.0423 10.5006 20.5084 10.5006 22.3169C10.5006 24.1254 11.5131 25.5915 12.762 25.5915Z" fill="white"/>
<path d="M37.2448 31.122C38.4937 31.122 39.5061 29.6559 39.5061 27.8474C39.5061 26.0389 38.4937 24.5728 37.2448 24.5728C35.9959 24.5728 34.9834 26.0389 34.9834 27.8474C34.9834 29.6559 35.9959 31.122 37.2448 31.122Z" fill="white"/>
<path d="M18.4254 35.641L18.3299 35.0952C17.3249 29.5211 15.8927 26.3629 14.8424 24.631L14.6163 24.2817L14.7771 23.8378C15.0037 23.2123 15.0798 22.4953 14.9932 21.8002L14.9077 21.0725L15.4103 20.9634C15.7312 20.8924 16.0554 20.856 16.3801 20.8542C18.4263 20.9288 20.3397 22.3383 21.5862 24.6892C21.806 20.8316 23.3353 17.3843 25.6667 15.4911L26.0989 15.12L26.3552 15.7458C26.6311 16.4298 27.0683 16.9466 27.5863 17.2012L27.9431 17.3758V17.9216C27.7924 23.081 29.8627 25.4969 29.9532 25.5988C30.8133 25.0199 31.7486 24.7124 32.697 24.6965C33.4885 24.7 34.2713 24.9352 34.9985 25.3878L35.501 25.6934L35.2498 26.4211C35.0844 26.8819 34.9983 27.3936 34.9985 27.9129C34.9995 28.2669 35.0402 28.6184 35.1191 28.9535L35.2297 29.4338L34.9583 29.754C33.7649 31.2041 32.8538 33.0803 32.3151 35.1971L32.1894 35.6628L18.4254 35.641Z" fill="#FE1D5F"/>
<path d="M37.2448 23.8451C36.5771 23.845 35.9323 24.1967 35.4307 24.8347C33.7274 23.6643 31.7579 23.6166 30.0286 24.7038C28.8831 22.8981 28.2984 20.4918 28.4105 18.0453C29.9441 17.959 31.139 16.0887 31.0794 13.868C31.0198 11.6471 29.7283 9.91677 28.1947 10.0031C26.6611 10.0894 25.4661 11.9597 25.5257 14.1804C25.5303 14.349 25.5421 14.517 25.5612 14.6834C23.3376 16.4063 21.7565 19.4688 21.2445 23.0446C19.6326 20.744 17.3549 19.7068 15.1238 20.2575C14.329 18.3704 12.6282 17.7738 11.325 18.9248C10.0218 20.0759 9.60984 22.5388 10.4047 24.4259C11.1996 26.313 12.9003 26.9096 14.2035 25.7585C14.3389 25.639 14.4669 25.5028 14.5861 25.3514C15.9479 27.6291 17.6012 31.8279 18.4204 39.3887C18.4602 39.7445 18.6739 40.0046 18.9229 39.9999H31.5361C31.7917 40.0026 32.008 39.7271 32.0387 39.3596C32.0387 39.3013 32.5412 33.5817 35.104 30.4453C36.0754 32.1504 37.8174 32.3923 38.9949 30.9856C40.1723 29.579 40.3394 27.0564 39.368 25.3513C38.8404 24.4252 38.0536 23.8911 37.2246 23.896L37.2448 23.8451ZM12.762 24.8638C11.7906 24.8638 11.0031 23.7235 11.0031 22.3169C11.0031 20.9103 11.7906 19.77 12.762 19.77C13.7333 19.77 14.5208 20.9103 14.5208 22.3169C14.5208 23.7235 13.7333 24.8638 12.762 24.8638ZM28.2999 11.5106C29.2713 11.5106 30.0587 12.6509 30.0587 14.0575C30.0587 15.4642 29.2713 16.6045 28.2999 16.6045C27.3285 16.6045 26.5411 15.4642 26.5411 14.0575C26.5411 12.6509 27.3285 11.5106 28.2999 11.5106ZM31.1341 38.5082H19.345C19.2545 37.7805 19.1591 37.0528 19.0535 36.3615H31.4959C31.3481 37.0669 31.2273 37.7836 31.1341 38.5082ZM34.4809 27.8474C34.4813 28.2806 34.5305 28.7107 34.6266 29.1209C33.3686 30.6812 32.4112 32.6869 31.8477 34.9424H18.8173C17.8475 29.3756 16.4203 26.0791 15.2193 24.1434C15.4964 23.3771 15.5901 22.4992 15.4856 21.6474C19.0385 20.8761 21.0887 24.9002 21.1792 25.0822C21.3404 25.4093 21.6542 25.4854 21.8801 25.252C21.9993 25.1289 22.0755 24.9366 22.0888 24.7256C22.2864 21.0977 23.726 17.8547 25.923 16.0878C26.2621 16.9209 26.7974 17.5487 27.4305 17.8561C27.2647 23.3648 29.5261 26.0209 29.6316 26.13C29.7751 26.2905 29.9671 26.3267 30.1341 26.2246C31.588 25.1857 33.2813 25.1087 34.7774 26.0136C34.5785 26.5817 34.4768 27.2106 34.4809 27.8474ZM37.2448 30.3943C36.2734 30.3943 35.486 29.254 35.486 27.8474C35.486 26.4408 36.2734 25.3005 37.2448 25.3005C38.2162 25.3005 39.0036 26.4408 39.0036 27.8474C39.0036 29.254 38.2162 30.3943 37.2448 30.3943Z" fill="black"/>
</svg>
