<svg width="30" height="31" viewBox="0 0 30 31" fill="none" xmlns="http://www.w3.org/2000/svg">
<path d="M15 13.2955V23.4076C14.7719 23.3532 14.5342 23.3235 14.2894 23.3235C12.6067 23.3235 11.2425 24.6876 11.2425 26.3703C11.2425 28.0531 12.6067 29.4172 14.2894 29.4172C15.9722 29.4172 17.3363 28.0531 17.3363 26.3703C17.3363 26.3296 17.3348 26.2892 17.3332 26.2489H17.3437V16.6148L27.0703 14.6407V20.3591C26.8445 20.3057 26.6093 20.2766 26.3672 20.2766C24.6844 20.2766 23.3203 21.6408 23.3203 23.3235C23.3203 25.0063 24.6844 26.3704 26.3672 26.3704C28.0499 26.3704 29.4141 25.0063 29.4141 23.3235V10.37L15 13.2955Z" fill="#FE1D5F"/>
<path d="M14.2894 30.0032C12.2863 30.0032 10.6566 28.3735 10.6566 26.3704C10.6566 24.3672 12.2863 22.7376 14.2894 22.7376C14.3309 22.7376 14.3725 22.7383 14.414 22.7397V13.2955C14.414 13.0169 14.6103 12.7767 14.8834 12.7213L29.2975 9.79584C29.4697 9.76086 29.6488 9.8051 29.7849 9.91643C29.921 10.0277 30 10.1942 30 10.3701V23.3235C30 25.3266 28.3703 26.9563 26.3672 26.9563C24.364 26.9563 22.7344 25.3266 22.7344 23.3235C22.7344 21.3204 24.364 19.6907 26.3672 19.6907C26.4062 19.6907 26.4453 19.6913 26.4844 19.6926V15.3575L17.9297 17.0938V26.249C17.9297 26.2813 17.9271 26.3128 17.9221 26.3436C17.9222 26.3525 17.9222 26.3615 17.9222 26.3704C17.9222 28.3735 16.2926 30.0032 14.2894 30.0032ZM14.2894 23.9094C12.9324 23.9094 11.8285 25.0134 11.8285 26.3704C11.8285 27.7274 12.9324 28.8313 14.2894 28.8313C15.6464 28.8313 16.7504 27.7274 16.7504 26.3704C16.7504 26.3373 16.749 26.3046 16.7478 26.2718C16.746 26.2268 16.7495 26.1821 16.7578 26.1386V16.6148C16.7578 16.3361 16.9541 16.096 17.2272 16.0406L26.9538 14.0665C27.126 14.0316 27.305 14.0758 27.4411 14.1871C27.5772 14.2984 27.6562 14.4649 27.6562 14.6407V20.3591C27.6562 20.5382 27.5743 20.7075 27.4339 20.8186C27.2934 20.9297 27.1099 20.9704 26.9355 20.9294C26.7481 20.8851 26.557 20.8626 26.3672 20.8626C25.0103 20.8626 23.9063 21.9665 23.9063 23.3235C23.9063 24.6805 25.0103 25.7844 26.3672 25.7844C27.7242 25.7844 28.8282 24.6805 28.8282 23.3235V11.0869L15.586 13.7745V23.4077C15.586 23.5871 15.5038 23.7566 15.363 23.8677C15.2222 23.9788 15.0382 24.0191 14.8638 23.9776C14.6746 23.9324 14.4814 23.9094 14.2894 23.9094Z" fill="black"/>
<path d="M10.9512 7.27567C9.6543 5.97882 7.55172 5.97882 6.25487 7.27567C4.95801 5.97882 2.85543 5.97882 1.55858 7.27567C0.261724 8.57253 0.261724 10.6751 1.55858 11.972L6.25487 16.6683L10.9512 11.972C12.248 10.6752 12.248 8.57253 10.9512 7.27567Z" fill="white"/>
<path d="M6.25488 17.2543C6.10494 17.2543 5.95494 17.1971 5.84057 17.0827L1.14428 12.3863C0.406348 11.6485 0 10.6674 0 9.62389C0 8.58039 0.406406 7.5993 1.14422 6.86143C1.88209 6.12355 2.86318 5.71715 3.90668 5.71715C4.76537 5.71715 5.58176 5.9923 6.25518 6.5009C7.78465 5.34971 9.97377 5.46971 11.3655 6.86137C12.1034 7.59924 12.5097 8.58033 12.5097 9.62383C12.5097 10.6674 12.1033 11.6484 11.3655 12.3863L6.6692 17.0826C6.55477 17.1971 6.40482 17.2543 6.25488 17.2543ZM3.90668 6.89031C3.20631 6.89031 2.506 7.15686 1.97285 7.69006C0.906504 8.75641 0.906504 10.4914 1.97285 11.5577L6.25482 15.8397L10.5368 11.5577C11.6031 10.4914 11.6031 8.75641 10.5368 7.69012C10.0203 7.17361 9.33346 6.88908 8.60297 6.88908C7.87248 6.88908 7.1857 7.17355 6.66914 7.69012C6.44033 7.91892 6.06932 7.91892 5.84045 7.69012C5.30736 7.15691 4.60705 6.89031 3.90668 6.89031Z" fill="black"/>
<path d="M17.2555 1.05195C16.6327 0.429103 15.6229 0.429103 15 1.05195C14.3772 0.429103 13.3673 0.429103 12.7445 1.05195C12.1216 1.67481 12.1216 2.68461 12.7445 3.30746L15 5.56297L17.2555 3.30746C17.8784 2.68461 17.8784 1.67481 17.2555 1.05195Z" fill="white"/>
<path d="M15 6.14899C14.8501 6.14899 14.7001 6.0918 14.5857 5.97737L12.3301 3.72186C11.4798 2.87155 11.4798 1.48797 12.3301 0.637661C13.0531 -0.0852106 14.1616 -0.193492 15 0.312875C15.8384 -0.193492 16.9469 -0.0852106 17.6698 0.637661C18.5201 1.48797 18.5201 2.87155 17.6698 3.72186L15.4143 5.97737C15.2999 6.09174 15.1499 6.14899 15 6.14899ZM13.8723 1.17127C13.6139 1.17127 13.3555 1.26965 13.1588 1.46635C12.7654 1.85975 12.7654 2.49983 13.1588 2.89323L15 4.73436L16.8412 2.89317C17.2346 2.49977 17.2346 1.85969 16.8412 1.46629C16.4478 1.07289 15.8077 1.07289 15.4143 1.46629C15.1855 1.6951 14.8145 1.6951 14.5856 1.46629C14.3889 1.26965 14.1306 1.17127 13.8723 1.17127Z" fill="black"/>
</svg>
