<svg width="30" height="30" viewBox="0 0 30 30" fill="none" xmlns="http://www.w3.org/2000/svg">
<path d="M20.44 17.608L16.954 18.5L13.4679 17.608C12.2312 17.2915 11.1333 16.561 10.3488 15.5326C9.56431 14.5041 9.13818 13.2367 9.13818 11.9319V0.500046H24.7697V11.9319C24.7697 13.2367 24.3436 14.5041 23.5591 15.5326C22.7746 16.561 21.6767 17.2915 20.44 17.608Z" fill="#FFC956"/>
<path d="M26.7237 13L24.2812 10.5C23.763 9.9696 23.4719 9.25017 23.4719 8.50003C23.4719 7.74989 23.763 7.03046 24.2812 6.50003L22.083 4.25003C21.8887 4.05111 21.7795 3.78133 21.7795 3.50003C21.7795 3.21873 21.8887 2.94895 22.083 2.75003C22.2774 2.55112 22.5409 2.43938 22.8158 2.43938C23.0906 2.43938 23.3542 2.55112 23.5485 2.75003L24.7697 4.00003V2.00003H26.7237C27.1123 2.00003 27.4851 2.15807 27.7599 2.43937C28.0347 2.72067 28.1891 3.10221 28.1891 3.50003V8.00003L29.6546 9.50003L26.7237 13Z" fill="white"/>
<path d="M9.55998 28.608L13.0461 29.5001L16.5321 28.608C17.7688 28.2915 18.8667 27.561 19.6512 26.5326C20.4357 25.5041 20.8618 24.2367 20.8618 22.9319V11.5001H5.23029V22.9319C5.23029 24.2367 5.65641 25.5041 6.44091 26.5326C7.22542 27.561 8.32328 28.2915 9.55998 28.608Z" fill="#FFC956"/>
<path d="M3.27631 25.5L5.71874 23C6.23696 22.4696 6.52809 21.7502 6.52809 21C6.52809 20.2499 6.23696 19.5305 5.71874 19L7.91693 16.75C8.11126 16.5511 8.22043 16.2813 8.22043 16C8.22043 15.7187 8.11126 15.449 7.91693 15.25C7.7226 15.0511 7.45903 14.9394 7.1842 14.9394C6.90938 14.9394 6.64581 15.0511 6.45147 15.25L5.23026 16.5V14.5H3.27631C2.88765 14.5 2.51491 14.6581 2.24008 14.9394C1.96525 15.2207 1.81086 15.6022 1.81086 16V20.5L0.345398 22L3.27631 25.5Z" fill="white"/>
<path d="M21.3503 22.9319V11.5C21.3503 11.3674 21.2989 11.2402 21.2072 11.1465C21.1156 11.0527 20.9914 11 20.8618 11H5.23028C5.10073 11 4.97648 11.0527 4.88487 11.1465C4.79326 11.2402 4.74179 11.3674 4.74179 11.5V14H3.27634C2.7583 14.0006 2.26164 14.2115 1.89533 14.5865C1.52902 14.9614 1.32297 15.4698 1.32239 16V20.293L0 21.6465L0.690841 22.3536L2.1563 20.8536C2.20166 20.8071 2.23764 20.752 2.26219 20.6914C2.28673 20.6307 2.29937 20.5657 2.29936 20.5V16C2.29967 15.7349 2.4027 15.4807 2.58585 15.2933C2.769 15.1058 3.01732 15.0003 3.27634 15H4.74179V16.293L3.90789 17.1465L4.59873 17.8536L6.79692 15.6036C6.84778 15.5515 6.90816 15.5102 6.97461 15.482C7.04107 15.4539 7.11229 15.4394 7.18422 15.4394C7.25615 15.4394 7.32738 15.4539 7.39383 15.482C7.46029 15.5102 7.52067 15.5515 7.57153 15.6036C7.62239 15.6556 7.66274 15.7174 7.69027 15.7855C7.71779 15.8535 7.73196 15.9264 7.73196 16C7.73196 16.0736 7.71779 16.1465 7.69027 16.2146C7.66274 16.2826 7.62239 16.3444 7.57153 16.3965L5.37335 18.6465C5.32798 18.6929 5.292 18.748 5.26745 18.8087C5.2429 18.8693 5.23026 18.9344 5.23026 19C5.23026 19.0657 5.2429 19.1307 5.26745 19.1914C5.292 19.252 5.32798 19.3071 5.37335 19.3536C5.79927 19.7906 6.03847 20.3827 6.03847 21C6.03847 21.6173 5.79927 22.2094 5.37335 22.6465L2.93092 25.1465L3.62176 25.8536L4.93597 24.5084C5.2149 25.6166 5.7806 26.6273 6.57349 27.4341C7.36639 28.241 8.35715 28.814 9.44146 29.093L12.9276 29.9851C13.0054 30.005 13.0867 30.005 13.1645 29.9851L16.6507 29.093C17.9938 28.751 19.1864 27.9584 20.0381 26.8417C20.8899 25.7251 21.3519 24.3486 21.3503 22.9319ZM20.3733 12V13H5.71877V12H20.3733ZM16.4137 28.1229L13.0461 28.9846L9.67843 28.1229C8.66587 27.8626 7.75244 27.2984 7.05544 26.5028C6.35844 25.7072 5.9097 24.7165 5.76682 23.6579L6.06419 23.3536C6.61406 22.7905 6.94866 22.0444 7.00733 21.2505C7.06601 20.4567 6.84488 19.6675 6.38402 19.0262L8.26237 17.1036C8.54629 16.8105 8.7052 16.4142 8.70433 16.0014C8.70346 15.5886 8.54289 15.1931 8.25774 14.9012C7.9726 14.6093 7.58612 14.445 7.18287 14.4441C6.77961 14.4432 6.39244 14.6058 6.10607 14.8965L5.71877 15.293V14H20.3733V22.9319C20.3746 24.1255 19.9854 25.2852 19.2678 26.2261C18.5501 27.1669 17.5453 27.8347 16.4137 28.1229Z" fill="black"/>
<path d="M16.4654 18C16.0769 17.9995 15.7044 17.8413 15.4297 17.5601C15.155 17.2789 15.0004 16.8976 15 16.5H14.023C14.023 17.163 14.2803 17.7989 14.7384 18.2677C15.1964 18.7366 15.8177 19 16.4654 19C17.1132 19 17.7345 18.7366 18.1925 18.2677C18.6505 17.7989 18.9079 17.163 18.9079 16.5H17.9309C17.9304 16.8976 17.7759 17.2789 17.5012 17.5601C17.2264 17.8413 16.854 17.9995 16.4654 18Z" fill="black"/>
<path d="M13.0461 20.9999C9.62808 20.9999 8.80975 23.2855 8.6262 24.6479C8.59718 24.8679 8.63589 25.0916 8.73693 25.288C8.83798 25.4844 8.99633 25.6436 9.18994 25.7436C9.38355 25.8435 9.60279 25.8792 9.81713 25.8456C10.0315 25.812 10.2302 25.7108 10.3858 25.5562C11.0946 24.8552 11.9897 24.4999 13.0461 24.4999C14.1024 24.4999 14.9976 24.8552 15.7064 25.5559C15.8995 25.7496 16.159 25.8585 16.4294 25.8593C16.5957 25.8588 16.7595 25.8181 16.9074 25.7405C17.1012 25.642 17.2596 25.4832 17.3599 25.287C17.4602 25.0907 17.4973 24.8671 17.466 24.6479C17.2824 23.2855 16.4641 20.9999 13.0461 20.9999ZM16.4651 24.8489C16.4525 24.8571 16.4375 24.8603 16.4228 24.858C16.4081 24.8557 16.3947 24.848 16.3851 24.8364C15.5007 23.9624 14.3459 23.4999 13.0461 23.4999C11.7462 23.4999 10.5914 23.9621 9.7071 24.8366C9.69748 24.8482 9.68409 24.8558 9.66939 24.8581C9.65469 24.8604 9.63967 24.8572 9.62711 24.8491C9.6147 24.8446 9.6044 24.8355 9.59825 24.8235C9.59211 24.8116 9.59057 24.7978 9.59395 24.7848C9.84296 22.9368 11.0044 21.9999 13.0461 21.9999C15.0878 21.9999 16.2492 22.9368 16.4982 24.7846C16.5016 24.7976 16.5001 24.8114 16.4939 24.8234C16.4878 24.8353 16.4775 24.8444 16.4651 24.8489Z" fill="black"/>
<path d="M12.0691 16.5H11.0921C11.092 16.7632 11.0243 17.0218 10.8957 17.2498C10.7671 17.4777 10.5822 17.667 10.3595 17.7987C10.1368 17.9304 9.88419 17.9998 9.62701 18C9.36983 18.0001 9.11714 17.931 8.89431 17.7996L8.40509 18.6651C8.77643 18.8845 9.19763 19 9.62638 19C10.0551 19 10.4763 18.8844 10.8476 18.665C11.2189 18.4456 11.5273 18.13 11.7417 17.75C11.9561 17.3699 12.069 16.9388 12.0691 16.5Z" fill="black"/>
<path d="M28.6776 7.79294V3.5C28.677 2.96975 28.471 2.46139 28.1047 2.08644C27.7384 1.7115 27.2417 1.5006 26.7237 1.5H25.2582V0.5C25.2582 0.367392 25.2067 0.240215 25.1151 0.146447C25.0235 0.0526784 24.8993 0 24.7697 0H9.13817C9.00861 0 8.88436 0.0526784 8.79275 0.146447C8.70115 0.240215 8.64968 0.367392 8.64968 0.5V10H9.62665V3H20.3733V2H9.62665V1H24.2812V2.79294L23.8939 2.39644C23.7526 2.25049 23.5844 2.13456 23.3992 2.0553C23.2139 1.97604 23.0152 1.93501 22.8144 1.93457C22.6136 1.93413 22.4147 1.97428 22.2292 2.05272C22.0436 2.13117 21.875 2.24636 21.733 2.39168C21.591 2.537 21.4785 2.7096 21.4018 2.89955C21.3252 3.08951 21.286 3.29309 21.2864 3.49861C21.2868 3.70413 21.3269 3.90753 21.4043 4.09715C21.4818 4.28677 21.595 4.45887 21.7376 4.60356L23.616 6.52619C23.1551 7.16753 22.934 7.95665 22.9927 8.75052C23.0513 9.5444 23.3859 10.2905 23.9358 10.8536L24.2812 11.2071V11.9321C24.2808 12.7932 24.0776 13.6415 23.6887 14.4052C23.2999 15.1688 22.7369 15.8252 22.0474 16.3188L22.6071 17.1384C23.3889 16.5786 24.0341 15.842 24.4928 14.9857C24.9515 14.1294 25.2112 13.1765 25.252 12.2009L26.3782 13.3538L27.0691 12.6466L24.6267 10.1466C24.2007 9.70959 23.9615 9.11749 23.9615 8.50019C23.9615 7.88288 24.2007 7.29078 24.6267 6.85375C24.672 6.80732 24.708 6.7522 24.7325 6.69153C24.7571 6.63087 24.7697 6.56585 24.7697 6.50019C24.7697 6.43452 24.7571 6.3695 24.7325 6.30884C24.708 6.24818 24.672 6.19305 24.6267 6.14663L22.4285 3.89663C22.3776 3.84456 22.3373 3.78276 22.3097 3.71474C22.2822 3.64672 22.268 3.57381 22.268 3.50019C22.268 3.42656 22.2822 3.35366 22.3097 3.28564C22.3373 3.21762 22.3776 3.15581 22.4285 3.10375C22.4793 3.05169 22.5397 3.01039 22.6062 2.98222C22.6726 2.95404 22.7438 2.93954 22.8158 2.93954C22.8877 2.93954 22.9589 2.95404 23.0254 2.98222C23.0918 3.01039 23.1522 3.05169 23.2031 3.10375L25.4013 5.35375L26.0921 4.64663L25.2582 3.79294V2.5H26.7237C26.9827 2.50031 27.231 2.60577 27.4141 2.79324C27.5973 2.98071 27.7003 3.23488 27.7006 3.5V8C27.7006 8.06566 27.7133 8.13068 27.7378 8.19135C27.7624 8.25201 27.7983 8.30713 27.8437 8.35356L29.3092 9.85356L30 9.14644L28.6776 7.79294Z" fill="black"/>
<path d="M13.5345 6.49994C13.9231 6.5004 14.2955 6.65859 14.5703 6.93979C14.845 7.22099 14.9995 7.60226 15 7.99994H15.977C15.977 7.3369 15.7196 6.70101 15.2616 6.23217C14.8035 5.76333 14.1823 5.49994 13.5345 5.49994C12.8868 5.49994 12.2655 5.76333 11.8075 6.23217C11.3494 6.70101 11.0921 7.3369 11.0921 7.99994H12.0691C12.0695 7.60226 12.2241 7.22099 12.4988 6.93979C12.7735 6.65859 13.146 6.5004 13.5345 6.49994Z" fill="black"/>
<path d="M20.3733 6.50001C20.6306 6.50058 20.8832 6.57016 21.106 6.70182C21.3288 6.83349 21.5139 7.02263 21.643 7.25039L22.4887 6.74964C22.2199 6.27291 21.8049 5.90032 21.3081 5.68966C20.8113 5.47899 20.2605 5.44205 19.741 5.58454C19.2216 5.72704 18.7627 6.04101 18.4354 6.47775C18.1081 6.91449 17.9308 7.44959 17.9309 8.00001H18.9079C18.9083 7.60232 19.0629 7.22105 19.3376 6.93985C19.6123 6.65864 19.9848 6.50046 20.3733 6.50001Z" fill="black"/>
</svg>
