<svg width="32" height="32" viewBox="0 0 32 32" fill="none" xmlns="http://www.w3.org/2000/svg">
<path d="M9.36249 1.7439C7.86425 1.7439 6.67046 2.22767 5.81429 3.1819C4.20472 4.97561 4.09884 7.97604 4.17888 9.60492L4.19095 9.84315C4.29642 11.8964 4.44015 14.6908 1.78345 17.4799C1.93321 17.7365 2.26075 18.1668 2.86521 18.4055C3.05452 18.4802 3.24395 18.5166 3.44429 18.5166C3.68669 18.5166 3.92335 18.4651 4.17395 18.4106C4.45022 18.3505 4.73587 18.2884 5.05468 18.2884C5.35913 18.2884 5.64753 18.346 5.93616 18.4647C6.2497 18.5936 6.49579 18.8431 6.75642 19.1071C7.15708 19.5133 7.53501 19.898 8.16302 19.8798C8.70507 19.8657 9.18015 19.6816 9.68306 19.4868C10.1987 19.287 10.7645 19.0711 11.3395 19.0711C12.1705 19.0711 12.8715 19.4345 13.3125 19.6935C13.8196 18.0702 15.4712 12.1153 14.2471 6.89312C14.0455 6.03324 12.8629 1.7439 9.36249 1.7439ZM5.65497 6.793C5.65497 5.89568 6.34497 5.16561 7.19323 5.16561C8.04149 5.16561 8.73155 5.89562 8.73155 6.793C8.73155 7.69038 8.04143 8.42045 7.19323 8.42045C6.34509 8.42045 5.65497 7.69038 5.65497 6.793ZM11.8258 9.32087C11.385 10.2033 10.3555 10.7734 9.20317 10.7734C8.05069 10.7734 7.0212 10.2033 6.58034 9.32087C6.52274 9.20557 6.52643 9.06677 6.59007 8.95506C6.6537 8.84329 6.76796 8.77504 6.89124 8.77504H11.5151C11.6384 8.77504 11.7526 8.84336 11.8163 8.95506C11.8798 9.06671 11.8834 9.20551 11.8258 9.32087ZM11.2128 8.42045C10.3646 8.42045 9.67456 7.69045 9.67456 6.793C9.67456 5.89568 10.3646 5.16561 11.2128 5.16561C12.061 5.16561 12.7511 5.89562 12.7511 6.793C12.7511 7.69038 12.061 8.42045 11.2128 8.42045Z" fill="white"/>
<path d="M11.2128 5.90942C10.7524 5.90942 10.3777 6.30573 10.3777 6.79286C10.3777 7.27998 10.7524 7.67635 11.2128 7.67635C11.6733 7.67635 12.048 7.27998 12.048 6.79286C12.048 6.30579 11.6733 5.90942 11.2128 5.90942Z" fill="white"/>
<path d="M20.0253 17.1687C20.0253 17.6559 20.3999 18.0522 20.8604 18.0522C21.1708 18.0522 21.4456 17.8729 21.5892 17.5994L20.0516 16.9486C20.0342 17.02 20.0253 17.0938 20.0253 17.1687Z" fill="white"/>
<path d="M8.02837 6.79386C8.02837 6.30674 7.65372 5.91043 7.19323 5.91043C6.7328 5.91043 6.35815 6.30674 6.35815 6.79386C6.35815 7.28099 6.7328 7.67736 7.19323 7.67736C7.65372 7.67736 8.02837 7.28099 8.02837 6.79386Z" fill="white"/>
<path d="M9.20312 10.0294C9.79609 10.0294 10.3542 9.83712 10.752 9.51886H7.65408C8.05193 9.83712 8.61004 10.0294 9.20312 10.0294Z" fill="white"/>
<path d="M27.8089 20.2187L27.821 19.9808C27.901 18.3518 27.7949 15.3513 26.1854 13.5576C25.3292 12.6035 24.1356 12.1198 22.6374 12.1198C19.1371 12.1198 17.9542 16.4091 17.7526 17.2689C16.5275 22.4959 18.1797 28.4467 18.6872 30.0695C19.1282 29.8104 19.8281 29.4469 20.6603 29.4469C21.2247 29.4469 21.8011 29.6627 22.3168 29.8626C22.8196 30.0574 23.2947 30.2415 23.8367 30.2556C24.4649 30.2735 24.8428 29.889 25.2434 29.483C25.5039 29.2189 25.75 28.9694 26.0636 28.8405C26.3523 28.7218 26.6406 28.6642 26.945 28.6642C27.2639 28.6642 27.5496 28.7263 27.8258 28.7864C28.0764 28.8409 28.313 28.8924 28.5555 28.8924H28.5556C28.7558 28.8924 28.9452 28.856 29.1345 28.7813C29.7393 28.5426 30.0668 28.112 30.2163 27.8558C27.5597 25.0665 27.7034 22.272 27.8089 20.2187ZM19.3222 17.1689C19.3222 16.8462 19.4116 16.534 19.5807 16.266C19.6731 16.1199 19.8493 16.062 20.0038 16.1272L22.159 17.0394C22.3132 17.1046 22.4032 17.2752 22.3748 17.4484C22.2466 18.2295 21.6097 18.7963 20.8604 18.7963C20.0122 18.7963 19.3222 18.0663 19.3222 17.1689ZM23.0298 21.0797C22.4101 21.0797 21.9059 20.5463 21.9059 19.8907C21.9059 19.235 22.4101 18.7016 23.0298 18.7016C23.6495 18.7016 24.1537 19.235 24.1537 19.8907C24.1538 20.5463 23.6496 21.0797 23.0298 21.0797ZM24.6781 18.7963C23.9289 18.7963 23.292 18.2294 23.1638 17.4483C23.1354 17.2751 23.2253 17.1045 23.3796 17.0393L25.5348 16.1272C25.6891 16.062 25.8655 16.1198 25.9578 16.266C26.127 16.5341 26.2164 16.8463 26.2164 17.1688C26.2164 18.0663 25.5263 18.7963 24.6781 18.7963Z" fill="#FE1D5F"/>
<path d="M23.9493 17.5994C24.0928 17.8728 24.3676 18.0522 24.6781 18.0522C25.1386 18.0522 25.5132 17.6559 25.5132 17.1687C25.5132 17.0939 25.5044 17.02 25.487 16.9486L23.9493 17.5994Z" fill="white"/>
<path d="M23.0298 19.4454C22.7979 19.4454 22.6091 19.6451 22.6091 19.8905C22.6091 20.1359 22.7979 20.3356 23.0298 20.3356C23.2617 20.3356 23.4505 20.1359 23.4505 19.8905C23.4506 19.6451 23.2618 19.4454 23.0298 19.4454Z" fill="white"/>
<path d="M9.36248 1C7.66385 1 6.29849 1.56176 5.30433 2.66967C3.51394 4.66497 3.39072 7.89551 3.47668 9.64353L3.48887 9.88344C3.59492 11.948 3.72687 14.5176 1.11008 17.1342C1.00672 17.2376 0.972381 17.3966 1.02318 17.5372C1.03929 17.5817 1.43064 18.633 2.61957 19.1023C2.88887 19.2086 3.15869 19.2603 3.44439 19.2603C3.75828 19.2603 4.04164 19.1986 4.31562 19.1391C4.56857 19.0841 4.80752 19.0321 5.05478 19.0321C5.27058 19.0321 5.47555 19.0732 5.68156 19.1579C5.86461 19.233 6.06154 19.4327 6.27013 19.6441C6.70092 20.0807 7.23699 20.624 8.12433 20.624C8.7626 20.624 9.39084 20.392 9.9251 20.1851C10.4069 19.9985 10.8903 19.8148 11.3498 19.8148C12.2823 19.8148 13.2908 20.5491 13.3006 20.5562C13.3896 20.622 13.5024 20.6406 13.6061 20.6068C13.7098 20.5728 13.7929 20.49 13.8312 20.3826C13.8577 20.3081 14.4864 18.5278 14.9422 15.947C15.364 13.5584 15.7043 10.0176 14.9298 6.71371C14.2821 3.9517 12.4797 1 9.36248 1ZM13.3124 19.6936C12.8714 19.4346 12.1705 19.0712 11.3394 19.0712C10.7645 19.0712 10.1987 19.287 9.68299 19.4868C9.18008 19.6817 8.705 19.8657 8.16295 19.8799C7.53494 19.8981 7.15701 19.5133 6.75635 19.1072C6.49578 18.8431 6.24963 18.5937 5.93609 18.4647C5.64746 18.3461 5.35906 18.2884 5.05461 18.2884C4.7358 18.2884 4.4501 18.3505 4.17388 18.4107C3.92328 18.4651 3.68656 18.5166 3.44422 18.5166C3.24389 18.5166 3.05445 18.4803 2.86513 18.4055C2.26068 18.1669 1.93314 17.7365 1.78338 17.4799C4.44008 14.6908 4.29635 11.8964 4.19088 9.84321L4.17881 9.60497C4.09871 7.97604 4.20471 4.97561 5.81422 3.18196C6.67039 2.22779 7.86418 1.74395 9.36242 1.74395C12.8628 1.74395 14.0455 6.0333 14.247 6.89312C15.4712 12.1153 13.8196 18.0702 13.3124 19.6936Z" fill="black" stroke="black" stroke-width="0.5"/>
<path d="M11.515 8.77496H6.8911C6.76782 8.77496 6.65356 8.84328 6.58993 8.95498C6.5263 9.06663 6.52266 9.20549 6.5802 9.32079C7.02106 10.2032 8.05061 10.7733 9.20304 10.7733C10.3554 10.7733 11.3849 10.2032 11.8257 9.32079C11.8833 9.20549 11.8796 9.06669 11.816 8.95498C11.7525 8.84322 11.6382 8.77496 11.515 8.77496ZM9.20309 10.0294C8.61007 10.0294 8.05196 9.83712 7.65399 9.51886H10.752C10.3542 9.83712 9.79606 10.0294 9.20309 10.0294Z" fill="black"/>
<path d="M8.73155 6.79293C8.73155 5.89561 8.04143 5.16554 7.19323 5.16554C6.34503 5.16554 5.65497 5.89555 5.65497 6.79293C5.65497 7.69031 6.34497 8.42038 7.19323 8.42038C8.04149 8.42038 8.73155 7.69031 8.73155 6.79293ZM6.35815 6.79293C6.35815 6.30581 6.7328 5.9095 7.19323 5.9095C7.65372 5.9095 8.02837 6.30581 8.02837 6.79293C8.02837 7.28006 7.65372 7.67643 7.19323 7.67643C6.7328 7.67643 6.35815 7.28006 6.35815 6.79293Z" fill="black"/>
<path d="M11.2128 5.16554C10.3646 5.16554 9.67456 5.89555 9.67456 6.79293C9.67456 7.69031 10.3646 8.42038 11.2128 8.42038C12.061 8.42038 12.7511 7.69037 12.7511 6.79293C12.7511 5.89567 12.061 5.16554 11.2128 5.16554ZM11.2128 7.67649C10.7524 7.67649 10.3777 7.28012 10.3777 6.79299C10.3777 6.30587 10.7524 5.90956 11.2128 5.90956C11.6733 5.90956 12.048 6.30587 12.048 6.79299C12.048 7.28012 11.6733 7.67649 11.2128 7.67649Z" fill="black"/>
<path d="M23.0298 18.7015C22.4101 18.7015 21.9059 19.235 21.9059 19.8906C21.9059 20.5462 22.4101 21.0796 23.0298 21.0796C23.6495 21.0796 24.1537 20.5462 24.1537 19.8906C24.1538 19.2349 23.6496 18.7015 23.0298 18.7015ZM23.0298 20.3357C22.7979 20.3357 22.6091 20.136 22.6091 19.8906C22.6091 19.6452 22.7979 19.4455 23.0298 19.4455C23.2617 19.4455 23.4505 19.6452 23.4505 19.8906C23.4506 20.136 23.2618 20.3357 23.0298 20.3357Z" fill="black"/>
<path d="M28.511 20.259L28.5232 20.0194C28.6091 18.2712 28.4859 15.0407 26.6955 13.0454C25.7012 11.9375 24.336 11.3757 22.6375 11.3757C19.5204 11.3757 17.7178 14.3274 17.0703 17.0898C16.2958 20.3936 16.6362 23.9344 17.058 26.323C17.5138 28.9038 18.1424 30.684 18.169 30.7586C18.2072 30.866 18.2903 30.9485 18.3938 30.9826C18.4976 31.0167 18.6103 30.998 18.6992 30.9324C18.7094 30.925 19.7125 30.1908 20.6503 30.1908C21.0752 30.1908 21.5933 30.3745 22.075 30.5611C22.6093 30.7681 23.1617 30.9821 23.8196 30.9993C23.8384 30.9997 23.8572 31 23.8758 31C24.7632 31 25.2992 30.4567 25.73 30.0201C25.9385 29.8088 26.1355 29.6092 26.3184 29.5338C26.5244 29.4492 26.7294 29.4081 26.9452 29.4081C27.1926 29.4081 27.4315 29.46 27.6844 29.5151C27.9583 29.5746 28.2417 29.6363 28.5556 29.6363C28.5557 29.6363 28.5557 29.6363 28.5558 29.6363C28.8415 29.6363 29.1111 29.5846 29.3805 29.4782C30.5694 29.009 30.9608 27.9577 30.9768 27.9131C31.0276 27.7725 30.9933 27.6134 30.89 27.51C28.2729 24.8933 28.4049 22.3237 28.511 20.259ZM29.1346 28.7813C28.9453 28.856 28.7558 28.8924 28.5557 28.8924H28.5556C28.3132 28.8924 28.0765 28.8409 27.8259 28.7864C27.5496 28.7263 27.264 28.6642 26.9452 28.6642C26.6407 28.6642 26.3523 28.7218 26.0638 28.8405C25.7502 28.9694 25.504 29.2189 25.2435 29.483C24.8429 29.889 24.465 30.2735 23.8368 30.2556C23.2949 30.2415 22.8198 30.0574 22.3169 29.8626C21.8012 29.6628 21.2249 29.4469 20.6604 29.4469C19.8283 29.4469 19.1283 29.8105 18.6873 30.0695C18.1798 28.4467 16.5276 22.4959 17.7528 17.2689C17.9544 16.4091 19.1372 12.1198 22.6375 12.1198C24.1357 12.1198 25.3293 12.6035 26.1855 13.5576C27.7951 15.3513 27.901 18.3518 27.8211 19.9808L27.809 20.2187C27.7036 22.272 27.5598 25.0666 30.2166 27.8558C30.0669 28.112 29.7395 28.5425 29.1346 28.7813Z" fill="black" stroke="black" stroke-width="0.5"/>
<path d="M22.3747 17.4483C22.4031 17.2751 22.3131 17.1045 22.1589 17.0392L20.0037 16.1271C19.8493 16.0619 19.673 16.1197 19.5807 16.2659C19.4116 16.5339 19.3221 16.8461 19.3221 17.1687C19.3221 18.0661 20.0122 18.7962 20.8604 18.7962C21.6096 18.7962 22.2465 18.2293 22.3747 17.4483ZM20.8604 18.0523C20.3999 18.0523 20.0253 17.6559 20.0253 17.1688C20.0253 17.0939 20.0341 17.0201 20.0515 16.9487L21.5892 17.5995C21.4456 17.8729 21.1707 18.0523 20.8604 18.0523Z" fill="black"/>
<path d="M25.5348 16.1271L23.3796 17.0392C23.2254 17.1045 23.1354 17.2751 23.1638 17.4483C23.292 18.2293 23.9289 18.7962 24.6781 18.7962C25.5263 18.7962 26.2165 18.0661 26.2165 17.1687C26.2165 16.8461 26.1271 16.5339 25.9578 16.2659C25.8655 16.1197 25.6892 16.0619 25.5348 16.1271ZM24.6781 18.0523C24.3678 18.0523 24.0929 17.873 23.9493 17.5995L25.487 16.9486C25.5044 17.02 25.5133 17.0939 25.5133 17.1687C25.5132 17.6559 25.1386 18.0523 24.6781 18.0523Z" fill="black"/>
</svg>
