<svg width="150" height="150" viewBox="0 0 150 150" fill="none" xmlns="http://www.w3.org/2000/svg">
<rect width="150" height="150" fill="white"/>
<path fill-rule="evenodd" clip-rule="evenodd" d="M62 35H29C24.5817 35 21 38.5817 21 43V45V55V58.9656C21 62.5374 23.3678 65.6765 26.8022 66.6578L29.0773 67.3078C36.8136 69.5182 36.8136 80.4818 29.0773 82.6922L26.8022 83.3422C23.3678 84.3235 21 87.4626 21 91.0344V95V105V107C21 111.418 24.5817 115 29 115H62H106H139C143.418 115 147 111.418 147 107V105V95V91.0344C147 87.4626 144.632 84.3235 141.198 83.3422L138.923 82.6922C131.186 80.4818 131.186 69.5182 138.923 67.3078L141.198 66.6578C144.632 65.6765 147 62.5374 147 58.9656V55V45V43C147 38.5817 143.418 35 139 35H106H62Z" fill="#01005C"/>
<circle cx="122" cy="35" r="25" fill="white"/>
<circle cx="122" cy="35" r="21.4286" fill="url(#paint0_linear)"/>
<path d="M118.655 39.0238L113.69 34.0595L112 35.7381L118.655 42.3928L132.94 28.1071L131.262 26.4286L118.655 39.0238Z" fill="white"/>
<mask id="mask0" mask-type="alpha" maskUnits="userSpaceOnUse" x="3" y="53" width="126" height="80">
<path fill-rule="evenodd" clip-rule="evenodd" d="M44 53H11C6.58172 53 3 56.5817 3 61V63V73V76.9656C3 80.5374 5.36782 83.6765 8.80223 84.6578L11.0773 85.3078C18.8136 87.5182 18.8136 98.4818 11.0773 100.692L8.80223 101.342C5.36782 102.323 3 105.463 3 109.034V113V123V125C3 129.418 6.58172 133 11 133H44H88H121C125.418 133 129 129.418 129 125V123V113V109.034C129 105.463 126.632 102.323 123.198 101.342L120.923 100.692C113.186 98.4818 113.186 87.5182 120.923 85.3078L123.198 84.6578C126.632 83.6765 129 80.5374 129 76.9656V73V63V61C129 56.5817 125.418 53 121 53H88H44Z" fill="url(#paint1_linear)"/>
</mask>
<g mask="url(#mask0)">
<path fill-rule="evenodd" clip-rule="evenodd" d="M44 53H11C6.58172 53 3 56.5817 3 61V63V73V76.9656C3 80.5374 5.36782 83.6765 8.80223 84.6578L11.0773 85.3078C18.8136 87.5182 18.8136 98.4818 11.0773 100.692L8.80223 101.342C5.36782 102.323 3 105.463 3 109.034V113V123V125C3 129.418 6.58172 133 11 133H44H88H121C125.418 133 129 129.418 129 125V123V113V109.034C129 105.463 126.632 102.323 123.198 101.342L120.923 100.692C113.186 98.4818 113.186 87.5182 120.923 85.3078L123.198 84.6578C126.632 83.6765 129 80.5374 129 76.9656V73V63V61C129 56.5817 125.418 53 121 53H88H44Z" fill="url(#paint2_linear)"/>
<path d="M33 53V133" stroke="#FFC956" stroke-width="4" stroke-linecap="round" stroke-dasharray="8 8"/>
<path d="M99 53V133" stroke="#FFC956" stroke-width="4" stroke-linecap="round" stroke-dasharray="8 8"/>
</g>
<circle cx="66" cy="93" r="16" fill="#01005C"/>
<circle cx="66" cy="93" r="12" fill="url(#paint3_linear)"/>
<defs>
<linearGradient id="paint0_linear" x1="100.571" y1="13.5714" x2="143.429" y2="56.4286" gradientUnits="userSpaceOnUse">
<stop stop-color="#00AB1B"/>
<stop offset="1" stop-color="#ADE5B5"/>
</linearGradient>
<linearGradient id="paint1_linear" x1="3" y1="53" x2="129" y2="133" gradientUnits="userSpaceOnUse">
<stop stop-color="#020080"/>
<stop offset="1" stop-color="#5452AC"/>
</linearGradient>
<linearGradient id="paint2_linear" x1="3" y1="53" x2="129" y2="133" gradientUnits="userSpaceOnUse">
<stop stop-color="#020080"/>
<stop offset="1" stop-color="#5452AC"/>
</linearGradient>
<linearGradient id="paint3_linear" x1="54" y1="81" x2="78" y2="105" gradientUnits="userSpaceOnUse">
<stop stop-color="#FFC956"/>
<stop offset="1" stop-color="#FFF5E0"/>
</linearGradient>
</defs>
</svg>
