<svg width="150" height="150" viewBox="0 0 150 150" fill="none" xmlns="http://www.w3.org/2000/svg">
<rect width="150" height="150" fill="white"/>
<rect x="24" y="35" width="126" height="80" rx="8" fill="#01005C"/>
<circle cx="122" cy="35" r="25" fill="white"/>
<circle cx="122" cy="35" r="21.4286" fill="url(#paint0_linear)"/>
<path d="M118.655 39.0238L113.69 34.0595L112 35.7381L118.655 42.3928L132.94 28.1071L131.262 26.4286L118.655 39.0238Z" fill="white"/>
<mask id="mask0" mask-type="alpha" maskUnits="userSpaceOnUse" x="3" y="53" width="126" height="80">
<rect x="3" y="53" width="126" height="80" rx="8" fill="#020080"/>
</mask>
<g mask="url(#mask0)">
<rect x="3" y="53" width="126" height="80" rx="8" fill="#020080"/>
<path d="M119.5 49.5H10.6976C5.06562 49.5 0.5 54.0656 0.5 59.6976C0.5 63.8164 2.97773 67.5308 6.78055 69.1129L114.891 114.09C122.794 117.378 131.5 111.571 131.5 103.011V61.5C131.5 54.8726 126.127 49.5 119.5 49.5Z" fill="url(#paint1_linear)"/>
<circle cx="17" cy="73" r="6" fill="url(#paint2_linear)"/>
<circle cx="38" cy="73" r="12" fill="url(#paint3_linear)"/>
<path d="M13 117H53" stroke="#FFC956" stroke-width="4" stroke-linecap="round"/>
<path d="M13 125H93" stroke="#FFC956" stroke-width="4" stroke-linecap="round"/>
</g>
<defs>
<linearGradient id="paint0_linear" x1="100.571" y1="13.5714" x2="143.429" y2="56.4286" gradientUnits="userSpaceOnUse">
<stop stop-color="#00AB1B"/>
<stop offset="1" stop-color="#ADE5B5"/>
</linearGradient>
<linearGradient id="paint1_linear" x1="3.78995" y1="55.7719" x2="129.571" y2="122.018" gradientUnits="userSpaceOnUse">
<stop stop-color="#020082"/>
<stop offset="1" stop-color="#8C8BA2" stop-opacity="0"/>
</linearGradient>
<linearGradient id="paint2_linear" x1="11" y1="67" x2="23" y2="79" gradientUnits="userSpaceOnUse">
<stop stop-color="#FFC956"/>
<stop offset="1" stop-color="#FFF5E0"/>
</linearGradient>
<linearGradient id="paint3_linear" x1="26" y1="61" x2="50" y2="85" gradientUnits="userSpaceOnUse">
<stop stop-color="#FFC956"/>
<stop offset="1" stop-color="#FFF5E0"/>
</linearGradient>
</defs>
</svg>
